<mxfile host="app.diagrams.net" modified="2024-03-26T11:24:12.519Z" agent="Mozilla/5.0 (Windows NT 10.0; Win64; x64) AppleWebKit/537.36 (KHTML, like Gecko) Chrome/123.0.0.0 Safari/537.36" etag="ikaGgcfAl7MR16d0A50f" version="24.0.1" type="github">
  <diagram name="第 1 页" id="gySH61aROXAip3Gngee-">
    <mxGraphModel dx="958" dy="516" grid="1" gridSize="10" guides="1" tooltips="1" connect="1" arrows="1" fold="1" page="1" pageScale="1" pageWidth="827" pageHeight="1169" math="0" shadow="0">
      <root>
        <mxCell id="0" />
        <mxCell id="1" parent="0" />
        <mxCell id="ugaCTf1EiENJRhi7maTh-50" value="" style="rounded=0;whiteSpace=wrap;html=1;fillColor=#D9D9D9;" vertex="1" parent="1">
          <mxGeometry x="120" y="20" width="520" height="290" as="geometry" />
        </mxCell>
        <mxCell id="ugaCTf1EiENJRhi7maTh-49" style="edgeStyle=orthogonalEdgeStyle;rounded=0;orthogonalLoop=1;jettySize=auto;html=1;exitX=0.5;exitY=1;exitDx=0;exitDy=0;" edge="1" parent="1" source="ugaCTf1EiENJRhi7maTh-2">
          <mxGeometry relative="1" as="geometry">
            <mxPoint x="560" y="350" as="targetPoint" />
          </mxGeometry>
        </mxCell>
        <mxCell id="ugaCTf1EiENJRhi7maTh-2" value="" style="shape=image;verticalLabelPosition=bottom;labelBackgroundColor=default;verticalAlign=top;aspect=fixed;imageAspect=0;image=https://upload.wikimedia.org/wikipedia/commons/thumb/6/6f/Ethereum-icon-purple.svg/1200px-Ethereum-icon-purple.svg.png;" vertex="1" parent="1">
          <mxGeometry x="520" y="186.4" width="80" height="80" as="geometry" />
        </mxCell>
        <mxCell id="ugaCTf1EiENJRhi7maTh-3" value="" style="endArrow=classic;html=1;rounded=0;" edge="1" parent="1">
          <mxGeometry width="50" height="50" relative="1" as="geometry">
            <mxPoint x="440" y="226" as="sourcePoint" />
            <mxPoint x="520" y="225.92000000000002" as="targetPoint" />
          </mxGeometry>
        </mxCell>
        <mxCell id="ugaCTf1EiENJRhi7maTh-47" style="edgeStyle=orthogonalEdgeStyle;rounded=0;orthogonalLoop=1;jettySize=auto;html=1;exitX=1;exitY=0.5;exitDx=0;exitDy=0;entryX=0;entryY=0.5;entryDx=0;entryDy=0;" edge="1" parent="1" source="ugaCTf1EiENJRhi7maTh-5" target="ugaCTf1EiENJRhi7maTh-38">
          <mxGeometry relative="1" as="geometry" />
        </mxCell>
        <mxCell id="ugaCTf1EiENJRhi7maTh-5" value="Web API" style="shape=hexagon;perimeter=hexagonPerimeter2;whiteSpace=wrap;html=1;fixedSize=1;fillColor=#99CCFF;shadow=0;textShadow=0;rounded=0;gradientColor=none;treeFolding=0;treeMoving=0;noLabel=0;perimeterSpacing=0;fillStyle=auto;fontFamily=Times New Roman;fontSize=15;fontStyle=1" vertex="1" parent="1">
          <mxGeometry x="160" y="40" width="120" height="80" as="geometry" />
        </mxCell>
        <mxCell id="ugaCTf1EiENJRhi7maTh-6" value="" style="shape=image;imageAspect=0;aspect=fixed;verticalLabelPosition=bottom;verticalAlign=top;image=data:image/png,iVBORw0KGgoAAAANSUhEUgAAAgAAAAIACAYAAAD0eNT6AAAABGdBTUEAALGPC/xhBQAAAAFzUkdCAK7OHOkAAAAgY0hSTQAAeiYAAICEAAD6AAAAgOgAAHUwAADqYAAAOpgAABdwnLpRPAAAIABJREFUeJzsnQl8HEeV/xM2sAvhCARYwrWwQCCwQCBAdpddzJHEc8i2ZqZ7ZEkz3aPD8i3JzuEcBDkHxCSxYocEcMiFIRCcf46NEztg574cW/KlkXzksGTHzumcvp1M/ev1TMuyPD2qVzN9TM/7fj7vk12snu7prqn361dVvzrqKIIgKo5Ro0YdE1b1lpCibwoqWhv8/25fE0EQBEEQNhJUUj8NKdr6kKqzwVC0jYF4KuT2tREEQRAEUWICNdqXgqq26LDEPyyCir4soDR83e1rJQiCIAiiSE5PJI4Nqvps/pa/t1DyH1INOBBUtPmnqS0fcfvaCYIgCILAc3RYSak8oW8VSvzDqwGq/irMD1BV9Z/c/iIEQRAEQQgQjCW/F1S1x2USf55YHYprP3L7OxEEQRAEYcHoSP0J/K19AY93S5T8h8biMUrii25/R4IgCIIgcozS9X/hSf+8kKK/LZzQFe3JsKKPx1QKgoq+J6jql8C8Are/M0EQBEFUNIF4agxP4s+KJ3FtO3gAdHR0vGfoZ3BBsKWYzyAIgiAIwgGqovrXeDJegnh73w+z+wP19R/O93mKorw/pGqzuJh4CzEssCoY13/o9HcnCIIgiIojXFf3UUjkPPkexIzfh6MN/y70+Yr2Gf75C/kxGcHPzhj+AtHGf7P7uxMEQRBExQHldp6YtZCivSz81q9qG0KKHpA5XyCe+j5qfoCq7Qa/AagklPq7EwRBEERFEoprP+FJdh2i3P9aiTz+DS8B/nkDiGrDNhAqcGwpvjtBEARBVBxn1KQ+lyvHiybfg7AMMKA0fKKU11FV1fIBlJugURHQVwTi+n+W8joIgiAIwtdIJVxFfyAQ075l53UFIvWfxcwPAD+C3N9/ys7rIgiCIIhyB19yV7StuZI7CsY63pPpjf4I/os9NhRLnApv+OLXqO8CQQN+BdhzEQRBEISvCav6KTyZP+ZEUs30RL6fSUefYL1RxkVAX6YnOhr7GeakRB4vIK75aRA42HMRBEEQhO+QsO81lt1VqcnPY8+V2TD205neyIJMOvIuJP+hwYXAYrY+KrRUcCiDuw2q2j5E1eJ+u4crCIIgCMKTnNLS8l6Yqc/fit9ETPJbFYql/ht7LpZW38cTfBt/639reOI/XARE9vO/mZ/ZHMhrFlSIM5TElw0/AOE5C9n5AadHEp/EnosgCIIgypJwPHlaUNH7EIl/h6z1bqYnOoYn9mcLJf4jhEA6uoOloy0y8wOCSuqnIeSSRXAgVFX1fdhzEQRBEERZMFpp/GpI0e5FlMoPFLLvLQRbH/0af+tfikn8R0Q62sXS1f+DPfegaZGqv4SYH7CJRxh7LoIgCILwLFn7Xn0O+PEj3voXB2q0L2HPlUkrHzPK+L3Rg0Ul/0PVgAz/7yL+eWir33Hj9OPge2PmB/C/XzY6pn0Dey6CIAiC8Axyb8LaxmBMC2LPxR4cdQyU7TPpyMulSPx5Jgnu5v+dw9LqB7HXFqxJngiCBlv5AAGBPRdBEARBuEo4pv+YJ7G1mLFwWftenvR/yt/U19uR+PMIgW2ZvojGGN7qNzf3oQchBHbCPVFV9Z+w5yIIgiAIRxniloeaDS9j35vpqf4SlOedSPx5hMBTXAigrX5B4MCERi4EXkGIoz7ZTY0IgiAIwlactO/NrE0cy3ojs/mb/143kv/Q+QH8GhaytIq2+j1DafqYndsaEwRBEITdZO17Va0fUdqWtO896mie+NVMb2TAzcR/ZDUgsgsECduCdyWsiupf4/dkCUI07ZddGUEQBEEQJaEqnvpuSNEfFU5eqrZb2r53fex7PNE+7nayH0EIDMD8AJl7CfMDuDDqRVQDDG8Emh9AEARBOEZ1dfJ4eAvlb6PvCCYrefvevsgJVva9Xg1+vQ9wwYIe2hh0R1S1N8RFld4VUJNorwKCIAiCEEY2QQXj+g+x5zpk3xt50+2ELiUCuGCB+QGZtRG01a+EwDLmB4yu0b+APRdBEARBFES2RO2Ufa9Xg4uY17kQmAWCBnsfArHkd7gIeBg1xKLoc0apeK8CgiAIgjgMMLHhb6P3ICb4FWffm44ucTtp21MRiG7K9FRXyTyDQDw1hif3ZxETBZ/PTbJEexUQBEEQFY5pY4ux7wUb21BN8iTsudj68EdLad/r5cikI8syvTG01S9sFoTePVHRVlYpyf/CnosgCIKoQGTte/lbagh7LthtD2bN22Xf69XI9EYOwMRGtrHq49h7NnZ846f581kABkqYCZhn1KQ+hz0XQRAEUSEElOQorH2v7Fa2mZ7oT3gSXOd2MnZZCOyEiY6wjwH2/oVV/RTMEkz+t7tkl2ASBEEQPmWIfW9GLPFn7XtPjyTQM9wzPeM+Z7jneSABeyW4ENjA74mM1a9hwhRStC2Iao2UCRNBEAThI8C+F97g+dvh24iZ5g+G4w3fxp6LdVV9wAv2vV6OTG90Mexv4OXnSBAEQfgAngQ2IN4ctwTjegx7Dq/a93o1jPkBMCFycwC9igKMlvgz/at4JUd/h5wECYIgKhDYblbgTVHavpdtqD6FJ7TH3E6q5RhcBLxizA9g+AQdiKe+z5P7EyIiQGb7ZYIgCKLM4Yn9VQEBsCGopH6K+dxytO/1anAh0J3pjf0v5v4HYvrPuADoEREA4O6IazUEQRBE2SNSARgSI25Fy7pa3lvO9r1eDpgfwDaM+0Kh+w9L/XKTOUWfKVUACIIgKhGRCsCwMWPLrWiz9r3RZ9xOlH4OLqz28P/OyWwY+6Gh9x4mAcIwDRd0ezHPkyoABEEQFQpWABwSAtp20+c/s0H5ql/te70aXAg8DwZKHR1HvQeWAXJhNiDzHEkAEARBVCiyAsCMVHPyhd6l6gG3E2IlxtPLVDZ9ekJ42R8JAIIgCGIQ/ub4ikViWBcSXEoWjuus85d1bOeKmOtJsRIC7vPcS+uN+y6Y5DNBRVtq9e8yLo4EQRBEmWMpAGKpaDCW/F5Q1R4XfZOM1unsz9fWsv3r3E+SfoyDPVF21w01TElo4kM1qt4VjOs/hMmbJAAIgiCIQUKK9rKVAMj9iWk1u1U06TRP1Niji2pcT5h+ihV3xllTSxJT2t9hztGAh0gCgCAIgjgMAQFgcHoicSx2lvl559SzLQ+orifPco5tDyus4/x68cSvaAfyrdIoJAACgen/7GyrIwiCIFzHSgBYWf6eoSS+PHFKoks0IY2p0dnVc+rYm6tofgAm3u6OsRvn1bKx44Xf+NmsiQ1vB2q0vPsIkAAgCIIgDoMngJcwAgDIpKsnrL0nzqZMSwgnpxpNM8av3+lxP7l6OTLpKFt+Sw2rS4mP80/QGthjv5jK9t4wqc/qmZEAIAiCIA5DSgD0RZohWUEyX7qwho3XxZNVy+Qk676bhgXyxfp7VTZ1mvg4v1qbYn85ayJ7q7OV7bmqje29foqUAJDZ44EgCIIoc6wEQEDRFKtjTAFgxltdMfb7K2uNcr9o8pp9QT174THF9aTrhXjlyRi78tI64XsX5vHrKc3shcunG4nfDBIABEEQhDBBRXuxWAFgBkxY+/m54sMCML4NwmHP6sqcH7BvbcxYNlldKy6czm5uYhsunXZY4h8UAJJDACQACIIgKhApAdAbbSqU2GDJWiNiyVqiMWmMe8P4t9tJ2YmA7wnLJFMTxO+RVt/Alpw3OW/iL1YAKIryfntaF0EQBOFZrAQArP23OmYkAQBxcH3WtCaGMK1pb0uwDff5e37AM8tVdvaZ4lWSyHid3TxzInuj0zrxHxoCIAFAEARBCMIFwAt2CAAzdq5QjPFtUdta+Dv4+9ee8tewACyDhOGOqhrx+3DJ5GY2MKd1xMRfrACAnQTtaV0EQRCEZ5ETALFGbALctExlM2eKv/matsIH1pW3EJCx753W0Mi6L5oqnPiLHQIgAUAQBFGBWAmAkKrFrY6REQAQ5hr3+gbxZFjOtsJrFqts0hTxcf6a2gZ22zmT2C6Bcj8JAIIgCKIoeALY4ZQAMGPv2qjxdj+uVlwInD8rwfofLI9lg88/grPvHRvX2TWtLezVK8XL/aUUAGDzbE/rIgiCIDyLlQAIKskaq2My6UhDKRLl9kdj7Fezxde/e91WeJeEfe+5zc1s0y+nF5X4BwXAjZN7rZ4ZCQCCIAjiMNwUAGZAqXzyVESpPGcr/K5HbIVl7Hubk42GfW8pEj8JAIIgCAJNUNG2uy0AIGRshSd6wFY4a98rPrlRGWbf6wUBMEpVP2hP6yIIgiA8i5UACCv6eKtjWDqasiuhmrbCosvlIMBW+MXHnB0WMO17hZc3qvnte0sqAG4iAUAQBEEI4jUBYMZWpK1wdZ1ujL/bbSs8aN9bJy5Qzm5qYhtKNM5fuAIwiQQAQRAEIUZQ0Z/3ogAwA2yFG1rEhwWSTZpttsJwLRj73mQia9+7W3JZn1MCYOzYxg/Z07oIgiAIz2IlAEKqVmt1TCYd050st+9fG2W3XTceZyvcnmAb/l6a+QGGfe9ZEva9c0s/zl94CIAEAEEQBCEITwDbvC4AzHgVO+6esxV+faWcf8BbSPteiAsn4ux7SQAQBEEQrlBOAsAMw1Z4hn22wqZ9r5oUrzhMTcnZ95Z2CGBi2uqZFRIAgfr6D9vTugiCIAjPYiUAgkqqzuqYTF9Ec1MAQBxaey8+Jt88KTmirTDWvjdelyrKvtcLFQASAARBEBVISNG2lqMAMKNUtsKGfe8Fztv3lrYCMIkqAARBEIQYQUUfyJsUFL3e6hgvCQDpBF6jsz901rGXHlfYdXNrjf8fM87/7K/sX9bnlAA4TW35iD2tiyAIgvAsVhWAggKgN5p0O+EXKuFjbIUxkbXvneJ6oicBQBAEQRSNVAXAwwIAQmYSX6Ew7XvfnOt+ki8oAG4iAUAQBEEI4kcBYIaMrfDQOGTf651xfjsEwLhx+nH2tC6CIAjCs1gJgJCqJayOyfTGEm4nd0w8s1xh5yCMfCDAvrfv0mmuJ3USAARBEIQtBFWt3+8CwAzDVngEK1+n7XtLKgAkfQBIABAEQVQgIUXbkjcxKHrS6phyFQAQsJnP5RfX5U2ETclGx+17SyoAbp7YY/XMCgmAcF3dR+1pXQRBEIRnsawAFBIA6Ui924m8mIAJgvm+M7j5uZ3EixIAkkMAJAAIgiAqEKkKAAkATwZVAAiCIAhhSACQADhDafqYPa2LIAiC8CxWAiCoaJrVMZl0tM7tJE4CII8A+CMJAIIgCEKQoKI/RwKABIA9rYsgCILwLCQASABUVyePt6d1EQRBEJ7FSgCE1aRudUwmHat1O4mTAMgjAG5uIQFAEARBiBFUtWdJAJAAsKd1EQRBEJ6FBAAJgKra2o/b07oIgiAIzxJS9GcsEkPK6phMX2S820mcBEA+ASA3B4AEAEEQRAVCAsA/AmDfH6kCQBAEQQhiJQCCitZgdQwJAG+GrAAIKA2fsKd1EQRBEJ6FC4Cn0QKgN1rjdhInAZBHAEjOASABQBAEUYGQACABQAKAIAiiArESAAE11Wh1DAkAb8a+hRPXWz2zQgLg9Ejik/a0LoIgCMKzBFVtM14AxOJuJ3ESAHkEgOQcABIABEHYTiAw/Z/dvgbicJwQAC8+FmMP31rjeuIvJwGwYvYUtv6SaUgBQBWAcof6SMJ3BCL1nw0q2sKgor8WUrVZ1Mi9g5UACCl6k9UxogJgz5oo+/O1tay6VjfipccV15N/OQiANzrbmJ5IsXBcZ5dMbmb9l023tQIwZnzTv9rTughRRqnqB4OqPpv/7t7mfeUCWppJlD1VVS0fgIQPjXpYctkUjCWr3L4+wpgDsAkrAFhvRC2UYN/pibKlC2tYXUo77DMvv7jO9eRfDgLglrMmHXZdY+Mpdk1rC3v1ylYSAD6jo6PjPbDxFo8XD//9aTv5/9amquo/uX2NBIEmEE+N4W+X/VadTnamub4sHE/8h9vXWsnYIQDOPTuR93nDG+2mf6gkAArEi5e3MmV8Ku/1Jeob2BtzrUWA7CRAEgDuEFa0H/BE/+QIfWQf/y0G3L5WghCiKp76Lk/8jxRq1MOU7gEqebmHlQDgz6TZ6piRBMDf/5w/wULMnJlgmTQJAKuYP73F8t5d29ZSuALwJ7kKAI9P2dO6iHzwxP8ZGBLl9z0j3E+q+mJ4hm5fO0HkBXYU4416Ples7yAa9RElr1GjRh3j9nepJPh934gVAJl0RCmUYCHBT5uevwoAsequOAmAPLF1znQ2Jp7/7V+tTbGXLx9hCGDhBKkKAAkAZ1AU5f15h0QFg/et+6GPDdTXf9jt70IQBqe0tLwXEjdv2G9IJf7hjVzVNlDJyzlkBQBM8HvqTutEvmaxesRnak0aW35LDVUACgTM/p+sNxxxbX87e6LlMasumsq2/3o6CQAPYwyJKvpzpegjeewIq3oLzQ8gXCUcT57GG2O6RI36iJJXoEb7ktvf0e9YCgBVn5Dv72HS0uUX1/0m0aixqhqd9T9oPbO/44J647OidTq7cV6tsSrAzcRfDgIAYjeP+y+YwrREVgg0JBvYm3Pz/+3OK1tZXV2KRcbr7DdnN708dmzjh/I9t0ICYHSk/gR7W1nlwu/vyTzxP2xHH8l/o10BNfk/bn9HosKoiupf4w1wiXBDNUpX+hWhuPYj1PwAVdvH30Qvs+rUiOIxKi6CAiCopE7n/7Zu6N/N5kneKtFufVhhV19Wy157KuZ60i8nAWDGa3Nb2U0zJ7KHL5xi+Tc3tE8c/lt7PqwmdRBqQ58dCQBnAXtl/hv6PWZIlP8WF1Upyf/i/d6fQ+LzAzJcxN9yRk3qc25/Z8LnjBunH8cb9BxIzIjkv2x0TPvG0M/BlsP4375CS2LsQVQA8E7md1bPB8r9bid1PwqAkQLmDFTX5J8zEFL0R4eKABIAzgBzmKA8D30Won/rC8eTo4d+Du8jv89/m48jxMNu6JvBT8Ct7074FMu1qoVihLX+5oQY3nDfEv+haN3hWOp/nfzufsdKAEAnNvTvAoqmWD2XqdMS7N0e9xN7pQmAyyY3F/qtXDT0+RUSAGPHN37a2VbnTwIx/Wc8CfeI95EjrvU/OqykVP6ZAwgx8Tz01XCsk9+d8CmhWOJU/ja4AqFEX8e4/UHnA8sAebwr/MNR9cWja/Qv2PzVKwJjnbGAAOAczTusx6yeCUzuczuxV5IA6L10muGrYPE8dgx/EyQBYB9nKIkvQ/ke0X8dxCx9BkO1rEugthchLlbCcILd353wKdi1qpDA4e9lTUWCseT3CiWYPEp3D5S8aH5AcSAEQNa4ZFh7CNfo7/z2irp3dnV7a5zf7wLg7c5Wdve5k1lN/ZFjzPn2cSABUHpOTySONRIzYkiU/+1yWfMz01JdtE+Gv8v9Pa3yIMSQWatqVAhiiVNLcHoqeTmMlQDgYmyixd//ZbBz4W89Y5TEFzN91SdmeqOL3U7slSQA9t445bV9tzcohzzkB98O1+UrKRcSACD27W9pvuLo3JDoC+Jv5PrT0LeV4uQBJTmKn3sN4ty7oI2M0vV/KcX5CZ8Ck/N4R7LF7eRrlrzgLV+8kWsrQ7HUf5fyOioBft96MQIgFG38N/5v/4CKzfB/48n1tEw6knY7wftaAFw79Z39tzUtGH7vQYjxjv5WWKmR77mRACgNxuQ8RX8Cm3xLvQGa3LwsbWuuvyaIQwRiye9g1qqa5Xe7Z5xKlbxgKY2a/Lyd1+UnQtY+DqsDcf0/sZ/Hulrey9LRlkw6+orbid5XAmB+K9v3l+aH2J36cehnzIUx/36rrH438DvDfmalkZur5Lny+2AFCLcy64FwvOHbdl4XUQZI2vdKTcBjafVTmd5oDWP4pXzYiYhU8hKngAAYFFTw1o/93Exa+RgXAfMz6cg7bif8chcA+26auO3A/zWjxZho0iIBYI2qqu+DmfqY1UqyE/BYV9UHuHhOZTYH0Fa/4WjqK5iJiOacrdMjiU9iz0WUOZL2vatlluDBGyFP/G0sHXkDOl/+f/dleqKjRz7ycIosedH8AAtGEADZzqKINcaZnuqT+DNf6nbSL0cBsPe6KbsP3NE8CXvPsUmLBEB+8H4l2nbZ/ob3iWO4YN5i9JHp6KtGnynxsgRLEXm/t174mpGrtogyJxjTglb2rxbxEpjCDHcWE4HBmHBvpDdfJ2xMGlsfRe9udZra8hFwFQR3QfEfZmWXvCAhWP0bcolnP+8s4jLXYHRwvZFn3U7+ZSEArp367r5bm//EHuxAb4wVjOsxzDweHtvOUJo+lu+zCrUbPxOqSZ7E+4z7EP2LsUmPzIqkTG/sO5l05JG8fWQ6spr3kz/CfqZpRsTbwcuI3/bmUk1SJDwItkSU26Z3PiRc7LmMWeHp6D0jdcQ8Iew3ysQSJS/s2ttilymWI7k5FAtg6ZHV3wwuZUKsMeYd3lNS8wPS6vvgzYZ3bG+SAMgT82BL3wlrM4vxk/LAnrvUSYv/TSdMeKuU9eQghGSGRGECJvZcvI88XnSIDF6WMhsV9DnCdXUfhcod8mVpmewyRcKDSE4SOcK+VwS2ZtxxvMHOgcSO6ZD5D2EHTByTKXkFldRPMSUvWN5ox6xcL2Em9aGrKALxVKjQMeAlnhsvFu34pCc5ZfoiJ/A2ssCt+QFeFAD7bpr04sG7tJ9g76WZtPj1Hyxl0squGhjsM4y5IH413yqVfa8Iw4dEhftI82Vpw1h0lWG00vhV3kfei2gfKKMiwoPkxsybkWPmG0dKFPlgrOM9vFPXeMN+sZiOmTfw7kxvDD3PAH7A/HtOA2tNzHflYiCMPZeXgWceULTJ/Pu9lOf79sJ9GukzQnHtJ/xerkUIKukJl7zNfNeq/FkxAuD3U/fvW9TYgb13dict/lxvO+J4mAui6pfAMl3s9XoV/AvEiPa9lrASLJPlfeT27MsSfkjW2L3Vatlvge8q0m8QHsJwbFO0JxGduPRbMU/Yp/JGvaKUHbQxP2DDuC+gv7dEyQvK47wT+Cb2XF4F1uhbfVcQByKfYU64zCskrNuQtNHJ0AlQFSMArp6e2X9r8xK2aAp6YqXdSSu7I53lyoFtfhAAdtv3DoX3Z18ptVFWpjeyiqWr0VsBy0wAh/1CYO4Y9lyEwzhp35tZF/ksT/wLecedsaOT5p+9h/93DkvjZ55DyYt/r3uwP27YwhN7Lq8Bkx0t91VQtJcxczpkdn/k57g/ENO+hb3uzFbl/fyZz+Id29u+FgAwzv/Hic/u+1vD17H3yKGkdXShXei4+KjDXreXkJnzAm1a5iUB+i7WG5nN+8h99vSRRt+7iIsL9DJd2SXggRrtS9hzETZj2Pcq+i+gRCfeqPVHq+Kp72LP5WRHnRMCz8PwAmP4pTXGMh5V2yyudPVXQ0pySpmUvCzvB/9h32Qh+NaCOMKeKFiTPNGpNcaZTcpn7BSWbgqAvddPeh3se7H3xMmkBVU0fvzfLT5z5VHW7c7rS20ds+8t1ZCocB/ZG90t+7IEJnD8uz6EaFfG5PBAfT164jZhA/i1qvL2vU6Xaoc18pWZnhja6le25CUzF8IJoPxqbKOs6MuOsniGYAADY/NDEvJ2GC+WGbccCowhYrY75X/7GlyrzHKyTE/k+7ytPeELAXDttLz2vQIYe2OAn4XdSWs4xnixqq8b+tmFfED4v//BqxvPyNr3Ss1rSVf/gLfbJ13pI4t/WXoW8dt+RXYuBFEC+EM42Sn73kJrVZ1t4NmSF1e6aKtfmZIXJNmAgi/V2kR2oyRjLb55jVqt1R/DfvCmgU8pd0yUmXzGO9RNMhMuoSNjvRGVi7+tZSkAirDvhb0WCpXiS5m0rBhivvUCv5bbrf4OhnwGf1e564CqZKmuQxaJrcaN1Q6wIgZ7LicqV8L9ZG/0qUxfNXrppmkgxZ/hm+J9pNYtYxBHSALj1PwH9ntkIvubjD8+Zq2qsw08sgvG1tgWfGcHwimEKHllJxRqv3az5GVM+lL11UdcGxcDVh0+lI3t3OZVZvmZ7PLSzNrEsdmx1MjechEAhn3vnfjNqaSSls1v3iAgC31+vomnsKNnQNHrj3JhaEDKvhf2SpDYTMzpIVHhPpILERAkYMGO/U4SbRBCyg+BEERu2Y+2JhTX0E5SsmtVXVC6Wx0rean6q26VvPgzv6PAtZ3r9PUMBQxo+DUsEe4ocmOIMMEQe65Mz7jPGZ2ahwXA3j9M2X3g9sYp2O8m8/Ylm7RKCVR2CjzrjTAE5+T14EvZ2eExGadTN4dExftI+Zclfl9O4c/wMYTA31PqiiNxVNbfGTP26vZaVRca+YMsPe5k7HeV7HRXy4iqYhhmyjJMmBhvOa6Pu2a3ktafcaSN9sR+zMXfWk8JgGumvbv/1qY7wO1Q5t45lbRKCTy7UIG9JIKxZJVT15J1QtSWIpJVsfa9D7vd7+H6yOzLksStzTP0WB7ts+wB+15+QxcjOtUD/EFdJfV21Rv9CoPxdQ80VqkGno68a4zBrR+DXtJoTJpT9T+GUFt96n+T2SVPFniuFs/85YCSHOXUdRRicMIlagxR0lGtiJnWJRUARdv3OpO07ABKvlarbGD/DSeuIev9gXdCBFGNPZeXd7gUFwKRBzM9EfS+KObkY/CMQeSjlW5XqMoSGG/mjfpynIezthQ6FOy57F6r6kIDf9v4PpsDaFMjMFDCzBY2rHYV7WIYb8eeaxhHB5VkDXgXWC1BzI65w6z6wR/XXpibILNXg93AunOZNcYynfKg/TSi/ZZKAOy9cdLOg3c2jcFes5NJy25M0WcsoT3UF70Ly8usjoE5TLztzihmsyHJDW828AQWwJ4LhkTBfQ926XO7fytJH1nEy1JufxFhr5lQbmKlzBy0SgS9VlV2FycYN3dyraoLjXwzzCCXeQZOlryyro36o0MS+0Srv4VO08vJYDjgM8Hv4yMIQbVfdo0xpoJVtAD4/ZT9+29rmo29RieTltOYLpwQhfbxAAAgAElEQVQgTMGHwurvYBMpM3nAREGZJclYJ0QQzrKWtpne2M944u9xuz+zpY8s8mUJ4zabs5Eu6SoVXwGlkhBM6hF9IzDKrNpZUmusXVyr6oIQWJ7ZMA5tiAJv9fB2P3RDnZGfifYk/DBEPh8SuDGMMExJw94NVgkQnjWsacZ+F7fBelXw2CHrW8CMOSyFO2xpAfAbefte2GMhNGxdvV1Jy03AKS5kPSfl6LxJgwtgkd+NxIZV0g6f5T4kiuwjpV+W8OZK2lZZHxpfAiUVnsj/PDwRWHcMhsva9VL2vR5aq+poA++NHjR2n9usoDsCKF3xDupW0ecTyi3LGmkJHv+7GwuIu19ir9PrGG6VYGCEWJrF3xi6AmoS7XfOHhx1TK5k+0pJBEAx9r0OJi2vA8NcBb73qqMskoKTToiHlpz6Y0gUKQSkX5bQzye7FBs9cds3SK1VVbSVMvuwD65VTUffcruRuSwEXoP7IDNTW7bkZWWIAvs2DHXrG/ac9zo5wdBJZNcYy2xFOzhpiwtAWQGw94bJr++/Az/EBpOmsJ0iTJyT2UehHID+rtAqEVjplOew7HCcog8g+kjzDRPFoSHRyAtu91Mu95HSL0vYvSqK2YumrAkomsIb6hZEB7gttwmHpH1v5Dm3G5aXgt+Pjbyho61+je121VQjsuS1xWqOBgwxWBxzgL8tJ7DXV04Y9qwIpzvT1VDGyZKtj36NC4El5vMXEgA5+16eGLDzOhxLWuVEKJY41Wp1CBdKdw3/eyedEHO20xUxJCrcRxbxspQzLhMe7ipmN9qyIrvsR78P8UYgbayQ6ak+iSu5+9xuSF4O3sCXZXpjaGc6mZIX//sV0AkO/RxIZvzfdgx75lJueWUKOlkWs5cFg/kBvdG+ggIA7HtvaXkysxz/VoI1TrHDvtfLmHbcoaGrH2Dpck3yRPNvRkfqT5Cx75VyOq3QIVFkH7kx0xdB23jLbCkuO6G9LMiWPhHLohT9tqLKnmW8VtXRBt4bOQD3iz2ropfTGROeFO1O4WfKVfHwz+DPuSknELq8sp7faSTL5U/BvvXYc8GSrisuqc3rrDipMXVQxr7XyaTlB0I1yZPM7bpBEBz2b6q+rRhRLQINiUr0k5IvS4NLXo2qpthzLWZ5qGeBMV2xjk1bG47pP8Z+/kgTnyhGauDRVw37Y4afeQ7jl8aGNyOKOm398GNhpnswrsfINeuwCXOoCZchpBNidnfIvJ+3GvM5MsZHIQ/Y93oF2HEQqgJD/zcRq3NYdlvcjqY0JCrVR5ovS2vGoY3msqJPf0DkN+LLoQBRAQD+2ditaP28VtX5Rh7t452EsDOdObtdyCErjwAgjgQqIcY+FqJJFVlKL4UAQFsf55Y2ktArjJAAkNiXg4ZES9lHRnYiX5ZQywV9WQEwlpOJdxbGWDCopkKfmUkrX2YVslbV+UYeXczWRwua7WSTgLZFPFGRABBlyFa0LyLur9BkumIEwGil8ashic2P3NxNspxAbTPNn9dIW9HSkKitfWQfv68FTaqMyb4Id9WQXysAWAFQqPOo5LWqzjbwyH6j89gcOOz+g80pb9QPSzxPEgBIYKKkMT/AYjMkC/H8QDjeYOl3LiMATKc7jD03j8UwT8SeO+NPMC6JQ+/z8PlSNCTqZD8ZXZzpqT6sneeW+2KG80gAFIhc+XDUMbRW1YUGno7ugM5k0qTEJyU87ocmph6322G5AhtjyawxPj2S+OTwz8IIAJnZzDCMF4xpQWfujL+QFACDK6ZAMNKQqAt9ZG5+QNfdVR9H+9tUggCACU5FCAAjJk5O7kovVV1/2JUWB3uya8ej9ZpU4icBUDqyEy4RPvCq9jrM0RjaqYgKAJiMG0La98K5fDmG6RAooZUnajRtz/JbakC0u95vVFqsuDPOUhOSRfWREL5cFltQACja3aJLiMJxnV1xST179cmY6w+8EmLVXXHWMjmJacDQgVmNEafdbod+QGZTHVilYa4xHkkAYO17zWqDH+17ncZyzoei/QOzL8c5ZyXYs/fTy5IT8dwDCjv37ATmRWhPbh+UvP9u5Z5a1hQSADB+BTunHbYr3AgRqdPYn6+tZfvXud8A/BjbH1HYr2bXiSf+3HwN2J43oGiTSQDYDywh4/f9mhBmW11Fuzd3TL6OqY8/w0ud8Jwn8hOyqACAeyrYZ2PGleFl6cpL69jrKxXX+xM/xltdMfb7K2vZmBrB30o2Fo9REl80rNUt/saXFYDspj/WAiD3Z+itaPWmJIOSl9uNwS+xZ03UEFbjajWMoj3MvY8EgLMYM/MhsYt3QsVHBdj3uoFVBQAEgPk3kDwMEyDBZ6UmNXbbdePZgXVUNS1FvNMTZUsX1rDxOqqP7AvHk6OHPkOrv/VlBUBQABiYzmiYktessxNGKcbtxlGuAWOGIKTqUuLlfivrSv7sJpEAcB4wluGJudfOxE/7mtuLiAAAZJaJTpiUZCvvjLve15RzrL0nzqZMEy/389/jznyeDbA8kARALqAkYnXMrLMSG6GUJXKzD5W8SOliYtM/VDZzhnijjo1PsTMbG2+1mq1qKQB4crK3lRGD7nyq9kaJk39F2/c6hVVCt/KIh1n/F5yX+D9Mxe78WQk28BC9LGFi+6Mx1JDomHiKzWlveK2qtvbj+Z5bxQkAY/tXpAAAMr3Ra9bfq7KpCNUVz5W8Dq53v+F4OWAiJQgmYYHF49dTmtkLl7ey3XNbI1bPjASA+5gbz8gu2RwasE9DMK7/0O3vVAlYucUV2iSG95FNMGdn9gX1ws90bI1ujF/v6qaXpUKxd212SLS6Vvz3cu6EJrbpl9PY/oUtlv1dIQEAFXB7WpeLFBIA4WiDpeMcCAB4EIdK1OJKF2avr7yLSl7DYz9v1CCQYvXijbq1oYmtvWTa4HaxhQQAT/QTSQB4AzBt4vf+Icnkb/hvYCxnieKwtovV4lbHZHpjjeZve81ilU2eKj6MV6NrxhLfd3vc75e8FJBvHl1UY8wxE72XTclGdv8FUwb7yEICALZ7JgGAEABmvM0V643zatnY8eIdGSjjHY9RyQsC1qo2tIiLqER9A1ty3mS2u7Pt0F7xIACuaotaPTMrAQATYexpXcRIgG1zUNWeFXruZN/rGsUKAAjTtwMm/4n+zqe3Jlh6CS0bhNi8TGFnzhSvOEdrUuzmmRPZG8P6SBIAQwBrxFIIADO2PaywjvPxJa/dq91vYG4ErAmGtcGi96uaN+rr2ieynVe2HtaoSQCUL2DQM5JLmcgeHIR98Gewo1gBYMZbq7LL1KpqcC9LLz1emS9LO1co7Oo5iCHReHZIdMfl+ftIWQFweiJxrD2ty0UKCYBCfuGZ3shvCj00KHlNRBjVJBo1YwlHpThlmWtVMZ3AhRObWf9l0/M2ahEBYJjUkADwLDmf8gWHmW9J7MJJlB4rARBUkjVWx2TSkYZCfcAzy1V2NkL8g8cKVFlhSbDb/ZcTAXPFoGISS4hXTFobGtnai6cW7CMLCQDeR55CAqAEAsB4gLmSl4J5gG0J1nuff0teMmtVp6QaWddFhRv1oACY1xqzemaWAkDVNtjTuggZQrHEqcYbv6q3grug29dD2CMAzDCG/yaIvyxpTRrzu60w3JPGFvF7Ul+fYnefOxlegEbsI0kADGF0pP4EuwSAGTtXxNAlHFja8fIT/poJi50IFK9NsdvOmcR2dY7cqEUEQFDVJ5AAIAg8QUXbbpcAgNi3NoaeAJz1WPHXyxIMIV94HmIIOZ5i17S2WA6JYgWA4XxrcS5Y2mlP63KRQgLgDCXxZavjMALAjKeXqewsxCQOv9gKy6xV7Zw2gb10ReFyPwkAgnAGKwEQVvTxVsewdDSF7StewS4B9onHCkwix9r3wpDolhGGREkAjIC8AIheLfOgB5dxNIuXwMvVVthcq4oxAzHXqmIb9aAA6GxXrJ6ZlQCAcWZ7WhdB+AOnBIAZWI8VtUw9Vswh0VrEMvIJWgN7okNsSJQEwAjwL/YpJwWAGVDyQhs5lImtsOmNUN8g3qiHr1W1RQAoWjMJAILAE1T057ECIJOO6aXoRzAeK+VkK7zOEDn4IdG3O8XL/VgBkPPnyHv+sWMbP2RP63KRQgIgHE19xeq4YgWAGS8/qRglLNFGYJa83vBoyWvTMpXNlFir+ubc4hL/YMxrs3QmIwFAEHJYCYCQqtVaHVOsADBjl4THipdthbF9vjkk+qLFsj4SAEUgLQDS0fmuqsFk1inrHY84ZcFaVezYXaG1qs4KAH2TPa2LIPyBmwLAjOcfUViHhK2wVzxWZOx7ZzU3sY1FDImSABiBMeOb/tULAgDCLHlhxoPAVniVi7bCdq1VtUMA8ETfRAKAIPDw38k2tADoi2h29DmwmmjSFPGXpfEu2wrLzPtqTDaUZEgUKwD4uU+2uiZfOnCeHkl80uoLB2uSJ1odZ4cAMANMcn57OW5G6CW/qGcvOGwr/OhtuPW7yUQD+ztv1MPte0sandMtncmsBABsH2xP6yIwhJTkFNjZb3gEFG2y29dW6VgJgKCSqrM6xi4BYLx4yNoKL3V22WCp7HtJANiEFwWAGbAm9BcYW+HxzpS8tvLr+vm54o1aZq0qCYDKI6hoN+VtQ4p2g9vXVunwZ7DVSwLADKytsOmxYretsIz3yyWTm9nWOfhlfSQAiqCQABitNH7V6rhMOjLPKRUJrlBNCFcou2yF7bLvdUoABNRUIwkA70ICwLtYCYCAotdbHZPpjSad6iMNW+Ez3fdYkXF/nd7QxNZcVNpxflkBEI43fNvqOk9TWz5iT+tykXIQALINq60tyfpKYCssY9/bojWyJzvsGcMaISydyUgAeBsSAN7F6wIAwhxrT0nYCpfi/NgXtfr6BmH7XhIANhFQGj5RDgLADKdthdfeE2dTEIYcMva9bguAkKI/bU/rIjCQAPAuQUUf8LoAMEPGY6UYW2H0UG1uSPRVJ4ZESQAUppAAqIrqX7M6zi0BYAZ6ckmdjip5OWnf65QA4AmmgQSAdyEB4F2sBEBI1RJWx2R6Ywk3+0jTVli0D8PaCjtp3+uUAAjEtG9ZXfu4cfpx9rQuF6mqrf245QMrsP94Jh29ys3GDWEsG/xL3BjzF22AUKJ68nbrZYN7VsfYjfNx9r3nG/a9rif+bMxttXQm49eashAAz9jTuggM8Hxy2wEPD83ta6t0ylEAmIG1FY6PYCsss1wb7Hsf/4UrQ6IkAApRSAAUrgC4LwDMkDGYOO+cerZlSMnLTftepwRAgQoACQCCKEBQ1frLVQAM7d8wtsLgsbJymMcK1rBNLZF9LwkAmyjnCsDw2PGYwi6+UHwsCkpXv7uylnXfrbL2NnGFHBufYn85a1Lp7HsdEgBUASAIOUKKtsXit5O0OiaTjtS73ScOD1jJ9Dtk2R76VKgiXPoL3JDo1dNb2MtXeCfxiwiAoJL6ptV3CtfVfdSe1uUi0gKgN9rpdmO2CuzEPdGwzb63tGHpTEYCgCDksKwAlJkAMAMm7nUgJu5h4pymJrbhUueW9ZEAKILq6uTxfhMAEDLbTBYKp9eqOikAeOf2rD2tiyD8gVwFIFrndj84UoCt8MTJ4iX9QqHVN7Al5012u/8jAYChkAAIKA1ftzrO6wLADNO8B1PyGhr19SlX1qpKx9xWS2eysJrUSQAQBB4rAVBogmY5CAAIGY+VoREZr9tu3+uUAAjHE/9h9T3PUJo+Zk/rchH4UlZfeHRM+4bVcZneyFy3Gy4mnntAYeeeLT4sUB3X2Q3tE9lrcz1d7kcJAOis8ndi+nP2tC4Cw+ga/QthVT9leISijf/m9rVVOn4WAGZ42b6XBIBNVIoAMAPcqhpHcKvywlpVOwSAZQWABIAnIB8A7wK/kbxJkP+mrI7JpGO1bvd3MvH0MpWdNYLHyrSGRrbarh1NSQA4RyEBADfD6rhyFQAQYAZkZVkJpSy3G2hR0dlu6UxGFQBvQwLAu8AwWaUIAAhYNniJxYqqX7Q027ujqYsCAF56LavC1cnj7WldLlJpFQAzrIwxbj/H+5NYSAD4ExIA3qWSKgBmzLss/7K/K6ZOcL+fIwFQGmBmY6VVACpVAMCMZYsEs8We1kVgIAHgXawqADxSVsdk+iLj3e7nSADgBABMfCcBICYArnS7gZIAyBPzWi2dyUgAeBsSAN6FBAAJAPDMsaVxuQkJABIAJAC8AQkA70ICgASALwUA+BtbfWEwRbA6jgSAR6OQAFC1RN7nrGr9tjQuAsXpicSxIMiHR1VVywfcvrZKB9wy8/eRWoPVMZneaI3b/RwJAJwAAPM7EgAiAiAdvcLtBkoCIE90Trd0JiMBQBBykAAgARBQGj5hT+tyERIAJABIABBEYUgAkADwpQA4TW35iOUXjmnfsjqOBIBHo4AACCh6ff5OTB+wp3URhD/gAuDpvH2kmmq0OibTG4u73c+RAMAJgKqo/jUSACQAyjksrUlJABCEHCQASACcHkl80p7W5SKFBEA43vBtq+My6cjlbjdQEgAkAAjCCYKqtjlvP6noTVbHkADwZpAAGEKgvv7DJAB8JAA6Wy2dyYJKqi5/J6Zttad1ETKoqvq+sKKNPaWl5b1uXwuRRUYAsN6I6nY/RwIAJwBGK41fJQFAAqB8gwRAWROOJ0/jz6PXqMzwpBNWUqrb10SQACABoLMx45v+1Z7W5SKFBACPk62OIwHg0SABUJYEa5InBhXtnvy/Q215oRU5hP3wRL8p//CZ1mx1DO8jFbf7ORIAJAAKMnZs44ckBcCv3W6gJACOjL1XtaWsnhlPJLUWz3mbLY2LGBFYhhtU9Dn82ewr8DuEOMiTzQJfzkQuA0gAVIYAACFOAoAEQNkGCYDyoKOj4z2wOyOPF0dI/MMSjv4af46zYJ6A29+hkiABQAKAx6fsaV0uUkgABGLJ71gdRwLAm0ECwPuEYolTg6q+ApP4jwhF2xiIp0Juf5dKAe53XgGg6hOsjsn0RGNu93MkAEgAFGSUqn5QRgDwBjLH7QZKAiCPAJjbaulMFlb08RZvlc/b07qIoQQi9Z/lb4wL+T3PFJX8D392y2APc7e/m98hAVAZAiAcTX2FBAAJgLINEgDeAzbz4Yn/In6f94gndm07QgTsD6naleDp4fZ39SskAEgAjI7Un2BP63KRQgKgKp76rtVxJAC8GSQAvEUgnhoD2y0jkvnzMDeAH3o0HFtgG9p8yehVfmybqqr/5Pb39hv8OWzId8/Dqt5idUympzrqdj9HAoAEQEFgC1ISAD4SAFe1WVqTBpVkjdXbpj2tq3KB6hlPGo8gEv8eWA0Agnzo58BkP0jqIUV/E/FZfeF4crRb392PkACoDAFwhpL4MgmAQ437FKvjMr2Ry9xuoCQASAB4jerq5PH8fs7nSfgd0YTNY/HoGv0LhT537PjGT8MyQB7vYj43HG34d4e+uq+xEgAhRZtodQwJAG+GrACA36A9rctFSACQACABUDxg22u8qavaG4gEvTocS/0v5jzwm+RJ5zFENWA/CBIw/LLru1cCUFVBC4C+SMTtfo4EAAmAgsAEJRIAPhIA81otrUl5copbPOsd9rSuysCw71X1tHBSLn6s/miwCOZvpf0IsbEDytU0P0AOEgCVIQACNdqXSACYHVUs+T2r40gAeDNIADhHbsLQYuEkrGgH4G3carY+/7fr+d8dPCIU7bp8f5/97WqzQor+tnhFQOvGVh0IawHAxdwkq2NIAHgzZAVAWNE+Y0/rcpEiBMCv3G6gJACOjF2d7ZbOZCQASgNM1OMd/2wB+94hiXfk9fr8b262OP7GQsdJ+guMOO+AOIS5QRNGAPB+ptrtfo4EAAmAgiiK8n4SAJUhAKBsbPFW+II9rctfyNj3wi5y/HdUJfL5sgLAhHdQP+CJ6kmEKDFWHoAbaHF3xv+QAKgMAQCTZkkA5CIQT33f6rhMOnKh2w2UBMDhsbuz7Z3dV7WNtXpmJADkwSZXKMtDlSAQmP7PoucoVgDkODonUl4QFwLadpgfAAJH4tZUBFYCIKBok62OyfRER7vdz5EAyCMA/jrhAatnVkgAQKXNntblIrICgLGO92T6IlqmN/qi2w2VBABP/le1PbTrqjbLzZsA3lkpJABwgOrHlNdhmR78vczOYeHkxEX5PnNMasod2M+C1T3GMIWi7RUXLdrKUCz139hzVQIhi0mehQQAkOmN/SyTjva43d+RAODx26kH9i9q7Cz0vMYoiS9WlAAYpev/IiMATFha/SDrjczmjXyf2w22IgVAZ9s2/l+NsaOOHulZFRAAL5amNfmHrDDGTrDTnwrE9f/Enqula/sHZnQPzB4/uzOvd8D4i+e92949MH9W17Noq19Y1hRUtbzCwiIyxt9HG/8Ney4/IysAAPbgqGNYOtrC+8hX3O73KlEA7L66NbPvL80PZZaMvBSWBMCQgLKn6OdkeqNf4Y1mkduNtlIEwO7Ott38rX92Zu6M94s+IxIAYhgWvIr+HCLxD9r3Ys/FE/uY9q6Bfi4A2NR/dLGW2x88IuB/h3+f0d3/Kv/bNnURQy/lC8W1n/BrXSf8nVRtN1QQQAhhz+VH+DPuyV81SU4R/YxMWvkYFwHzeV950O3+ryIEwLw2tu+PE5/df3viP0SfUSEBcEZN6nNyrcfDwBilZUcQS5yK/TzecE4rh5JXuQoAnvgz/K1/0Z4rpqDf0KyMgHi8hP0sP8Lvw8m8o38Ykfjz2veK0L6q/7vt3f2PZhM7MroG+tq6tqKtfs1JjPC8ERWBbbLixk9YCQAukqZiP4utj36Ni4ClbveBfhYAe2+Y/Ob+OxuT2GdTyAioSk1+Hvt5nqegAJAcE2RdLe/1esmrLAVAZ1vXnnmt/yP3jLVZ/K3uLRIAR3KG0vQxO+x78zH1qeePh3I+f5t/Ryr5Dwn+OYvbVw6grX7HjdOPA+GS3UVQtCKgr5AZ3vALvC9cbyECB0BYHyUhkDI90TGZ3sizbveFvhIA1057Z/9tTQsYOwo7ofVo3kfW8ue8lQRAns5OZkxwsOSVjrzjdmMubwHQumN3Z2sLk5ilnd2NTn9mhOdbkQIA7Hth9jvvxF8Rf+vX1oTi2o+w52rp6novlO950n6j2MR/mAjoGtgPgmL6is1oq99gTfLEEMLIyJzgGPLjvugjYCUAhggBqfkfLK2+L9MbbeN95Jtu94llLQDmt7J9f53wWGZJwyewzwA2vRPZuKuSBUB2TFCy3JnpqT6JK9373G7Q5SYAdl/Vun9PZ+v8zPzp6M59tNL4Vf59lgh27hUnAAIx/WeW47r5QtF2ytr3tq8eOI0n6t5SJv48sYMLgZYOxtAiEWtlzAXlLpgfAPOHsOcqV0YSAMUKpExf5ATeRy7gQuBdt/vGchMA+26euOPAnfhKdVVt7ccxlT9fCoBRo0YdA5OYhN8CDP9xLS5zLi+VvDwvADrbFu/tbEeXd6GczTura0JZG1nRDv1WmedZjoB9L2pWfNa+dwF0FthzzVz7/Ik8Md9jc+IfPizQNbNrAD1MJFcNgfK3MT/A9/DveY9wmzE2hNLOgq2csefJrI99j/eRj7ndP5aDANh73ZTdB25vFJ6EaQIvvbztnoPbYlvrtrLwLnvADhgUPUxqEhcCcmOCh0pe0bdIABwZu69q27Br7vQA9r6CkIMOnCeslxHJbWMgngphz1WODK6LR9j38r9dHo6LzyA2aVuz5Tj+xj8HyvOY5D3h1vtYcv7NR8SEv96HnCTYn+FCYNGZ3c+hh+1k5kPwv30gHG/4NvZc5YSMCyRPME+D+Rb2XLCkl/VGVC4EBkgA5Ilrp76779bmP8FcM+y9hWqX5cZO+fNcsRt3lQ9YT/FiTE8yG8Z+2s2Sl/cEQOvO3Z2tbayj4xjsvQwqqZ+KlCiHdNivwaRAmTeUMgTvjKdqm2U6bii/z1g9oPHE/5LM2/v4i+blvZ7aS+ZLVgT6d4MQmZJ+CT1sF6pJnsTv2VLEG5LRF5weSXwSe65yQmYfCBCS/Df6Tey5WFfVB7IeK5G9JADassv6/jRhbWYx3pLXGBJVtHsRL0cFN+7yNQElOcqY7CSudNG2pya5ktfjlSoAdl/VepD/d8FbV85El5ixJi9mJx1Q8BNlyhEwsuJi5wlEO94l245nrN46akbXwJpiyvelFwCDFYFtIEz4qyV6prrgJNKh4ul1EJcy97CcQA8lqfpBGEqS+e1lesZ9jouAhZl0NFOpAmDfTZNePHiX9hP0c6qr+yh6xYuiL+PP6evYc/kK2Y1PyqXk5QUBsLuzbfnbc2eg3wxkbF6hTBuIad/CnqscgX27kbvjZWQnb01ft+2zPPEvhLJ7seP3tgmAwfkB/U/N6NqCHraD+QFQBkWNmUr2BeWG7GRSGLLDnov1xH6c6Y2urSgB8Pup+/fd3nAh9l4Nel6ghkT1TTzC2HP5GnPNsBNjp06WvNwUAPyt/+k989pkOkd0ORvWtVbKRC3TvreA30G++7NS3r63fxZP/G+XIjk7IQDM+QEgWM56agta7IyO1J8Ab7HI+QHLZPqCcsKcf4OaQKlqG4IxLYg915A9WF7ytQD4zbTM/lub7mA34VeaGEOiGNfLyhoSlUO25CUze9oseflNAPDEv8uw752PL4/KlrMrZamW0/a9PIluKVlSdlIAmNWArv5d/L+zOx7cgm4fouumh/cFfh96kjWUgj3osedia8Ydx/uxOXbuweKKAJjXyvb/aWLfvvv0r2HvCdxHmSFRv89bKSn4NcPeLHk5KQB44n+XJ/6Fuy6fgn7rwu5GF8pt5uJL3+o8ZCer6fchEr9h3zt2bOOHsOeauXLLd/hb/yOlTsZm6NfewpSzZh8Rqd/9xZbz5YTA0zO7BqRK9dn5AdoWzJuWbF9QTmAnUJoTzgL1I29WM5xMX/WJvI9c7AcBsPeGSa/tu6Mpir0HNCTqMAYWFcMAACAASURBVFJrhlVtA38rRS9vs6vk5ZwAaH1q99zp6BKzbDm7UrZzlX3bgs0+sOcqpX2vV4N/vwdau7ehO0SZXRMrZfmpUZVStWcR7XMH9KsdEo6fzNiDJZIuSwHwu5G36bWAhkTdRLYTDkcb0AY3gyWv3sj+8hAArc/vEdymdzj4cra2XbbjKDekxlsVvS8cT6I3z7HLvter0d7V/y7MDzhz7TPokqhEpaoiZlvDuDJ+AqXeFVCTaDMnWBcPHissHXmjLATA1dOZ6Da9w6EhUQ8hUYbdX1TJKx29x6sCwNimt7N1DrtmCnrtdSCW/I7MbnQy5exyBOt3UKx974yu/rTbSdmV6Bp4HSY4dqTT6ElR+I65MtZbH5pAqb0reG+MoTypPVj6qo8vxR4sdgoAY5ve2/AleKkVPvw++tLG12uUU8nLFgEA9r1XtX0B+12qq5PHO1XOLkewfgehIiagtq7e9hXYZc/1JOyBaO/q3zSzq79K4pEdDUsAwSpYWMxWiONaMJb8Hhc9j4nfF203vLnCUAv2XJne2Hd4H/mwlwTA3j9M3rX/9lQz9rtIDYmq+qpKGRL1DGbJC/OgoOQVjOs/xJ6rmJJXaQVAa/eezvb/xV7/4Ppqwztc8F5J7kZXjshM7pFdggpueTzpzeZvv/vcTryei67+Ze1rBr7hxPOTHa4pM9ACicc22VUrxh4s6chzrgoA+W16aUi0HMmVajxb8iqJAOhse9Ww712Ef2uRXU3h9zckExn7XugosOcx7Xt5onvR/US7hbWvOjLgf3f92roHDnAhsGBm13Z0VQXm/PDnczsi2cGY7W2wRwn2XOWEuQcLSiCp+opQLHEq9lyZrcr7ef84C7MHS0kEAGzTe0vLk5nleLt4iSFRY2i5UoZEywIoefEf/+OIjtyRklcxAmB3Z9sB2Kb3tTmz0OOWsAc7amex3BgpGDJhz1XOgOARTBTy9r2rtv5gRnf/Cg8kVyOc9AGQjfbu/p0wMVJdxPCiN6b/mLfltaJtv1KWssL3dHQPFkFb4WIFANj3Hri7AT2ZUXZIVGZyOeEMnit5yQqA3Ve1Ltt3VdtJ2GsyHRWxntSjYxq69OoHRAQADB2FJOx7Z6zZ+plS2fdWmgAYjK6BvhndW9HLeqGCBdtPkwA4EqxAKmoPlp7I97kIeMIOAbD3D7BNb/NU7DXJDYlWxJCRP5ApefF4iMfJ2HONVPLCCoDdna0bd81tRa9dHvSkVvWXED/sTcFYUmbylW8QrQBgRNKMJ7a+v9T2vRUrAHIBEybPWjUg5GSHdROtNAEAyPQXxe/BEt1aEgHwm+lZ+9403lKXhkQriCElL0GVV0TJa5PymXwlL2EB0Nn2Gv/vLNbRgW/USEVfKTupiSA8BJDtDEZcSmaXfW+lC4BcHACjpOkrNudd1iu3hW5lCgATmT1YZPddyKxNHJtvDxZhAZDbpnfPnZPRzwuGRPlnLkb+1qVW+BAew8kEObzkNZIAMO1735o/He1f7qTA8SsoATDYPo5cSmbY93b1P+yBJOlnAWDGDi4EWsz5ATI7ipIAOBx0gizhHiwiAmDvjZN2HryzCT351kmBQ3gYp0teWVvhyAuFBABP/ve/Pa8VbVIhO8QRjjd8G3suvyMjAIYIqu7I5HPC5Wbf6wMBYEZ3ovOGFv4Mn5R9hiQADsfJEnmmJ/oT3keuKygAYJveRY0d2M92sr8nyggnJ8lBySvRkMz7VtIxoflGict3dJJjJVCMADAjft6v2LQH1rudDIVj6v1r2KTFjx8R0+5f6/q1icb0h3q4kOlkoXiqqGdHAuBIzEly2UqocB8pNUkO9mCZ2pp4KN9n/mJ66nm2CO906uQkR6JMkVwmhy55WTZERZ+O+hwHnb0qCSsBgPCVMKKqbgLTfrOQtT/1jOvJ0c8B91e7+o8sXNcsnuQV/dGAok0mAYDDqT1Y+Dmut/gN3oS6XgeXORI+we6SV7ECwEmjo0rEsgKg6E3YsUOIsU2trPHm/wNXO9eTpd9iwt/+wcZNaBd+Fvz5PW9Wv8DUhgSAHPwenRzKrpISve+oPViKFQBOGh0RPsTOdaGyAkB2dy8Zq+NKxlIAxFLGfuHYJWVmKGfOZlOWrnQ9afohpix5isVmdmAS/xGbV5EAKB67rHKLEAA0JEqUDjucoWQEgJObHVU6IwkAE9gh0NgfASME4iljnHr6I32uJ9FyjNbHN7L6Ob/j97EBI77ybl4VVrQfkAAoHpk9WHisKvRiIiMAeH93CnpIlItCWCpqz50hfEMpvaExAiC73bG2FHteme2OiSyWcwDiemz435ozi8O1TcJVGYiq5ESmX/tn1r7yOdeTajlE+6rnWOMNt7Mx2hThezwl1cgWX3Z+v9VzJgFQWmSHJvNtl4sRABLbHRuikIZECTSlKHmJCACnJtsQR4IRACbTHl4/LTn/ZhauRUxE41E98UzWsmiZ6wnWy9Fy+4OsevI5wvc0Xptit50zie3qbGPPXPfLPqtnRgLAHngf+X2ZPVhG6fq/mJ8hIgCkhkQVrTugJtF7BBDEIMXuD11IAIwaNeoYEAw88b+C+AFt4MeivdGJ/MgIgPZV/c2QrKY/uF5qKZpy9sVsyt+7XE+2Xoqpy1ezmgsvF76HY/g975w2gb10xfRBs5hCAgASFQkA28CPxSva1txY/IgCQHZIlOx7iZIRiNR/ljfaW0KCS0zg7/gP4mbLCoKi3woTCcUTv/5qSElOoUZdWqwEQEDRFKtjTAFgxuR7nmDKjF+gREC4psEY3259YrPrydfNaFvxNMtWUxqF7925E5rYpl9OO8IjngSAu8AQKE/alyFd9x7gyf1Bi397mP8+7xf/XWn7hk/+JIiSYpS8FP0JTGdfZEhbbhIjUwoBYERXP2u+ZQlqmRpElTaZpRbcyo/f4noydjT4/YLlkmNTU4XvVVOykd1/wRTL3eGevp4EgBfAWpSXKBYHajShzaIIoliOznmPv2Bvo9aWB5XUN93+sn5GRgDMWN3fZJXYYKIfJPSq+hbUs45MO5dN/L9H3E/MDgRUTKLtPxe+N9GaFLt55kT25tzC+8IXEgCGkRYJAEcJxbWf8Pu7ztY+UtE2BmNa0O3vSlQgpycSx0p48gs0av1p8qR2BisBUOj+FxIAZrQ+1odfwhZPGePg5WQrjInpD6dRcybCcZ39ekoz23F5a8HEb8bm635FAsBjSG1TLhBBRX8NJgXCPCq3vyNR4cDSlpKUvBR9F3lSO4tdAsCMqf/oYuq5l6LaAdjcwri4X2yF4XvAMsiq+gnC96C1oZGtvXiqUOInAeB9wnV1H8XuwWIRxpBoQGlA755KELZSRMkrkxMQn3L7O1QaMgKgrXtLIzYJTrz9ARaZcjaqXfjBVhhr31tfn2JLzpvMdneKJ/5BAXC9tQAwjGNIALgOeg+Ww16QtPtpSJTwNIMlL0V7WaRRc0X8VCCu/6fb112pWO8GqMWtjpERAMab8KotWYMbXdzgBiJ2ZkfZ2QpD5UM5R7zyMTaeYte0trCdV4qV+0kAlDfGHiyK1iuW+GlIlCgzRip5Dd2oxO1rrWScFABmgMVtYu71qKVv5WIrLGPfe+HEZtZ/2XTpxG/Gpj9c1mv1zEgAeI8R92DJDYkONQ0iiLJitNL4VZ5k7h2S+PeQJ7V3kBEAM7q3NpTkLXlZN8r8BsKrtsIy9r0tWiN7ssN6WR9aAFxvLQCq4qnvkgDwJnn2YKEhUcJfhBVtLExeoc7GW1g6ASrJGqtjSiUAzJh4x0MsMlXc/haieuJMNuG25a4nfohi7HtLlfwhNpIAKGvgGYH7H0zYdPtaCIKoALwgAIyQMMaBAFthGG93I/GXwr6XBABBEAThCjICYGbXQMqupHrIGld8oyHTVrjtSWdshWXse2c1N7GNeex7nRIAsMMnCQCCIAhiEOtlgPp4q2PsFABmyGw0NLZhmjEOb5utsA32vSQACIIgCFfwqgAwA2xzY+0XooYFotPPY5PufrTk1yFj3/tGicf5SQAQBEEQJaHAKoBaq2PaVw3oTgkA880bvdFQzlYYKglFVSIeTrPaX/7GNvveUsaG6+dYCgB+bSeTACAIgiAGKQsBkItDlrriGw2ZtsJtK5/FnWtwUyN77XtJABAE4Vt4B5OC5X95QnP72ojyEgBmyGw0NK4xZyss8Pky9r13nzuZ7XYp8Q8KgBsuS1s+ZxIAngUs1PP2kap+odvXRhBFAeta83U6/H+/3u1rIwqtAkjVWR0zY/WA5qYAMGPK3/EbDSlnzmZTlj6V9/Om/qObqbOcte8tZfQVqACE4w3fJgHgTUKKPt2ij1zr9rURRFGQAPA25SwAzEBvNJSzFW59NGsrbNr3hmvEl/WBfe+WEtj3lnYI4NeWFQASAN6FBADhW0gAeBsrARBQ9HqrY7wmACCMMfvf/5WNSU4STuLwt3W//i3qmEl6I3tqtnvj/IWHAC63FACBmPYtEgDehAQA4VtIAHgbGQHQ3t2fdDvhW8XgRkPjERsNCYSas+99u9Mb5f68QwAkAMoSEgCEbyEB4G38JgDMkNloKG+VIGff+6ILy/pIAFQGJAAI3xJSklOCqrboyNAnuX1thH8FgBkyGw2Z4YR9bykjTQKgLOECIJC3j1T0K9y+NoIgfEyBZYAJq2NmdPcn3E7sqEBa+Gr1DWzJeZNdT+ilFABBJfVNEgAEQRDEIJYCQNGTVseUnQDIBWwWBPMDqsY35U2E1TUpdstZk9ibc91P5iQACIIgCFupJAFghv67v+ZNhFNTja4n8aIEwI1XFFgGmPgPEgAEQRDEIDICoL2rv97tJF5MgMUvCQASAARBEBUNCQA/CYDLe6yeGQkAgiAcJ6A0fCIcbfj34QH/u9vXRkgOAazaUud2EicBcGT0UAWgLAnU1384bx8Zqf+s29dGEEVBPgDextoK2HqzJhIA3oz0TVdaVgBGx7RvkADwJuQDQPgWEgDehgQACQASAO5CAoDwLSQAvI2MAGhbvbXW7SROAuDI6LmRBEA5QgKA8C0kALyNlQAIq0nd6hgSAN6MQgIgoDR8nQSANyEBQPgWEgDehgSAfwTAehIAZQkJAMK3kADwNtZWwHrK6pgZ3VvHu53ESQDkEwBzSQCUISQACN9CywC9DQkA/wiAngKTAEM1yZNIAHgTWgZIEIQrkAAgAUACgCAIogIpsAqgweqYmd0DNW4ncRIAJAAIgiCIIiAB4B8BsP4m6zkAVVH9ayQACIJwDVVV/8ntayAOhwQACQASAN6B+kjCd1TV1n6cJ5T5vLN5if+3jRq5d7ASAAE11Wh1THvXQNztJE4CIJ8A6CQBUKYoivL+kKrN4r/Hl4OKPmfs2MYPuX1NBFEUp7S0vBcSfkjR3xzW6awOxbUfuX19BAmAShEAo5XGr5IA8CaBeGoM/x1uGVaB2x5W9ZaOjo73uH19BIEmHE+exht1r1Wnk4vFY5TEF92+1kqGBICPBMDNneutnhkJAO8RiCW/E1S1Rwr2kYq2MhRL/bfb10oQQgRrkifyRnvvCIl/iNLV98PwAJW83KHAdsBNVsfM7BpQ3U7iJACOjHVUASgLqquTx0Ofx/u+dwT7yQwXCouq1OTn3b52gsjLuHH6cTB2BQldNPlTyct9SAD4RwCs/eNVlhUAQ5iTAHCVwSFRVXtDqo9Utd1BVZ89Stf/xe3vQhAGkLBh5zjeQF+SadR5YlUwrv/Q7e9VKZAAIAFAAsB+jCFRVU+XqI/cltut82i3vxdRwQSU5Cjwqy5Roz6i5BWKNv6b29/R7xRYBthsdUz76n7F7SROAiCPALiZBIDXCEdTX+H3eLENfSTEQzxOdvs7EhUGJGYjQYuWrmCsS9F+F4inQjyxdAs3cEXfxeMCWCLj9nf2KyQAKkMA5BIRCQCHOE1t+UhI1a7kv68DiIS+JKikTg+q+l2YvpX/VhecHkl80u3vTPicqqqWD8AYFG90ezAqNRxv+PaQjzkaylc8XkB8BpW8bIIEgH8EwJo/ziMB4DLmkCiPF4WTuKptDispdejncCHwU/5v6xAvS29D3xwITP9nt7474WNgrSpvqP2lStqnJxLHQoPlCWiv+A9FXxGI6//p8Ff3NZYCQNUnWB0zo7s/5nYSJwFAAsBrhBXtB/z39GSpkrbM/Kp8YoIgpKmKp7474lrVwxugMVNVtGwPS1t4I18o/PmK9m7u7z9l93evBEgAVIYAOENJfJkEgD3wxP+ZXJ+UwfRhY8Y3/avQ59fVfRS/wkpbHlRS37T7uxM+RWKtKsRi2Yl7obj2kxCu5LWLSl7FYyUAYEmm1TEkALwZq0kAOMoh+179bfEXGP0p2SpmbiInZkLhQZgfEFAaPlHq7074FJm1qjCxLxxL/W+x55ZaUqjoT1PJSx4ZAdC2ZsvJPJG+6HYiJwFwKF65Zta7D/7txousnhkJgNJiDIkq+nOIxP98qeYxYZcU8nO/BkJFVdX3leCrE35F0L73UMNS9Vft2NxHylRI0e4PxLRvlfI6KgEZAQCcufaFY3kynT2ja2Cf2wm9kgXA2/NmsO6b5629769/LZjEAzXal0gAFA+/XyfzfulhRPLdA33ZKFX9YCmvA17U4DfKP/sVRB+5EVZilfI6CB8ApSWeyO9BNKQDMDwAS11G/GxVvxYU6BGhaleLXFcIUfIyx9ZoSYw41kZA2kSR42d0b/1ye/fAIreTeiUKgE3X/2rn0tv+PE7kOZEAKI4zlKaPyQyJiux1AvNtLPrIR+y4Lv63ywJKw9dLc2eIssV80w6p2j67Gg9vnDdZJOvrRT+DSl72UawAMGnv6v/pjK7+dW4n90oQAM9fe+GBQuX+fJAAkEPmTZv3bWswu52GFH26xeesFf6MmuRJ/O+X2vESR/gMmbWqvJFu4hHGnov/EG4uVgAAciUvuWuuJKxXAWjnYz+rg7H3zFg9oLV3DbzkdpL3owB4ff5ZmRV/uuahJUv+9GHsswkrWoQEAI5ATP8Z7296EEl1p8yQaCkEwOA1Z5drPyssVmwaxiU8SiiWOBXW04s3EO11eJuWmW3PemI//mVH7Wv5Prfj/LrnMr1R9IoBs+TFP+OguCLXl42Oad/AnqsSsKwAZENqu+Zz1w98lIuAOTz2u53s/SAAds9rZ+tumvvs4lsX/gf2WQQi9Z8daYkaCYDDAc8EjNNp7m16QVVt7cex58r0VZ/4x9/U5hUZzZMSuzN9EfSKAah8GhO5Ff1N4e+g6qvB2h17LqJMsHut6lAyPeM+l0lHFrLeKOv8ZV3ez593WR3jAmA3/5s5LI2fIFMV1b8mU/KCYQ/sufzMCAKgqO2a21Y+91WecO9xO+GXswB4bsFFu5bfeqOlK6MVGNdOEgBZBs3JEEOisN4+HE+ghRlbM+446Psy6ei+u28cn789Tksw/u8Zoy9Nq2jfk9GR+hNAmGDnLYSjDf+OPRfhUaTWqkKFIJY4FXsu1lX1AdYbmc0b7F5I/iMJAPNvuBDYxpWuxhh+iQyUvPh3ewYhBKTKdH5lJAEwRBBKb9fcvnrgtBld/Wm3E385CYCXrjnvncduvW5BB0Pf76NhWSzGtZMEAN6eXNZxj/HnCX0d7/NeNPu/QgLgUB8Z2QV9K9uC3woYbeaWE/2B+nr0UBPhIbLJUduCUH9SnvuQuHnjVHni7zcbrBmblqns0UU1R8TmZQob/rf8R/GUTMlr0LsAUfLijbwvHE+Oxp7Lb/D7cAVqwxKwOpUQhy1dXe9t7xpom9E18DoJAOt4c/6ZbNXC3zy5fPlf0JW3YCz5Pd7RPy7+LLObbcHvB3suv8D7yO/z38ATmHsma0CW6Y2dyvvIFcP7ve2PxvL2kavvjufpIyMDICAkvysqHxQj+gkXCcSS30Hb90quVeWN8bu8UT42vKHKRjElLxiDk1mqU+klLwmHMentmmc8sfVj7d0D82d0979DAuDw2HjDr19ccscf/wd7TyVcOyt+u+2x4xs/jRkSNe6ZpAV5ZpPyGejToG8rWT/ZG3kg0xP59shnPxwYGpKoCHcF1CS6XRIOI2vfO7pG/wL2XGxj1cd5g57PG/Y7pWrUwxo4lbwcBpZbYmY9Y/d9GEpb95aTuAi4jwRAG9uy4KI9yxb9cTr2Hsq6dlZyZ24OifK2+5ZwH6loK6uU5H9hz5XZqryf94+zeF/2ti19ZDryriEs1kbQvifYOWEkGj2MTEfAY7WMfS/ranlvpjfaxhvem3Y06jxC4GkYXpC5LxJDIDug5FXJ8wOkllsWsV1ze/fAGC4Enq1EAfDq1edkHv/zb+9YtGgR2q8C7drJn2elz33B2/dq22XbdaYnOoa/IG1xpo+Mvm4Ijc0B9LAEdgikmGoxYQNok5wi1n3yxnYaT8i9TjTqvCWv9TG01a+M4qeSl+RyS8ntmjvS6fcZ8wO6B96sBAEA9r1rb57Xd+8dd5yIvVeyrp2VXN3KmuTo9yHEkmHfK7PyJdMb+w5Pxo+40kemI5slX5aMiaO8rWx1QvQTJUByraqU8xOsVeWN6143GvWwBu5kyQtCanjET8ByS34fliDemqS3a25f1X/CjK7+Be1d/e/6VQBsvv6ynff9v4XV2Hsjsz9GpVu+2mnfOxzeRx5v55Aosp9cntkwDr0V8OAySEXbi2hj0rsbEhJA6QW7VlXWCGdwrWpvZL9sY1x/r8qWLqw5IuB/l68GRF+DkhdL461+jZIXYqY0lbyy5OYH9IkLTvnZ0md2D5zS3t3/qJ8EANj3PvTX6zux90Jyh8yKdsAcNWrUMXj7XrlVQeaQKEtH3pDtz/ofVPL2kY/9vyNXASD6yIO8316Q2aygtwKGZaE5ES8qmqQnSBKCyNj3wlrVYCxZhT3XkLWqLxWrRkV8AOSVbnRTpqca/f2OMtdKK/oAooMo2Xae5YrUXJMitms25gd0DWwpZwHwxvwzmax9LzizGb7y4r/31yt9Dwyn7HsBBkOi6Ui62H5MxAegqJclECgPjjoG+/3CMf3HYEeMFf2jdPzEbaIAYUX7gbH+WvxBvC29VrWvehRvMGuLbXhOCIBDQiCyLNMbQ1c4ZEteMjOC/YTUahPJ7ZpburZ/YEZ3/6wZXf1vl5MA2H1V1r53yV9uRn9nEfvew9sk7YJ5hpL4MmpIVNUPStv39ka/wvudRaXqv+wUAEP6yI38utFbAUtWoKRFPzEER+1710U+W+q1qk4JgKzSjRyAkhcsT8R+dyp5yWH4TSD2Rjc73YDSgC5Lzliz9TMzugYWciGQ8boA2LLgYmn7XuwabR4PheMN6PXgfkFGxEvb96bVD2adTqP7Stl3OSEADntZSivoeSGSO8c+ICP6Kx4p+17JyRhD7Hv3lLqxOSkAhgiBnUbJi+FLelTykgO9A1kR2zXPWLX1B1wIPOFFAfDSNefL2vc65trpI9D2vbJvpvnse8tVAAy+LKWj89mzKnpCOHbyOVWnkODXqsqPTWfXqh5p31vOAuBQI4/28e8WwN4Tua2Sta25Z1CxSO1ApmgbpSarMXa0se1w98ALXhAApn3vw3/60wnYr+Kka6dfcNS+N139A54sn7Szr3JaAAz2kenoq9IvS3jTsIqfn1IQfpNOxpRTzbWq0va9Dq1V/fO1tay1LXFE/OV3tbafOycEFmd6qr+EvUeSqy0eqORyLJCzWF0Ayh9x36RWqZy59oVjeUKfzYXAXrcEANj3/v2um3+EvXZZ185KdmKTaFuesu+1iof/Fs/bR8652N6XpCF9ZB9/GUSvgJBZbQErVGQmpvsW2bWqMuvTvbRW1ckwS16ZzQH0TGwqecnBO4ZT+I/9UfGOQd6nYubK5z9nzA9wUABs+/0v9i3/243nY69V1r5XxrXTL5jVJT/Y93o54GWJrY+i90WRMg2TFP2+QUo9qfrqUFxDv22UYq2qH4KLgB0sHW2RKXnB8iLeqawXbuC5kpdM2dFHmA5jW8Tvm7xT5YxVW37S3jWw1k4BULR9r0OunX4BP7+kWPveyHNu91PuioDIftmXJaxpWE70S63EKGscX6vqkn2vV4M38O5Mbwz9RmWKNv48XhZ/dvqmSl8SI7UDmaQxSwdj7zHmB3QNvFRKAbBrXru0fS9UkUKY3RaLqIb4BUgm/B4sRbQXY0MvGftelh53Mk/8D7vdL3kpinpZMia06s84kd/KCvRa1VxHAEswsOfK2vdG73G7IXk5jJLXhnFfwD9HuZKXzNIjPyFrxyyzXXPbmi3HcREwZ0bXwL5iBcDmP/zyNRn7XiddO/2CzG9Lto1k0srHKnFIFNVHSr4syQ116X1cOKAnbpcFoyP1J+B8vLWloIKx5xm07y3xWlW/Rm754xxY44u915DQocNGdFTrsOfwI+gdyIrYrnnm2udPbO8eWCQjALb/9udF2ffiVpLQ5CgAuRRyXSiu/QR7DnDFg7db3ke+4nb/Uy4h+7LEn9Gn+DO9ATMp2JcrBWD2rmhHILM0yu61qn4PLgSeh/vHGH7sMBRLjhMap1S09djP9jFoO+ZQbrtmSLDYk7WvHjitvbu/R0QAmPa9D950E7ryBq6dsCuisLihuSKHITInCuZGBBRtskzJmL/N/own/h63+5tyDPNlKbNhLHqYBSYFi+7B4ksBUKUmPy/YKawKxVL/jfls3qhP5Q9nhdsNJF9ce0Udiye1I+J3VzqzDBDdyHujKzN91cKzh6Gx8g78LKH17yQAjkDKjllyu+aOB9kx7d0DLfpvb9mVXwA0Sdv3Ouna6WeEBICE90kmrXyZldC+t5Sx9E/j8/aRZ59lrw+AdB/JX5ay8wPEhTjG36bSBYAZI675dXKtqmy4ZQRUXAM37ucillY/X+j+G7O6Fa1X+JmSALBkiB2z6PyAjDGfRmJd/Bht8nn5PjOWaB7Afpasa2coljgVe65KALemfOSlfpm1iWPtsO8tZbhluVEufAAAIABJREFUBFR0PwkvSz2xgi+roZrkSfyZ3ofJfSQABt90tN3wdgSdzNDPKqe1quUoAA418Mgu6DzYlsOtfoM1yRN5sroH+zxJAIyMxA54aGe87OSkvJ+3GnWtSPte2lFyZFArbEwhmMfsB4byskOikRfc7kdGinIVAEYfafGyJOlvY4Qvh8NkBMCQGPT9zq5VjW5x+8GLRjkLgMFG3hvdCp2JzIYYJADwSG19jUiuxQoA7CZIxbh2VhoSAiD32zpk95vpiXyf95FPuN1viEY5C4AhfeRueFl67K6xH5Lwt/G/AIASZxECwIjW1sQbzz2guv6wMeELAZCOsuW31LB4Mim8isMiEfS43Q7LCclldCNuiiUrAJx07axUQphtZ/NEfSr51iN/q/HskGi+8IMAgFh7T5xNmJw8UGyeqzwBoGj3i96cqhqdXfPrWvbmqpjrD1wkyl0A9CxR2fTWpHiSh1nd1s8z7XY7LEck9nov6AGPFQDmmubsjH3ha5By7ax0rKo+sGESZhn1z89NsK0PK673HyJR7gJg+6MxdtHP68WTvKId4HG31b8PH/L2BYUEALwh5MY+hbeiVZMau+268ezgevcbQKHof1BhaxarR8TAQ97+cb76ZIxdeWkdC8cFE/+QWd2wRIkEQOkJKqmfhmDtt3BHk3+7ZowAIPteZwlZVAD4b0rB7ssxpkZnV8+p8/zL0stP5u8jN/zd29XevWuzm71V1wqLYh7acvBPgeWyVn/jy+3VA5H6zxYSAPA35tin1Y8gX0yYlGQr74q73hj8Evt5owZhFasXb9TGuu8hs7pJANiHzG8EvAaGbtcsIgCwyYbse0uDVQUABID5N1gr9RpNY3fdUMPe7XG/f/FDwJDoo4tqmN4kXhnlYvzpoZbohQSALysAIgLAxJxshil5nT8r4fm3aq/HijvjrGECotxvMfGMC4JJJADsJVxX91HsbwS2aw7EtG8VEgCDvgRk3+sKIgIAgGEZ7GSziZOTrPtub79Vez02L1PYmTMTmMQ/ODlz6PMDN1ASALkYoyS+mO8YWG42fVq9sFPa2Bqd/f7KWrZ7tfsNpZzimeUKO+cs8UZdXZNil7Q1rLSa1W0pABSt195WVnlIrDM+aOndkN2UBGXfK+PaSVhjdf+tNtSCiZlnzkgsh7lRos9t9gX17MXHvD0s4LXYuSJmDKeIDonC313cmoJ9APLOw6k4AQBOYVgBAGTSkd/CeNCkKeJvpuN1KnmJxFurYoZgwnQeF05sZv1zprP9f5sw1+qZkQBwHuxYfVFh8VZDFA8XAC9gBACQ6Y02PXu/ihLxY8dnX5b2rCYhUChgjhnkEiWhCd/b1oZGtvbiqWz/whbL/q6QAIDdQ+1pXS5SjAAwHkSPxINoS7D0Uip5HdGoc/cSJlKK3kvwie++aOrgRjGFBABP9BNJADiPTFkYGRmy77UXKwEQUrW41TGZ3lij+ds2hvFaxH/XicakscQXxrXd7pe8FnAvG1vEXzzr61Ps7nMns91mH1lAAARjye+RADDVbYGtLHnDvHboQ3kT+dYKpZhfza5jLz1O8wMgoJoyeap4o47Xpdht50xiuzoP3yJ2/9+a0AIAtru0p3URQ5HcUrZgiPgLEMVTrACAGJzIi3hZaucvSxvuo5cliG0PK+wX54sv6xsbT7FrWlvYzitbD+8jSQAcYuz4xk+XQgCY8cxylZ19pnjJK1KnGUs29q9zv4G5EdsfUQwhJN6odaNRvzqsUZMAKB9gO21+35cUmfjJvtdB+D3fUawAMAO7lBf+Dv7+tacqc1jg7e4Yu3FerTE8Ivr7gCHRLZdNz99HSgoAmIhrT+tykVILAAhzOUYKMXMdlm5AycvtxuZU7FmTXas6rlb8beDc5ma26ZfT8jbqwcZ9W/OVVs8MytAkALxD1rNffwaZ+A373rFjG9FbnxLyWAmAoJKssTomk440FOoDNi1T2UzEzPVonV5RL0um02ltSryPnKA1sCc6phbuIwsIANgemARALgI12pesjsv0Rq8Z6QHuWxtDGzLMOjvBnnvAv8MCZqOuS4mLoybeqB+9cErBRi1SAbAUAKq2wZ7WRYyE6ebH3yTfEGgLiwvNyyHsww4BMLQ/qG8QT3LNEzXjBcvtvszOWH+vyqZOE+8j1drskOjbnfkroyQALBgdqT/BLgFgxiu5kpfowzRLXq+v9FfJa9M/uOKfIa74Y+NT7OaZE9mbc0dO/IcEQKNlBSCo6hNIAHiT6urk8VZ+/lChCcS0M9y+xkqGP5vtdggAM0z3OkxF8Lxz6tmWMtuDpeS5gsevpzSzFy8fOfGLCICqeOq7Vufy5aZZTggAM7KqTjwBxsvEVnikQI/55Rr1C4hGTQLAHxy2o192/T/Z93oAKwEQVvTxVsewdDSF7SvAvx4zJ6hcbIVHCplq8TlNTWzDpYWHREkAjEAhAQCbnVgdl+mN/EbmQR8qgYsr3ZbJ5WkrLDPrt7Whia29BN+oRYYArAQATzQb7WldhCwhRQ+A86bb10FkcUoAmIFdFWTaCr9TZh4rMvPFtPoGtuS8yfJ9JAmAQ/Av9iknBYAZMjM7wSlrx2PlMT8Ave4316h3d8o1apFJgLwTayYBQBB4YNWFkwIAApL50oU1hoEa5mWp6//K42UJvWKM5woYEn2j2D6ykBFQLPkdq/P7cuJtIQEAG49YHVesADAD1nZ2YNZ21njbVhjr/AX2vde1Tzxiraq8AChQASABQBBSWAmAkKrVWh2TScf0UvQpb3XhnUHhZekFj74sYZ1OYej0ksnNbOuc/Mv6SAAUgbwAiF5dykYBJS/YFEP4jblRM9SxV5yyZH6khn2vxVpVZysA+iZ7WhdB+AM3BYAZW/nL0s/PLV9bYRmn02kNjWz1xYWX9ZEAKAKwD/WCABjaQLC2wr0uOmXJlOmmpBpZ10WlbdQiAoAn+iYSAASBh/9OtqEFQF9Es6PPkbEVdvtlCbtvTE1tQ16nU7sFAD/3yVbXFKiv/7A9rctFCgkA2PXP6jg7BIAZMjs8wczZl59wVumi7Xtr89v3lrRx3269CoAEAEHIYSUAgkqqzuoYuwQAhLkZDmaCcVtbkvU5/LL0/CMK67gAY99b2OmUBECJkRYA6eh8uxvP08tUdhbCKcspW2HsUh1o1J3TJrCXrihtub9UAiCoapvtaV0E4Q+8JgDM2LlCQdsKGy9LT9o7P2BXbpI33unUgT6SBMAhTo8kPulVAQBhLhPRm8Ubkl22wjJmHedOaBrRvrekjfs2awEQUFONJAAIAk9I0bbmTQqKXm91TKY3mnSij4Twiq2wjNNpc7KRPfYLMadTuwVAON7wbavrPE1t+Yg9rctFCgmA0UrjV62Oc0oAmCFjFHFuiWyFZew6wb73/guca9SHKgDWcwBIAHibcEz/Mdg1D4+Akhzl9rVVOl4XANL9VEuyZLbC4HQ6Y4Z44ldqU+wvZ01kbwnY95IAsAl5ARCZ52TjNgNKVzK2wm9I2gqjlXUN3r7X7QpASNGftqd1ERiCinZT/uej3eD2tVU6QUUf8LoAMMNpW2F5p1P7y/0kAEYgoDR8opwEgBnrkJtFgK0wxilLZmwNGvUOCftepwQATzANJAC8CwkA72IlAEKqlrA6JtMbS7jZR8raCou+LA06ndaLfT5EW2MTW1fiZX2lFACBmPYtq2v3pTNnIQEA+5ZbHee2AICQ2S5yJKcsmdm1rQ2N/7+984CSozjzOPLZvjvjQHDG9vnONsGRMw5nX5ADoAkraWeme1cbpns2SishiWiCAXG2sAEDRsiykW0QElk6wlkc4AcGTDAZhZ1VIIMMyAQBAml3Fbqvvgmr2VXXbH8109M9M//fe/WeLbZj1fT3r/qq/mWv9rlRjzTuIpMAIQCCDQRAcKlGAZAvq29usmcy92AZr7OUWYrIsO8tl9MpBECZaWhp+bCaAIj/0u+GnS9kK0yGF6Rg3TZIJ6csatSdve4bdVtbKjCNukQB8JQ3rQtwgAAILmHdeK5aBQCVctkK++10CgFQZooJgEhz8jDZcUESAPny3F2afdrJjMbZYtpLL26x1/9Rz0wY5DTqJcf12lsuCE6jdiMAxL2nIACCCwRAcBF18Kzkt5OUHWOlY21+fxPHFto18Ffn8hxL55/Zaj9xu2YvPLeVZd97dl9P2ex7KyUAwlrqK9Jnam3d35vW5SO1JADyhXryXYyePKd4Yd9bXgGQggCoUoQAOE/0NJ/eq2jmOX7fW70jHQGoMgGQL5uYtsKcMstDp1MIgDLT2Jg8UEkADMQv9LsRFysqtsLFSq/RaT8wr/LL+iohACjIeNO6AKgNamUEwKmzxEl7FiuVcDqFACgztSoA8oVrK1ytjXqPAJCnAKJ60oQAAICPTACENcOQHWOl461+f/9cdZYUJj4Xlko6nXotAKJN7V+WPefRWtcB3rQuHykmAEJaxxdlx1WLAMgXymGdwFjPP7kpVVWNGgIAAO+oZQGwp7OksTtLlXY6hQAoM/RQagIgdoHfDZZb3NoKV2OjHmncN3T9QlZnUgGgmc9407oAqA3oN+I4LCx+U7JjrHSixe9vnkpxY37Wlez0xekUAqDMFBMAkxLGl2THVaMAyJftq+LSpSzzZ3T73kBLatzFlwEaEAAA8KFRsnoRAFSos3TeT5xNhI7r6qy4fW+lBADFPFk8pNFyb1qXj9SjAKBy4dnOjfuCY3p8b6AlNe6bOqQjABAAAKhRTyMA+fL7X7Y4fiPnTa/yThIEwB5oZqOiADjf7wYKAVAeAUD5TW9aF+AQ1s1FItBsGVsimrnQ73urd2QjAKKkZMdY62LT/P7OeSEAzoQAqB0gAOpHANCSJQiA4AIjoOBSjwLg0ovqTwDQvDdZPCTPHE8al58UEwA0IUJ2HARAMAsEQPUCARBcIAAKBEAvBEDNQP7GSgIgHf+F3w0UAoApAHSj3emZyeXMk8YFWEAABBdyy3T87WhGh+wYayDe7Pd3rpRy2YL6EwDkfQMBAAFQtQUCoHqBAAguEAB7yhk1nAIoJgBo51xvWpePFBMAZIsoOw4CIJgFAqB6gQAILnUpACQpAAiAGuJIvfdDagIgdp7fDRQCgCcAQprZ5lzP5vPetC7AIdSU+mZUS+ljSziR/Ibf91bvCAHwpGNQ0FOdsmOsgUST3985CACeAGiIm4dCAOQfOGF8VXYcBEAwy/D/QgAAUG4gAPaU02t4DkAxAXBUrP2j3rQuH4EAqDEBgBEAAMpOWDeecE7PmF2yY6pdACyRzAGAAKghQm1tH1QUAOf63UAhABwad5ERgLCWapXkmF/wpnUBUBuoCAB7IKb7/Z3zRAD0dPn+nfNKAEzSOg+BAMiVaFPH12THQQAEs0AAAFB+6lEAXH4xBEBhmTyt62PetC4fgQCAAIAAAKA4ItBvdE6fGd2yY8Q3UvP7O+eFAPhxDacA6k4ATJnS+QEVASAayDl+N1AIgL3LzpvMYssAWyR1vcmb1gVUCDeZCVEnd0c1I+b3vYAs9SgAltahAAg3Jw+GANhTDpcdBwHgfbn51D77lO5ue8PZx0AA1AE0ASmsmbeNDjDmncWEOKgMlRAArzyg2efPb7Vv+H2z79/HYgLgtBpOARQTAKJ83JvW5SMQAMEUAG9eMMc22jqyIzGinDuz2375vPH34N65suM8WZ1BAAQT2pJbBJIFoh52SoLMblGW1eQkpCohohkbHOtGN3tkx1j98YSbb9E7jyUyS+4aW7Ln1JOG/dYjCd+/kUsXQgDUvACYqOvvVxEA1kDs53430FoWAJcfP32ve4s3pzL/TuJAKgCKzAGIauY05wBj/tWb1gWKMXHixHcLcdcr3v+rRX6DBcHGeEOIuJNDodl/7/e91xteCICd/XH71mXNdmvK2Ou8l5zf4vs3UiYATu2p3RRANJ76AgRAroQSyX+VHQcB4F158dw5mWDvdH9TmlL2Mz+fDQFQ5YS11A9EUFnrJvDvVTRzIzkE+v0M9YQXAoB6+dTbd/ydN5v2X+/RfP1GLvsVBEBhmRRr+4Q3rctHIACCJwAumNUj/fj/9tjpRY8tlgKAAPCfULPxOdGTX64U+Peut9uLbdgFyoeos/VOdUAjOLJjrP7G+HjfoRWLp0nr96dntEEAQAB4y1Ht7fsqCoCf+R3Ea1EAbL1wrn1SV5fjvU1rTdmvnV98HkCxEYCwlmx2DiTGi960LpCHfmeit3iW6EkOliP4F5Sdov4W1+RWpQHCKwEwvCZud/QkHet2ztx2e/uq4AmAWp4DcLTW/nkIgFxpaEp9XXYcBIC35c7TZ9pdyc5R93bDyTOkf3+j+G+/ntNr//Vac6GsziAAfGFCVE+a4j2/5Dqoa+aTond/gtR8xnk04NWQZvTpuv53fj9wLaIqACiAUy79ukumSb9Ff762edQ5jS7DvuOqZttK+/uNvGKh8+hEvQqAKdM6P+lN6/IRZQGQjp/tdxCvZQFAhUYD/nBKX6bn32N0ZP6/09+9+os5dlNrds5A4zTqYTpPFIMAqCy0i58IHPczAv87NEow0TT/gY4/orf3PaJu5or6fNO1EBCBKpwwwn4/e60hBNY65zozpjv9/bx589517k9aFrR1ZHP8ja2m/cpfnGf2U6A/8fh2Oy7+hlYD+NnrdyMAToUAqB0aGnrfBwEQTAGQL6+IAL9+vtwL4JK5vY69yEgiFS+sMxFImiR1/ZL3La1+oA8FDcvT8j2XgduieQFHN6c+7XS+xsbkgbRMUAShXa7FhG6upPkGlX72WoUjAKJNyUni7/vH/i19c2Tfo01/1uwtD/m/9G+UAJDOAahdAUC/GQgAfWR46wjZcRAAwSjP/ny2PbVZ2hvcWpgbhgDwFl3X35vpsWvmW4xA/YgQat91c37xt4eLcrfrc2vGDhIOtOOn189e68gEQFg3ZxT+XW5E9W+O39Mm037qDn9n9pdDAJA5md/fPT8EQFQzDvK+pVUYdQEQm+93A4UAmGv/dIZ8xYAQAKcV1hkEgHeEmlKTxft+2m1wprQL5Y9pqNjza+nmayRMMD9AHSGmBtwIAIL+TVYXJ5/U7vu3z225chEEQM0LAE3T/hECoDoFwGu/mGOb7c5+AbTBD9VtYZ3R2nFJMHrZ+5ZWm2Tte41b3Qd+c5h65eTAWcp1VUYbxN8/Fmky/qtcz15PcAQAGTzJ/p7mBLz6QLCG+tkCoIZTANF4x79AAOQbdyL5DdlxVjo+z+8GWu8CgMrWC+fYK340w9amjRYCIc1sG1tnEADlI9raun8x+15JWUkfGNk5w1ryeBITY4uoy2NlxyjMN8jcx2St/Z+9eTO1iSyg08oLp7+niZiFf9eYm+C37XH/v331LgCGruh9SFbPxQRAKNb2Ke9amE+oCgD70d73WAPxuaK84XdDrWcBkC+vLJqx/cS+1F25gPS409AyBEDp0HsV78sQAeEV1z1vWkKmmaHxzh3WzMsl57hsvGNptE7c033uRwPM7aKcU+pIRL0g3lmaIwByx/xRFOus01vf2Xx/9eT+8+WqRc6rAE7urlIBsHD27qGre660F/e+R1ZndScAaMmRigDIY6W1A6x0fIGVju3yu8HWpQBYONsavrbrBjutv5fqI6R1fFFm4CQ+VppEAGwud7uqRSJNxvfF+1rDCLJbaJiehoTdnL8UAZBjAok8ITiec3+P6nMR6gkVAUDpIRJm9NvMdJbS8a1+f/fqUgBcNMceWjZj1eA10z87Xj3TyBgEQP6Bm1LfdHseq7/xMGsgdpvfjbZuBMBFNJTVs3r7jX2OS8ecgABQg5bn0W58boNqJOfOJ8TYRzjXKYMAyJCd2GucHNHMt13fs2Y87HY1Qj3itKwv+96SM92ew1o/5ZPiG7lYdJZ2+/39c1Ou/rWzAPhRV/UIgMFL+14dvK5r3NG3PMUEgGyZblVDhjGyB45qxre457P645NFI3/a78ZbywJg8LIZr++8sWsyt25kKQBR/sY9Vz1AgZRr3ysCxZ2hhPFV7rWs1e37nnB822qnc552SvsG6wmNJSYI6rHkhIvl8v4zfgQNevIz3GvVOjIBINrHLO65rLWJb4hv5H1+fwNrWgD8ZtbQ0FU9Z3LrplgKoCZ/F8UEgPgY3FNsPwAZe4a8Ym/53YhrSgBcMnN4eEXXWdz6yM5KTs6k5WAQAK7IDqVr5vOMHvQLNDeAeyHb3meCtS5miIDw8gXz2xzP/cuftdri97SFflP2Xe7SCYWQkBf394BrEaMb2wodCUFmEqDzzo2a+SQty+Sej+rdHojpot6f9/tbKBUAv3GeBHhSgFMA2xbMtoaunH6rtax9X26d5JbXSu23604AZHs0xu5cL4K9F7L4sH0iN+QVuPkBVSUAMnn+7lusm/gTtlzmraUCgIaxownze9zrVivcyXRj7Xs5WP2xb1rp+F/ybfLeFU32kgUte5X7/qdppN2K39IGIQQiCo82gQQKTfh0/Wy6uSknaiYoXK/qIKEk+8iPu3WzZvxJZeTHfrThfUIInCXqddDvb2K1C4DBy2esH7qm+2BuHYSbkweLdn7zeL+HuhQA5fjQ2esbjxAfrXv9btBVJwAoz790+tPDK4wvcd85M28tFQCizhdlhWBtbz1LO32p2PeqfBTKkQsWx95upbUvcq+tuCshuQ8ezr1WtZBLlWTqXtTpNU5/M64AyBaluR+EtSb2KVGny4QgtPz+NlabABhc3PfW8DU9rdx3PnWquR+thCFvDje/g5oUADQ8TDuJMXo8TwqlPEXlWpn5Aen4s3437GoQAIOXikZ9Y2eS+44zVqSaeTbrA68Zf3A61ySt8xCyky34O7KWXXxUrP2jKvUfREY23OEY6ujmoyoT5so9G1yIiB20Asd+Wmdb/dKmJyRgXD9zbiRw8rSuj3GvFVTyYoiWRI4Sdk3mv4/924hu3MH4Pb0u3tUxbld/FGKta5wo2sgqv7+PVK6RzAE4KShzAH51zM6hK7sX2swVLOSISXs4cOIeWUGTYODWZ1WQV0KikQ8xGrnykJdQuieLj9fbEAAOZdExu4ZXdC227X24y7LKnrcmYeAcAI033CwRDTqU8xOB/ynX70s3X1JdMufl5FghAl7LzA+w+Va/3KWNtLKAgqbTbpPVBA37RiSe/bSD4z5j0h55oUhtn/H72iDeV5R7b7Y9713ZeSHxzRAADmXBHHtoae991tJZB3LfbUhLThT16DjZVvatoxU15LzJvVbVkftRrOT2ClR6hNZG7SA/h7wCJwCoUV/V+4B1B7+HxTaBcTHJi/L+RdTwM9UcAHIjG//H+JBnNtUJtbV9kHste2380EotjxW/p8dF0GBb/Y6YG0kCokQIPEmCk3utoJB5ZhrJkTyf7NmO1roO4O7MSOmzSQl+Gs9eNXU/Ua/niG/kkB/fyGt/4ywATvRRAAxdOmPTjhWd7M4Hd0VMKbGt6ok2JY+Urnt1buBbVFWSlW78VuFEqHoUAENLZmze8YeO/+C+Ow/z1hMyvvHMj2PQydr3us/55YrStrojBlkD8Z2VbtvimiutDRrb6lfp/WjGn8Ja6ivcawUBcd8/KCKSn6Zev+zYSHPyMM4eEKXszCjq8wuiXpfXtQD4zaxtg1f1SE2XZCh5Yujm3dGmjq9xr1VTUOOn4U7m/ICNakNee5ZC1ZMAGPzdzG07ru9mryNWzVs75TZlNGjJ74i6/4vDh3Gv4dE8JEiC6DGv1sM1NpCfO/datEzPTsd7RfB/ldsmX7xHs9O36nsV+ne+CIgNZwTI+inslSPckcBICZPfvIb2SpjUbH5W9t+d0lziWVaFEuYP3Zy/kjszino9UtRpf8UEwCXOAuCESgqAhcdk7XsVlr/m6sa1K2akzla9uCI/5BVhbHqiOuRFZiiVWhLjqwAYY9/LITc647g3uaQo562JMXlyxwlSecR9XZHf7S4oE2ZyqQyWfa/6aFbsB+IDvVa1TRbzAVA9p7ifF0mQUF6Z/e5EW4tILHDL/e7KTb7nJwLAVkr3yP6ucKJr3haZG5zVdmY014n3O4n7XLQHi6rArCoBkF0B9ei2y49j78DX0JT6OnnYuBdl2ZTo2N1TQQHcbU/zQ14qgcDqn/ppmh9QcwJAwb43TyXz1mPJLBXVzJPEj+QS2d/QPITCVASNHJFLWrFhVC/h2vfmc35KS7j6Gz9nl2GI1gsBMCIEBmKPWP1x1yNAedRGAo0NQjiqeBWUTG60p4OC+ej6TR0lO0YIhXMpANCqgFKuvScl535+QGScHSJlVGIPlut8EgCDl/ZtHlzReTT3nTQ2Jg/kzs+g9x+Jd/4T91p1C3vmdHZJjNKQl/hgfd8aiK+uBQFA9r1DN3RP5b4D7lrVfKNWyVuXQiS7VtxJXa+v5A+s0va95Ryx8lIAZERAdsLtcvGbYteH6uQ32pyKey1VGlpaPkzD95L7WaPyDVIhOynXvJfxnoZVxXp2D5b4rTUhAMi+9+re07nvYCQlqhtvun/nxmPRROo/udcC+yjmoGnY2sWWqGMpWBLzt6oUAL+etWN4Red/c59bNW/tR88rqhmxIvc0oLIeWgH2Tnil2PdmbVzjL5SzTXotAEaEwEB8W0a4vMAf8qzk5DcVxHfmz/J7MbsqcQ95sp0l41nX7ypgy0wrJQDIvndwWe9K67rj2O2RnaYqYQ4GGENOcbOHXFSGvMq9JMZrAbDt4jnW0NXdd1u38FU95a1Za1V9zL2SGMxM/pTcm+hZs4fyuFDOj9XjKsHrPreRy/1e9LgqJQAKhMAmEtckaLjvoZKT31j3lUj+q2xVDO16OWUK3067FFRmodOE3ZCeZK8KKvceLMsXOwuA4zvLJAAuytr3Dl7X9Xnus7InqlZYiNYV7EkXpQx5lWlJjGcCIG/fez3fNrca16pSb0XcS0rU6V8d7u9W2XGULy0156ogQDPLIFVRQsORAAAZk0lEQVRSEpXYyrXSAmBECKRjDwoh8G/cd1LJyW+FkHArtje7CLhXOgSAV2hDrAqNRu1FVDMOUtmZUamt7tmDpaS26qUAGFw8842ha3rj3GdTMa2rdCqqblEd8vJjSYwXAmDwd33vDN/YwR5mzOetx1iSjtNLMO5SyVt7RUFP563cj25Xsb0DcsuvlOpfdRlkEHpVxQOxvHh/7djuzMTbtM7e9KuSk9/yIw+0RHUfyXKtjJDWjW2FnY2g9PzE/X/TaXltkd/5Ngp4E3X9/dxrZfdgUd92eMVvnQXAcV2d6sF/0aydw9f0nM8ddcqnRGkUx3Ub08yN4USygfveQAnQUoqR5Tdef5xLWHNdVgGgbt/LX6uqmLeuFPleubjPX8n+ZqzLYG5+iCv/iEzOTzMGKiEyvbTvDWoRz/tOZn7AEyG206OXk9+yWxqPPne4yUzI/l6cdz71oFVERgWYkJvf8xKjHSutUR+Zr5KOPeenANi2YI41tHT6HfYS/qqwSKL92yJGPMgQTRn73mp2K616FIa8Mr2CYqYdMlRc18oiAEqw761k3tonHD9UOSXv6DJIW3LKemqZnF9F7Xu9mVldLUUIgScpcHDfHVHOyW/0Ec9tWrT3d0Qznyoy7yXwZi4qOzMK0fRQqMlkp2sKth3e7loASFIAxzJTAEO/73t++Pqer3PvmRtDanHDqqonM+SlG/ezAp3qkBd9uNPxWyohADL2vTd2s5eRKKxVVc4FBhHxPKkiQfuBfcZ8uFWWQVLOj2arc+/NXhvd3y/73qAW8S7+ZK1NsFNN5Zz8Vmyv9rCWPJ57b0GD61mR+SZk/56druFsO1yqABhcPHPr8HU9Jvce86PIzLbzII0UcK8FKgN7pzqaVKZqy5gduo0/5YUAGPztzO07ru+czb0n1bWqKqmRoJL5YWvGC9KPWoHLYCWXQe5JJcVe8TvgBrHk5wdYq2PsyablmPxGJmSjtqUe3WF4g0Q1976CCO3MyFn9IwLkO8qrWQYS36bJn8Xq/X8kKYBjO8ZJASycvWvoip4l9nJ+2o07elRKnAAVRmXIS/ztw+RLz70WWWZmtkhNx94siwAo0b6Xk7fOuOjV4FpVqn/xfD9zmuwo/u26wr9lTZTKLIM056i4DmbNpmJr/A6y1VDE72kLbeWt8hsgcVds9z2n4FbY/sWxixy+Dcpuo0FFRfhSx0rNz6L4tsNsAZBdAfXg21fPYQ/BZ5dvFvFw2PuZt6uOFAOfKRjyYvUK6Djutax1jQc6WWa6FgDUqK/s6R+8mT+ZiPLWxYYvZR+0ctj3BpnccseRXQxpeH+scyE5SI7/EShhO+oK2E1zCy27+tGJ7XsVmozl972NEgLp2AYRONibfu2Tm/wmystufg+FS/bIorlw9Ex1v5FqQXG5m5KjpRB078/ODxjtsXL975wFwFyHFMDg7/te2nFtL3sralX7XpW5YiBgcA1vShryWhf7uvhw3cMRABn73hs7G7nXUs1b19ta1XAi+Q3x7HeLNnDeXv9NN19zIQBWc4NAJTec4ha/fABKEAK3WwMJ1vunpaFue3pjR3Qyq4syFq7m9zjXrGai8dQXcpMgXX5HShDFYzxWXAmA38waHLqmmz0PQyUlKsrjsO+tMdTWd6ovhcvMD0jHnikqAMi+d3nnharPEmHlrc2Nfm2cEhScZnK7GQHIFVdb0e6x740973fgrBUBkBEBA7EdNMJGTp3F3n+0tXV/7q6iY017KGio7mpZ7eR2Ae13LQRyS+GUdrUcSPyQPFaKCoCFs3cPXzX9envJPHZnDPa9YC8ol5OZH8AZ8tKNu6JNHV/jXos80I87ts0xH/mTuR0vq9j3hrTkxCIbkZT1B1oPuBkBGPU+NXMLfSScnN68tO+tdwFQIARez8y5sUd/pEdEMTnxMeqTil87SQYVatv8nRnVzHBoYuz8M1tXOJ2zr6tjcPCqPnZKlDuaAfveOqRSQ17imCWS8/2ec55qtO+tBrgCoEBYrc9vOlUuS1QIAI4QiK+z+uMZq1+a1S7uf41KPUIAyMnvzBhhjKaozJkQx5wgOddDnPMode5qfI4HGIdQwvyhUIBrGR9+lvtTqQJAZZ2zKHerjFjUI6oCIF96+5LpF+9JvO13QKw3AUDllQc0+4zTWjeVUn8QAOOTWR6pm7e4fqfZHvVicut0c37yWJCc52E3x6ukd8V3/AlaMl7amwE1QX7IizN86LYBlSIAFJzOlGw86xnpMKfcR2Cv0thi2ksvbrEHV/sfFN2UB29ssq/59bS9ykPi3/2+Nzdl+6q4fbl43/TeGb/X9bL/hvSYO7LfI/MphhB43U1OvRQBkLVuNh5wf0/m2zRKAPtesBcqE4hoCKnYZjQqAiCzVpWz62HOvpcMcLx5M7WLVAAkUnHuVrTtnUn71mXNFdlUpx4Lvdd7lzfbZrfhOvDnJ/KSexsEQOmoGY1l9uAIyc4pznWc5NhHZMfAvhd4xiSt8xCWH3xuhrjTkBdHAKiuVa0V+14/KCYA6L+rbEU7d27SXneb7nvArKXy5O26feLx7YzAP3opLwRAeVH9Vo314SA4AkDJvldxXwNQ57B3hMsNeRXOEHcjAFTte7FWtXSkaZ+cAMgzZVrnJwtNhcYr0SbT/tlZrZk8td/Bs5rL6w8m7IvPac28T5e/jYyZV4Oe/Exh/WWGiiXHYDhYHdpsjOOs52RCFtLMYx2/cbr5aOG1MiNymvkMI/DDvheUhlJw1o314YQRpuPHEwBYq+ovMgEg2wKWTIXaO9td50HjraZ95aIWe3iN/8G0msrO/rh906XNttbufrh/RkfHYOE+D4VAAHgLNzhHCrbPHk8AiP99uIp975QpnR/w+72AGoFyRxS03fYAc2r3xsyOcc6NlP7d9cza7J7m5i9q3b630kQkZkrF9oDftbaxN5OL7kq6Dk7d041M/trvwFoNZdVK3Z7e5/7dtrV12H84pc/efumMdbI6gwDwnuwmXOaZlH5hCIFHRFnqLACMJ7Kjbu7TDLTXB1KiwDO4m0mUo9SjfW+lUBEAVrqxhwIVzfqn3j1nNvqpP2qzn70T8wOcyqY/a/a805yXKDqVKU2m/as5vfZr58/J+cTPlAoA2i5cdh4Vy28gh5suK8830lgVaTLYewQAoITCkBe/aOZGUVQ2QwEukQmAkGZosmOsdbHuwsD10n1aJt/vtl4nN5uZvPZbjyR8D7pBKG8/lrAvu6jFnjLN/W/jjOnd9jM/nz1moxgIgCBB6TLRi7/f22+ku6WGAJSd/Axx0ci3llXNMs2GgDoy8xCOAMiX1Tc32TOPcT9TvdkwMnnu3f3+B2E/Ci3ru+OqZrs15T7P32N02PefOdNxm9jBIikACADfmEB+KbSVcJmDv3TlFQAVpVxDXlirWnnKKQCo7BLBnLwAWhhBjfLdj/2hvtICa/9Pt2cxxJLekrKvPnG6vfXCOc57xI8jAHI7QjqeG/4Z3kOOphmbXs0YLD34G3cU814BwBcyHxnNuE+t128+SGuV/X6GekMmAIq5PFoD8a7xAtzWRxP2Jee3ZIb73baBs37cZm++r7bTAq8+kLDPn+8+XRIV5dyZ3fbm8+SBf08KAAIg6HD3NBlVNPNJ2PeCoJMd8tKN59z1+rFW1U/Eu3/ZCwGQLzSx7YxTGRPbppkZ4bD98doSAkOrE+wJkyd1d9nr5x8zbuCHAKg+WLua5kydkBIFVUN+yIvWpEoCf2atKu1g5fe91jNqAiDRyQ2A5L/f2et+aRvZClN+vNpthfP2vake989utHXYt5za5zrwu0kBRHXzCNn16LfqTesCxXCxiY+VGy34uN/3CoASkiGvlZOazc/6fW9ALgAiutEkO0ZFAFDZuTZrbpNgmNscO7fdXl+ltsJP3aHbJ53gPs8fm2balx8/3X7zQl7ghwCobhy38dWMhxu05Hf8vjcAygKtUY1o5grY9wYL8bF5qVICIF9ef1Bj2dvS31HefMtD1ZEW2PpIdv5DQ7P75/tpX7f9/Dnj5/khAGqXcHPyYBH4rwprqdZ9kBIFAHiNkgBIxzrKESg33q7bxzM2uMnbCu9YE0whkLfv1ZPuRziO6ei0H/vvWSUF/hEBcFnfgKzOyLNedg9Htbfv603rAgAAEFhkAiCsJZtlx5RLAFDJr4Vv63AfNINoK0z2vTNmus/zN7d02Ct+NMN+R3G4HwIAAABASYQ140U/BUC+5G2Fp7a4FwKnndxuP3eXv7sN/vUezZ73Y3X73nIWCAAAAACukQmAqGZOkx1jp+MprwLqi/cmqsJW+B0F+95TurvtJ37mflkfWwAskQsA2sNDdl9YiQMAAHVI0ARA4ZB63yzGkHqFbIVV7Hu7k532fWeWJ89ffARgBgQAAAAAd5ARUxAFAJW8rfA0kzGpbna73X+LN8sGufa9mgv7XggAAAAAviATABHdaJEdY6UTZiWH2/O2wm6X1VEpp61w3r7X9bJFPWvf+/J5sysS+PekAOQCQNzX4bL7nTKl8wPetC4AAACBpRoEQL688GfNPv0U9z3wxlYzk6dXtRUm+94Vv51mJ9rcC4+Turrs9WdXNvBDAAAAAGAjAsCmahEA+UK2wh297tMCyS6DbSucuQbDvjfZnrXv3VbGZX38FMD0dJF6hgAAAACwB5kAyLmROWKtixl+CgAqw6vj2d45x1b42HZ7/R+Lzw/I2PeeqGDfe0Fl8vyqIwDRpo6vyZ4h1Nb2QW9aFwAAgMAS0YwXqlEA5Mtr3Px8zlb4jYdH+wdw7XupnDG9dPteCAAAAAC+UO0CIF8ytsLHue+5U16fjIe2r+Lb985Klc++t7wpgBnSFEAxAXCk3vshb1oXAACAwBLWzOcde4Wa2SY7xhqIJ/0O+E6Fcvx/vILW6LvP3XOcB1taU/bKU/rsbQEI9lwBEEoYX4UAAAAAMEItCYB8UbEVLla8tO8tcwoAAgAAAIA7alEA5MuL92gsW2GnQva9G31a1lcpATB1qrmfN60LAABAYJEJgIhutMuOsQYS7X4Hd07h2gpTydr3zvQ9qJdLAIS11FcgAAAAAIwQ1o3nal0AUNnp0lY4b9/71gX+B3S2ACjiAwABAAAAYBQRzXjWMTBoZlJ2TDUKgHx58+FExibY6ZnN9pS9+bxg5/mLCoDLp/fL6iza1P5lmQCItrbu703rAgAAEFikIwDFBEA61uZ3IC+l0LI/p2em5X1+B/GSBECRFAAEAAAAgFEojQBAAASyYAQAAACAayAAIACO1roO8KZ1AQAACCwyARDWDEN2jJWOt/odxCEAHATAUrkAmJQwvgQBAAAAYISwZj4DAQAB4E3rAgAAEFggACAAGhuTB3rTugAAAAQWmQCI6klTdoyVTrT4HcQhABwEwOW9UgEQ0jq+CAEAAABghLBuPA0BAAHgTesCAAAQWCAAIAAaWlo+7E3rAgAAEFhkAkCUlOwYa11smt9BHALASQDI5wBEmpOHQQAAAAAYIaKZT0EA1IYAGFoqHwGAAAAAADAKCAAIgJDW8RFPGhcAAIDgIgTAk5JlgB2yY6yBeLPfQRwCwEEAFJkD0BA3D4UAAAAAMAIEAAQABAAAANQhMgEQ0lOdsmMgAIJZhpZNXyurs2IC4KhY+0e9aV0AAAACS1g3nuALgEST30EcAsBBABSZAzBJ6zwEAgAAAMAIEAAQABAAAABQh8gEQEQzu2THQAAEswwtlacAigmAydO6PuZN6wIAABBYRKDfyBUA9kBM9zuIQwDwRgDCzcmDIQAAAACMAAFQQwKgyCRACAAAAACjkAmAsGZ0y46BAAhmURUAonzcm9YFAAAgsEQ0YwNXAFjpmOZ3EIcAcBIAPRAAAAAA3AEBUB8CIBpPfQECAAAAwAhSAaCbPbJjIACCWYaukKcAigmASbG2T3jTugAAAASWsG6sZwuA/njC7yAOAQABAAAAoAQgAGpJAMhTAEdr7Z+HAAAAADCCTABEdbNXdozV3xj3O4hDADgIgCt7V8vqrJgAmDKt85PetC4AAACBJayZ69gCYHX7vlY6Nl+UQb+DOQSAKAvm0BLAh+3lM6WT+SAAAAAAjEJFAOSx1sQ+JUTAMisdt/wO6vUqAIaWzNi844aeiePVVajZ+BwEAAAAgBFkAiCiGdPdnsMaSHxbCIEH/Q7sdSUALpk1PLS883S3dVRMAEQ14yC11gMAAKBqEYF+oFQBQNj2vHdZ62KGNRDf7HeAr2kBcPFsa/jarhvsJeY/cOoHAgAAAMAoRABIO64C0Mw7KWhwz0fzA+yB2FlWOj7kd6CvKQFw0Rx7+Irp64ZuMw/l1kluCeBKmQAIxdo+xT0nAACAKkc6ApAdBdgR1owFoba2D3LPa6W1z4tgu9zvYF8LAmDwsplbhq7v0Lh1cFR7+75h3TwrohtD0jqGAAAAgPpENgIwZjTgVSEE5uq6/nfc81vp2A+sgdgav4N+VQqARbN2Da/oWqxQrRNEfRmivDxe3UIAAABAnSKCxCo3QSIjBHTz0ZCe/A/uNey7Jr7bTsd7hRh4xe/gXxUC4OLZ9tDV3XfbN5r7cd91g5b8jniWR9zWaUQz3wppHR/hXgcAAECVQ0vAhAhYLMpu10FDN1dO1tr/mXste210fxGAz7EGYsMQAM5laMn0TTv+t/vfKlCPlvjbZRFsBAQAAPVNOJH8RkQz7nM9GqCZ20U5Z8qUzg9wr2Wt1w6x0vGbIQAK8vy/63tnx/VdrJUXhK7r76X0TFg3trrv9RsP00gB91oAAABqlwlRLaWLYPKceyFgvEimQfPmzXsX92IiGB9ppWPpuhYAi2btHrq2+wr7rnnv5r6/UFNqsqirpzl1RXMDqJ651wIAAFAHNDT0vi+iGydHNPNtTq8ykkh9l3st+9He91gD8bl2OvZmXQmAizKb96y2VvLX4DfEzUPDmnlbJUZrAAAA1CE0OzyXJ7Zc55V1Y3mDnvwM91rWusYDrXR8gZWO7ap1AUD2vTtvMr7PfUdHa10H0LJMca87vZ6vAQAAAOwT1YxviR7+A657nLqxjdafTzR5bnWE1d94mDUQu60mBQDZ917fcQb3nUycOPHdlGah5ZiMXv+6aFNyEvdaAAAAwFhYa8tzaYEXVHPOVn98shACT9eEAMjY93bfYi+f+X7uewhrqR+I97iW8c5fV/VsAAAAAKSMuMtpxiBjGPpuUQ7nXstO6++l+QFWOvZWVQoAyvMvnf60in0v2TBTOoXxjnfSMsCGlpYPc68FAAAAuIb2l+cEKFqfTvMJJk/r+hj3Wta62CesgdhiIQR2V4sAKNm+lyOwNONP0ab2L3OvBQAAACiTGaLWzTXug5X5NgW4UGj233OvZa9vPMIaiN8baAFQgn0vLcGktAnjXT5JxyhcCwAAACgd8gCgXL8ISn9zPSKgG0+oBC/b3meCPRDTrXT82UAJgAVzlO17yYRJvI/7GYH/HdVJlgAAAEDZiba27k/rzUUZdp+7Nu4Ia6mvcK9lP9rwPisdO9kaiL3ttwCAfS8AAAAgCDcnD44U2X9eNoFNZVMaa6N2kBACy6x03Kq0ABj87cxtO27onsG957x9L23Ew8jzw74XAABAdRBtSh4ZcbHd8EhaQDO3kAMhBUjutax047eECPhLRQRAhe17Va2WAQAAAN84orf3PVwTG9Hb3SACZYR7LZofYK2LGdZA7GVPBEDJ9r3GrQwxNEyuf7DvBQAAUNXkbWxFYNvFCIK3h7SOL3KvZa1u39ceiJ1lpWOD5RIAg5fNeH3nTZ1R7r1k50Xw7Xuj8Y5/4V4LAAAACCyR5uRhnJ5wRDN2UAA9Uu/9EPdaVv/UT9P8gJIEANn3Lu+cx7123r5X3P8rrgWPbqyPaGaIey0AAACgamDnwnXzNVWLW6s//n1rIL6aJQAWqtv3RpqM70cY3gg094GejUQD91oAAABA1aE0G143HxcB9r+417Ltee/Kzg+I/62oAMjb917HTz0c3Zz6dG6ZnttnUV79AAAAAFQ9k2Jtn8iuh3c/PyCiuM2tvWrqfgvPabnD6ZwzOzt2Dd/ANydSte9V8T8AAAAAao6GptTXw7pxD2PoXGmmfGbUQTK6wLzljH2vuI/nGYE/v0MiAAAAAAqh+QEiUD7rXgjw1sqXQwCI6x0h7vE+94Ef9r0AAADAuGia9o9kCkSbBzHSAo+Em8x/H+/cpQiAPekKhn2vbixv0JOfKc+bAQAAAOqAqGYclJtYZ3ECbiTe+U+yc6oIADI0Upiw+EgkkfquN28GAAAAqANCTalvhjXzL67TArqxjTYmmqjrey3j4wqAbErCfIoR+F+CfS8AAABQPjKT7mgiHSMYb8pNupuQP4lbATBJ6zxE/Nst7vP8WdOiUFvbByv+ZgAAAIBaR2XZXVgzHwo1mZkte8cTAGrbGpsrQ83G5/x9MwAAAEAdQH75Yd243r0IyEzc+11EM8+W9ODXRrTkTHIdZAiL/lDC/KHf7wIAAACoO6IJ83siuK9m9NZLLrDvBQAAAAIATbijXL8om70N/MZuWpUA+14AAAAgQEydau5H+fuIbgx50Ou/M5Qwvur3MwIAAABAQjSe+kLGD6AcwR/2vQAAAEB1QRP0aKKeUo+fvARg3wsAAABUJzRRj4x5hBB41WXwh30vAAAAUCscrXUdQEY9IsDvlPf6zUfd7CcAAAAAgCqjIW4eGtnb4Q/2vQAAAEA9IHr6jRHNGKBVA1OmdH7A7/sBAFSW/wcO8vbWk8HifwAAAABJRU5ErkJggg==;" vertex="1" parent="1">
          <mxGeometry x="520" y="360" width="80" height="80" as="geometry" />
        </mxCell>
        <mxCell id="ugaCTf1EiENJRhi7maTh-38" value="Blockchain&lt;div&gt;Gateway&lt;/div&gt;" style="rounded=1;whiteSpace=wrap;html=1;fillColor=#99CCFF;fontFamily=Times New Roman;fontStyle=1" vertex="1" parent="1">
          <mxGeometry x="317.09" y="50" width="112.91" height="60" as="geometry" />
        </mxCell>
        <mxCell id="ugaCTf1EiENJRhi7maTh-8" value="" style="rounded=1;whiteSpace=wrap;html=1;fillColor=#99CCFF;container=0;" vertex="1" parent="1">
          <mxGeometry x="160" y="160" width="270" height="130" as="geometry" />
        </mxCell>
        <mxCell id="ugaCTf1EiENJRhi7maTh-10" value="" style="shape=image;imageAspect=0;aspect=fixed;verticalLabelPosition=bottom;verticalAlign=top;image=data:image/png,iVBORw0KGgoAAAANSUhEUgAAAgAAAAIACAYAAAD0eNT6AAAABHNCSVQICAgIfAhkiAAAAAlwSFlzAAAOxAAADsQBlSsOGwAAABl0RVh0U29mdHdhcmUAd3d3Lmlua3NjYXBlLm9yZ5vuPBoAACAASURBVHic7d13vCdVff/x1/ZlgQWkdwh1aQKioCAQmkKMJCpSNOoPC1GMGk1MNJH4iyWWX4w1CCkWmoK/oKIiXURA6UXaSu9Sd1mW7Xvzx7lX7u7eu3u/Z86cM/Od1/PxOA8f6mPu9z1lZz4zc+YckCRJkiRJkiRJkiRJkiRJkiRJkiRJkiRJkiRJkiRJkiRJkiRJkiRJkiRJkiRJkiRJkiRJkiRJkiRJkiRJkiRJkiRJkiRJkiRJkiRJkiRJkiRJkiRJkiRJkiRJkiRJkiRJkiRJkiRJkiRJkiRJkiRJkiRJkiRJkiRJkiRJkiRJkiRJkiRJkiRJkiRJkiRJkiRJkiRJkiRJkiQNGlc6gKSspgEbAOsO+98WAbOBp4HnS4SSlJ8FgNSfJgEvA/YFXgrMALYHpq9iuWeBe4G7gGuBa4DrgIW1JZUkSZWsBxwPnAfMBQYStTnAucC7gXWyrY0kSRrVeOC1wA8Id+mpLvqjtfnA2cChOVZOkiQtawJwHHAb9V/0R2s3Am8ZzCJJkmp2OHAH5S78y7dbgNfUusaSJHXYFsBPKH/BH639GNi0trWXJKmD/g/hU73SF/lVtVmDWSVJUgXTgDMpf2HvtX1nMLskSerRVsBNlL+Yx7ZbgM1TbxRJkvrZDOAhyl/Eq7ZHgd0TbxtJkvrSywnD8pa+eKdqzwJ7Jt1CkiT1mV3or4u/RYAkSauwNeGReemLdV3tMewTIDWGkwFJzbA6cDWwa82/8yjhQvz0YFs6+NvrAtsBG9X8+zcD++Gsg5IkMQ74PvXcdd8P/BvwJmCTMWRZG/gT4F+Bu2vKdFZPW0eSpD71btJeYBcSCorDCJMFxRpHuFs/A1icOKODBUmSOm1r4DnSXVh/DGxfQ85tCXfuqXLOIYxzIElSJ11ImgvqveSZovcg0r0aOC9DXkmSGuf1pLmQ/gRYJ2PutYBzEmU/MmNuSZKKmwTMpPoF9JOU+ZpnHPDpHrOO1G4HJmTOLklSMe+g+sXz47lDj+DDVF+Pt2dPLUlSAROofvf/meypR/cpqq3LXTgmiSSpA46k2gXze/kjr1SKcQwOz55akqTMziP+QvkgeTv8jdV0qn0d8JP8kSVJymcT4gfVWQIcmD3x2B1IGFo4Zt0WAetnTyxJUiYnEn+XfEaBvL06nfj1e1+BvJIkZXERcRfHxcCOBfL2amvC3XzMOl5UIK8kSbVbnTBOf8zF8fQCeWN9m7h1nAdMzR9XkqR6HUT84/FXFMgb6xXEr+fBBfJKnVRlpjBJvdk3crkHgGtTBqnZNcCdkcu2qdCRWs0CQMrnpZHL/YBwd9wm50Yut0fSFJJGZQEg5bNT5HJtnDXv0sjldkuaQpKkwsYT3wFw7QJ5q5pGGLeg13V9AYcFliT1kQ2Iu/g/VCJsIvcRt87rlQgrdY2vAKQ8Nohc7vakKfKaGbncRklTSBqRBYCUR+xj/KeTpsgrNvu0pCkkjcgCQMpjYuRyC5OmyOu5yOUsAKQMLACkPCZELrcoaYq87MwnNZgFgJTH/MjlJiVNkde6kcvFPjmQ1AMLACmP2ZHLbZE0RV6x0/taAEgZWABIeTwbudxWKUNkFvvlw5ykKSRJKmgCsIDev4lfCEwukLeqtYgfCMgbEykD/6FJeSwhblCfScCrEmfJYR/izi+/A5YmziJpBBYAUj53RS53WNIUebwycrnYbSSpRxYAUj6xU/q2sQB4Q+RybR75UJKkER1B3Nj4A8RPJVzC3sSv50EF8kqSVKvpxM8I+F8F8sY6lbh1nAesViCvJEm1u5z4i2PsZ3U5bQo8T9w6XlIgr9RZ9gGQ8vpp5HJTgX9KGaQmnwFWj1z2JymDSJLUJJsBi4m7Q15Csz8J3IO4b/8HCHMeOA2wJKmvXUx8J7lbaOb8ANOAm4hfr5/ljyxJUl7HEH+hHABOyR95lb5LtXU6Kn9kSZLymgjcR7UL5kezpx7d+6m2LjOJny5ZkqRW+QDVLppLgGOzp17Re4h/7z/Ujs+eWpKkQqYCD1C9CPib3MGH+RBh3P4q63A/zezTIElSbd5KtYvnUPsm4bVCLqsB30iU3Xf/kqTOGQ9cRZoL6U3AKzJk3oMwXn+KzBdkyCtJUiPNAOaT5oK6GPgq8JIacm4KfB1YkCjrPGC7GnJKktQaf0+ai+pQmwucDOyYINt2wJcJF+yUGd+fIJskSa02HjiftBfYAUIHvauAk4B9GNundpOBPYFPUG1gn5W1c3rbPJLqMK50AEkArAdcD2xR42/MJfS6f3jwv08jXPCfG/z/diDc8dfZofBuYC9gdo2/IUlSq+wEPEM9d91NaE8SigxJkrSc/Un/vr0J7TnCnb8kSRrFoYRH8qUv2qnaHOCgpFtIkqQ+dQDhPXnpi3fV9gTe+UuS1JNdqD5pUMl2N37rL0lSlA2ASyh/Me+1/Q+wdg3bQ5KkzhhPGCxoIeUv7KtqC4AP4ifGkiQlsztwNeUv8qO1SwlDG0uSpMTGA+8BHqH8BX+oPQwcV+dKS5KkYDXgb4DHKHfhvw94LzCl5nWVJEnLmQy8lXyvBpYQHvX/BTApw/pJkqRV2Bb4R+A6woU61UV/EaHA+Bj1zlUgSZIqWhd4I/B5Qs/8Xi/6C4AvAK8D1sycXZIkJfAEvRcATxRJKimb8aUDSJKk/CwAJEnqIAsASZI6yAJAkqQOsgCQJKmDLAAkSeogCwBJkjrIAkCSpA6yAJAkqYMsACRJ6iALAEmSOsgCQJKkDrIAkCSpgywAJEnqIAsASZI6yAJAkqQOsgCQJKmDLAAkSeogCwBJkjrIAkCSpA6yAJAkqYMsACRJ6iALAEmSOsgCQJKkDrIAkCSpgywAJEnqIAsASZI6yAJAkqQOsgCQJKmDLAAkSeogCwBJkjrIAkCSpA6yAJAkqYMsACRJ6iALAEmSOsgCQJKkDrIAkCSpgywAJEnqIAsASZI6yAJAkqQOsgCQJKmDLAAkSeogCwBJkjrIAkCSpA6yAJAkqYMsACRJ6qCJpQOIKcCOwPbADsB2wBrA9ME2oVw09Yl1Ipe5LnUQdc4S4DlgNvA88DtgJnDXYFtQLprGlQ7QQROAvYGDgYOAVxKKAEnqkvnA1cClg+3XwNKiiTrGAiCfHYFjgLcDW5WNIkmN8yjwA+BbwE2Fs3SCBUC9xgFHAB8D9i2cRZLa4lfAZ4HzSwfpZxYA9flz4CRg99JBJKmlbgD+GfhR6SD9yAIgvW2ArwOvLR1EkvrEpcCJwJ2lg/QTe5inMxH4BHAW4X2/JCmNrYF3ET5dvxIYKBunP/gEII0NgdOBQ0oHkaQ+90vgWEKnQVVgAVDdocAZwPqlg0hSRzwBHAdcUjpIm/kKoJq3AGcDa5YOIkkdsjqhAHgEuLFwltayAIj3V8ApOJqiJJUwHng98AJwVeEsrWQBEOejwJfwFYoklTSO8BrWIiCCBUDv3gp8Ay/+ktQUhwAP4euAnngR683rgHPxsb8kNc1i4EjgZ6WDtIUFwNj9EWFUqrVq+NsLCBNhXA7cTpgl60lgLjCrht+TpBzWJnTY24Aw4+nOwAHAPsDkGn5vFrAncF8Nf1sdNRm4ljD4RKq2BPg5oSfrtHyrIknFrU74iuoCwrkw5bn1N9RTXKijvkS6g3MxcBqwU9Y1kKRm2pkwkFrKQuCLWddAfetlhIt2ioPyemDvvPElqRX2AK4m3Y3WHnnjq9+MB64hzcF40uDfkySNbALwSdLcdF2N51xVcALVD8JZwMG5g0tSix0KzKb6+fdduYOrP0whfFda5eB7HNg9d3BJ6gN7EM6hVc7BDwCTcgdX+72H6nf+XvwlKd4uwDNUOxcfnz21Wm0CcDfxB9wC4NXZU0tS/zkAWEj8+XgmjnqrHryOahXnX+ePLEl962+pdk5+bf7IaqvvE3+g/RxHWJSklMYBFxF/Xj4zf2S10VqEmaViDrL5hOEuJUlpbQvMI+7c/AL1DOOuPvMO4qvMz+WPK0md8UXiz89vLZBXLXMacQfXXMKEF5KkemxI/BPabxXIq5Z5mLiD6+QSYSWpY04l7hz9QImwao8diH+8tE+BvJLUNfsRf57etkBetcRxxB1Ud5cIK0kdNA64n7hz9TH54zaXEyUsa4fI5S5KmkKSNJoB4OLIZf1KaxgLgGXFFgCXJ00hSVqZyyKXiz3H9yULgGVtF7ncLUlTSJJWJvac6xMAjep+en+ntJgwc6AkKY+phHNvr+fre0qEbSqfACxrjYhlniRM/iNJymM+YZbAXk1PHaTNLACWtWbEMnOSp5AkrUrMuTfmHN+3LABeNAmYHLHcvNRBJEmr9HzEMlMI53phATBc7Ax+S5OmkCSNRey519laB1kASJLUQRYAkiR1kAWAJEkdZAEgSVIHWQBIktRBFgCSJHWQBYAkSR1kASBJUgdZAEiS1EEWAJIkdZAFgCRJHWQBIElSB1kASJLUQRYAkiR1kAWAJEkdZAEgSVIHWQBIktRBFgCSJHWQBYAkSR1kASBJUgdZAEiS1EEWAJIkdZAFgCRJHWQBIElSB1kASJLUQRYAkiR1kAWAJEkdZAEgSVIHWQBIktRBFgCSJHWQBYAkSR1kASBJUgdZAEiS1EEWAJIkdZAFgCRJHWQBIElSB1kASJLUQRNLB5DGYBqwI7A9sCGwPuHYnQ7MB2YNtvuAe4CZwOIiSdWvJgLbEI7DzQjH4FTCsQkwm3AMPgjcC9wFPJ8/pjR2FgBqorWAw4E/BvYDZgDjelh+HnAjcCVwPvArYFHijOpvk4ADgUOBfYG9gMk9LL8EuAP4NfBz4CLgubQRJaUyGRiIaDeWCNuHJgFvBH4KLCBuX4zWngFOBl6ZbW3UVq8C/ptwzKQ8BhcAPwT+nHCsq7obidsXvRRy6ggLgDLWAD4KPEbaE+5o7RrgKOz/oheNB44GbiLPMfgg8BFgzRwr18csAJSMBUBeE4EPAE+R56S7fLsZeE3ta6mmOxy4jTLH4BPAifhEIJYFgJKxAMjnVZQ76S7ffgRsUu/qqoE2A86j/PE3APwW2Lve1e1LFgBKxgKgfpOAzxF66Jc+6Q5vzwLH1rjeapbjCPu89HE3vC0m/NuwY/bYWQAoGQuAem0EXEH5E+3K2tfx5NDPJhH2cenjbGXtl8DGdW2APmMBUFGXq81NCZ+X7TTsP1WPXQifQm1aOsgqnEj4zvsN+MlWv1mL8LrngNJBVuHVhE8HDwduL5ylX11E2La3Ez7VvAN4pGgi1W5T4O3AaaTtce4TgJXbG3ia8ndWvbSbgPXq2BgqYgPgesofV720Z7BfwKrEPgEYqT0KfBd4G/YJ6gvjCIPIfJVQ6dX1D9UCYHQvJf331LnazcC66TeJMlsLuIHyx1NMm0UYgEgjS1kALN9uA75CGARKLbI58A+E4WBz/CO9Nc9qtc72hM+cSp9Eq7QrCcO9qp2mEfZh6eOoSnuSMASxVnQrefbBXcDHCV+OqIHGE0aRu5AwBGfOf6APZ1i/tplOeK9W+uSZop1Ob8MQqzlOp/zxk6LdTniSoWU9TN79sAS4gNBHyIHEGmAC4ZOe31LuH+es2teyXcYB51L+pJmyvT/pFlIOH6T8cZOy/SDt5ukLsyi3P24FjqHlhUBb72wmEi78/0B41FzSXMJwtgreDZxaw999FrgauJZQ+T9DmIFtAmGGwO2BPQi9qKcn/u35wCvwdU9b7AJcB0xJ/HfnEzoTXgXcTzgGnx78/9YDtgZ2JXxpUMenfO8B/qOGv9tWzwOrF85wJ/AZ4CzCEwLV7GDCO5nSFflQm13v6rbKloTP51Jt2znAfxJGDhxrsTqR8AnVWYQZAFNluYaWV/sdMZG0Pf4XEyaoeiO9FRR7AV8m7V3qczT/U9qcZlP+/D/UbifMXqqabEj4TGMp5Xf28PZonSvdMueQZpvOB75A9feeWwHfIt0x876KeVS/95Hu3/a5wHYV86wFnER4Upgi0zkV8/STXBOI9dLOJnx2qkTGA++leUN3DjUH6wgOIM32vIL0vZ73A+5NkO1JnMGtydYhzeRSDwOHJM62JXBJgmwDhCdiqvfz7irtGcLrGp8YVrQJcDnld+jKmuMABL+g+rb8EvXNjLY24VFu1Ywn1ZRP1X2S6vv3Euq7g5sAfDpBxstqytc2dY4DkKJdhsM6RzsU+D3ld+KqmgVA6HhXdTt+IEPOicB3KuZ8mvB9uZplOtUHnTqHPMOj/yXVX0vtkyFn0zW9ABgAHgcOqmsD9KMJhEo+9/f8sc0CoPq7/49nzDo+Qd73ZMyrsan67v8C0n81sDInVsx7ZsasTdWGAmCA0JH0E/hKYJVeQpioofQO66V1vQDYAFhA/PY7LX9kVgNuicw7QOhlrmapMtzvnZT5nOw/I/MOEP7NdX2o6rYUAEPtAsKrSI1gE/IN7TjU7gL+HTiB8Jgm5m90vQCocidzL+m/2R+rGYSvDWKz75A/skaxM/H7cSHlxtufRig+YrOfkD9yo8QWAAcTtt3J5P+k/GbsF7CC7YD7qH/jzyF8H348sMVyGSZH/s2uFwAXE78/Di2Qd7gqHbL+sUBejewfiN+Pny2Qd7hDic9+cYG8TRJbAExe7u9sCbwT+B5hcKG6r0P34PwOf7ALYS7mOjf4dYT3tiv7hMsCoHdrEu6gYrbbLwvkXd7qhE/7YvJfXiCvRnYVcftwNuG1Y2k/Jy7/PMLrrK5KVQAMtxpwFOFVdJ1jzjxOGLm0015JfeM5zwO+xtgrLQuA3lW5ezm4QN6R/BNx+Rfg1wBNMI34PiifLpB3JAcQ/+8o9XgFbVJHATDctsDXCdeSOq5Rs4C941a9/bajnuli5wOn0PuQmRYAvYu9eN5Hc+ah2Jz4L04ckKW8/Yk/V/xRgbyjiZ2+POcXNE1TdwEwZAPgc6QbzXF4ewrYscc8yZT6LGFTwvur9RP+zQHgvwnv9k8gvFZQvXaJXO4HhP3VBA8RHiHH6PwjvAaIPQavJ3RCbYrvRy63e9IUGskTwN8TCsZvkfbctS5wPqETfHYlCoC1CCOyLd8Jr4qZhMfR7yTsLOWxU+RyP06aorrYzlTFKnf9Qb8cg5dELjcjaQqtzO8JHcj3B25L+He3InwiuE7Cv9lIUwidv1I9PllIeASWYvhYXwH0bg69b6+llPv0bzSHEbfvf1girJZxHnH77vUlwq7EasS9ippVImxD5HoFMJLJhC+BYjtBj9QuS5Stsb5Kuo31ELBvwmwWAL1Znbjt9UCJsKuwFXHrck2BrFrWb4jbd038DCt2wqoSgxg1QckCYMjLSfsJ+78mzNYoryPdZxUXE6YHTskCoDebEbe9rigRdhUmEbcuzgRZXmznubomnariCuLWJfW5sC2aUAAArAf8LDLL8m0pcGTifKPK1QdgS+C7pOn5/XlenChI5cSeQBcmTZHGIsLXI73yM8DyYo7DpYR93jRzIpfzOCzrKcIN7hcT/K1xwH8Rvk6qXY4CYCJwBtU7OAwAf0fojTlQNZQqmxC5XBNPvOOImwVuSeog6lnMcdjEYxDii+rFSVMoxlLgo8CHqH59Whc4mwxPqXIUAJ+g+rv6xYQe/l+oHkeJPB+5XBMnw1iHuALgudRB1LO5EctMoZnvzWM/i/Y4bI6vAO+i+s3BPoSb3VbbjmoTrgwQNuQxGbLaB6A3qxG3vZr46mZ74talCcMZd93VxO272M8H6/Qwce+MY5/GtV1T+gCM5FiqT2n/AjUPVlX3E4AvU32O7Y8QJmlQs8wjjKXeq/Vp3meAsYOpPJk0hWI8HrnctklTVLcBcYPBPIOvoproLOCvKv6N1YBvJMgyqjoLgDcAR1T8G/9CKCLUTPdFLDOOMJBGk8QO6Xtn0hSKEXMMQjOPwZhO0nelDqJk/p3qr61fC/xpgiwjqqsAmAb8W8W/cQZhmk8118zI5Q5LmqK6P45czpNvebHH4GuSpqjuwMjlPAab7e+p/gT7K7Rs1sdPUO3dxx3k76RjH4De/S1x2+xB4jrd1WFP4o/TlxXIq2XtRdy+W0pzhnKeTPzEaB8pkLcpmtwHYLg1CIValWvixzJnjlZljvUBwrvlEhNcWAD07gDi9/PRBfKO5BvE5Z9Fc4qYLptM/HStJxfIO5KjiP93tFeBvE3RlgIAYFdCp77Y/fwUoZBovI9QrdL5y/yRAQuAGFOImw9ggDCEa+kpgTcjforPpk0m02UXErcP55J2RtIY44m/kD1Ld78AgHYVAADv7yHjSO2D+SP3ZgphGt7YFbwwf+Q/sACI8yPi9/fbC+Qd7jTis3+gQF6NbGjwlZj27fxxl3E88dn/f4G8TdK2AgDCrI+x+/shGj5Z0AnEr9wCyr6TswCI8zbi9/mThHG0SziI+LkpFgEb54+sUWxJ/DfXSwnHQgkbET5jjP33c1T+yI3SxgJgBtVmEHxX/shjMw74HfEr9tn8kZdhARBndcJIZLH7/VLy/4PcnPhOVwOEiT/ULJcRvz8fIdPY68NMBH5RIfMsWtYzvAZtLAAgfBoYu9/vovyr0xHtT/xKPUD5oTktAOL9B/H7fgA4NWPW6YRpfKvkbUoHRr3oLVTbpzeSr5PVOEIHxCp5/z1T1iZrawGwBnGjPg61/fJHXrUqF4ETCuRdngVAvBlUn+r5y9TfoeklVL/43429/5toEuHz0ir79nLCMVKn8cApFXMuonkjGZbQ1gIA4ETi9/83C+RdqamEHqkxK/PY4PKlWQBU80OqndQGBv9GXU+CdgRuSZCxse/gVKkz4FC7E9impnxrA+ckyHhaTfnaps0FwFTgUeLyP0P1IfaTejPxB3NTBrKwAKhmZ8KsjVVPbr8DDk6Yaxzh09LYz/2Gt7tpxslDI5tKGBq46n6eTbhDSzlS6v7A/QmyLaQ5AxiV1uYCAML09rHHwRsK5B3Vj4lbiadpzuAGFgDVVX20OdSWEoaC3qVintcB1yfKNAAcXjGP6ncs6fb3rwlDBlfpdLUr4XO9qq/IhtrnK2TpN20vANYk3M3HrMO5BfKOaCrxI3F9pUDe0VgAVPcSwiudVCfgpcBFhA5eG4wxwzaEyjr25DBa6/o3123yc9Lu+9sJg7BsP8bfX5fwff/5VJ8Sdnh7kPKdpZuk7QUAwNeJW4d5JHh1nuJzgoOBiyOXfTlwXYIMKUwmjEXQq5uAPRJnabM/o57qdAC4GbiN8NXII4ROg9OAtQhPC3YBtq7ht58g7ONHa/jbSm9LQn+POqadvh+4gXAM3k/okDed8E52BuFV2AzSdxRdSngCVXKwtKa5kbhh46cQXqU0wT7A1ZHLHkjouFrUp4mrYJo2i5VPANL5GmnvwEq2JTRv5jit2pGke+zehPaptJunL/TDEwAIHU9j1uOTBbKu4Eriwn+8RNiVsABIZzKhqi190kzR/m/ibaN8/pXyx0+KdgndHvN/NP1SAJxE3HoUv/tfg/hhDWcUyLsyFgBprUd8ZduUdjoNHXVLYzKeNJ/dlWy3Auuk3jB9ol8KgF2JW48FhFegxRw2QqixtMdo3onVAiC9bQgTWJQ+ica0n+CAP/1gNapNwFKy3Qdskn6T9I1+KQDGET80+SFVfrjqd66xc1FfRgiv/nYPYdjKe0sH6dEPCROtLC4dRJXNA44AzisdpEd3AAdgx9MuGCDMCxFjzyo/XLUA2DVyucsq/q7a4wHCICg3lA4yRicDbyJcONQfFhAKuu+WDjJGVxMK5wdLB1E2sdfE2GtwErcS99iiae//wVcAdVsd+D7lH6uO1uYRRgxUf/s7wqd7pY+30do3acbQ6G3QL68AIHw+2rrrz/OjhFpZW0iYuKNpLADyeDdphuVN2e4i7ntitdOrSDNkcMo2GzimzpXuQ/1UAEwirkP9cyXCQhiZLWbj31Ei7BhYAOSzNfBTyp90FxJGo3R0te6ZRviOOvYrppTtPGCLWte2P/VTAQAwk7j1qXsGyxHtFRn2RyXCjoEFQH6vJ80Mfb22JYShfberfxXVcLsRLsAlLvzXUbEXd8f1WwEQexxW6ggY608iw36hRNgxsAAoYzxhNsmrqP+Euwg4k+qTDKn/7AOcTZ7+AVfgxFIp9FsBEDtw1WtLhH1bZNgPlQg7BhYA5b0M+DLx82SP1q4nHHcb5lsVtdTmhFFKUz+Zegj4F2CnfKvS9/qtAPgIcevzltgfrDLQSezoVM9X+E31t+sH24cJj7UOBl5NmIhnrAOiLCKMO/Ab4NLB9lDypOpXDwGfHWzbEI7BAwnF6baM/dPpBwmTV11COAZ/SzhZS6OJ7dAX3QegSgEQOwThnAq/qW5YSng/eh0vzn++HrAVsCnhTn4i4Rh8DphFKCzvIVz8F+WNqz51z2A7dfC/r0E4BrcANiIcg+vw4vE3B3iY8FXJ3MxZ1X6xN8erxf5glQIg9jGKBYBiPDXYmjJ9tLrnecKd/G9LB1Ffir02Ton9wSojAcZ+y29lLEnSsmKfAET3aahSACyJXK6pHTAkSSol9toYey2uVAAsjFxuzQq/KUlSP4q9Ni6I/cEqBUDsj1oASJK0rFYVALMjl1ujwm9KktSPYguAWbE/WKUAeDpyuSLjFkuS1GCx18ZnYn+wSgHwVORy21b4TUmS+lHstTH2WlypAHgkcrntK/ymJEn9aIfI5aJHOq1SADxI3OcHO1b4TUmS+lHM7KSLib8Zr1QALCJM2tKrtYENKvyuJEn9ZCPCtbFXDxGKgChVCgCA2yOX26vi70qS1C9eEbncHVV+tGoBcGvkcn9c8XclSeoXsdfE2GswUL0AuCVyuYMq/q4kSf2ilQXAryKX250wjaYkSV22LrBr5LKx12CgegFwH3B/5O8eWvG3JUlqu8OIuxbfCzxQ5YerFgAAl0Uud1yC35Ykqc3eGrncpVV/uGQBcASwXoLflySpjdYn/ml47LX3D1IUAJdELjcJODrB70uS1EbH41t5eQAADaxJREFUEq6FMX5R9cdTFACPEj8ewDsS/L4kSW309sjlbiVuIL5lpCgAAM6KXG4vHBNAktQ9hwB7Ri57ZsogVW1JmBdgIKJdWCDvSCYTl//GEmElqeNuJO6cPblE2BFcSlz+JcDmBfKu1OXErcwA8MoCeZdnASBJ7dHmAmBv4q+XlXv/D0n1CgDgtArLfixZCkmSmu2fKixb5Vpbm7WAecRXNa/NH3kZPgGQpPZo6xOAPyEu9wDwAjA9VZCUTwBmA9+psPzXgKmJskiS1DRTgC9VWP5bwHOJsiT3R8Ai4qubf8wf+Q98AiBJ7dHGJwCfHCXTWNpCYOvsiXt0OvErOBfYIX9kwAJAktqkbQXADMIj/NjrY5Un7NnMIP6TwAHCAAerZU9tASBJbdKmAmAqcFNk3gHCNXXn7KkjnUv8ig4A38gf2QJAklqkTQXAKZFZh9o5+SPH25VqfQEGgDdlzmwBIEnt0ZYC4OjInENtIS26+x/yb1Rb6bnkHSDIAkCS2qMNBcDLgTmROYfaFzLmTWZN4BGqrfiT5OsUaAEgSe3R9AJgG+DxyIxD7TESfvef21uptvIDwL3ARhmyWgBIUns0uQBYH5gZmW94OzpD1tqMI8xZXHUj3AxsXHNWCwBJao+mFgAbA7dEZhveLq45ZxbbEUYuqrox7iE8UqmLBYAktUcTC4BtCdeqqte7WYSB9frCm6m+QQYI71N2rymjBYAktUfTCoBdqN7vbagdV1PGYv6TNBtmFvBnNeSzAJCk9mhSAfAGwnw4Ka5x36whX3FVR0Javp1C2h1pASBJ7dGEAmAi8DlgaWSW5VupkXCz2Jnq30QOb1cBWyTKZgEgSe1RugDYCvh1ZIaR2mxgx0TZGusgYD7pNtpcwgxLVXeqBYAktUepAmAi8EHSdG4faguBwyrmao1jqTZh0EjtZqqNHGgBIEntUaIAeBlwbeTvjtaWAm+rkKmV/pa0G3GAUFScQZiRsFcWAJLUHjkLgJ2AM0l/4zoAfDgiT1/4Euk35lAh8D3CZxljZQEgSe2RowDYFfg+9Vz4B4D/F7HefWMcYQPUsWGHCoELCK8cpq4iiwWAJLVHXQXAaoTv8C8gXe/+kdrnCdfAzvs76t3QA8CzhO8rD2TkA8ACQJLaI2UBMJlwbTiFMNZMndeipcDfpNkE/eOdwGLq3fBD7Xngp8CHCI94JmIBIEltUqUAmAjsBvw18DPCNSHHtWcR8I4atkVf+DPgBfLsiOFtAfDbyGUtACQpv9gC4DbCOT/3dWYu8PpatkQfeSlwF/l3TmyzAJCk/GILgBLtTsLT5kYZXzrACG4GXg6cXTqIJEkVnUW4pt1aOkjbvJ+0owb6BECS+kPTnwDMB95b29p3xJ7A9ZTfmaO1m+pbdUnSKG6m/Pl/tHYt9U1d3zkTgA+QbrrFlO3++lZbkjSKByh//l++zSI8uZ5Q43p31iaEvgGld/Lw9nStayxJGskzlD//D29nARvXusYC4BDgSsrv8AHC9MaSpLxSTi1fpV1BmOVWme0HXEzZnT+79rWUJC0v5XS8Me1XwJ/WvpZapQMIhUDdwwmP1J7IsH6SpGU9Qf7z/VLgQmD/DOunHm0LfIq8nUNmZlkzSdJwM8l3nr8f+GdgmxwrpmrGE/oJnEb9Yzw7DoAk5Vf3OABzgO8S3u83cdA8jcFkwiuCTwFXk37CIQsAScovdQGwCLiKcKe/PzAp36qU0cW5iNcmTPu4F7AjsDPhsU7szr4J2CNJMknSWN1I/GA7i4C7gdsJ4/RfC/wCO3V30iTCJEQ+AZCkdoh9ArAbHbi7HwvfawSLgDtKh5Ak1e5Owjm/8ywAJEnqIAsASZI6yAJAkqQOsgCQJKmDLAAkSeqgiaUDSA03GfgL4I2EcSPWLhtHqzCb0Mv7XODbwMKiaSS1wmQcB0DL2gW4i3qHG7XV1+4mjO+h/hQ7DsDkEmGbyFcA0sh2JMzzvX3pIIq2DfBLQiEnaTkWANKKxgNn4OP+fjAdOBOYUDqI1DQWANKKDgf2LB1CyewKHFk6hNQ0FgDSiv60dAAl5z6VlmMBIK1om9IBlJz7VFqOBYC0oqWlAyi5gdIBpKaxAJBWdE/pAEru7tIBpKaxAJBW9KPSAZSc+1RajgWAtKILgV+XDqFkbgB+UjqE1DQWANKKBoC3AE+VDqLKngWOxX4d0gosAKSR3QvsC9xSOoii3UbYhzNLB5GayMmApNHNJAwI9GbgTYThgTfEwrmpBoDHCfM3/A/wPWBx0USSWsHJgCSpPZwMqCLvZCRJ6iALAEmSOsgCQJKkDrIAkCSpgywAJEnqIAsASZI6yAJAkqQOsgCQJKmDLAAkSeogCwBJkjrIAkCSpA6yAJAkqYMsACRJ6iALAEmSOsgCQJKkDrIAkCSpgywAJEnqIAsASZI6yAJAkqQOsgCQJKmDLAAkSeogCwBJkjrIAkCSpA6yAJAkqYMsACRJ6iALgBctApZGLDc5dRBJ0ipNjVhmKeFcLywAhhsA5kYst0bqIJKkVZoescwcwrleWAAsb07EMi8BxqUOIkka1ThgnYjlYs7xfcsCYFkxB8cawMapg0iSRrUZsFrEcs+lDtJmFgDLuj9yuR1ThpAkrVTsOff+lCHazgJgWTMjl9s3aQpJ0srsF7ncXUlTtJwFwLLujFzuoKQpJEkrE3vOjb3JUwccQOgh2mtbCGxQIK8kdc3GwGLiztWvLpBXLTEVmEfcgfXBAnklqWs+Qtw5ei4wpUBetcilxB1cd+ArFUmq0wTCe/yYc/RFBfI2mhesFV0WudyOwJ+nDCJJWsZRwPaRy16aMoj6027EVZcDwO3ApPyRJanvTSZ01I49P++UP7La6CbiD7KPFsgrSf3u48Sfl68rkFct9WHiD7S5wC75I0tS39oNeIH48/KH8kdWW20EzKfaqwAnCZKk6tak2qP/efiZtnr0TeIPuAHgYpwqWJKqmAScT7Vz8dezp1brbU2YN7rKgXcGMDF3cEnqAxOBM6l2Dl4IbJk7uPrDt6l28A0APyZu1ipJ6qppwHlUP//+V+7g6h8bAbOofhDeAGybObsktdFWwG+oft6dDWySN7r6TZUvAoa3WcDxwLi88SWpFcYD7yJcuFOccz+QN7760UTgZtIckAPAlcCrsq6BJDXbvsDVpDvP3kAYNliqbGfC9/2pDs4B4BLg9ThyoKRumkQ4B8bOvzJaex6YkXE91AHHk/YgHWpPAKcAbwY2zLY2kpTfhsDRwKnAk9RzTn17trVpOd9H9+bb1H9wPU2Y7er3wHPAgpp/r989AdxG+JZ4duEsY7UOcAThLmb9xH97AfAo4a7rWsIJsw1eChwCbE76r2rmE7bJJcD1tGeb7E7YJpvR3C+NpgDTCR2qtwfWrfn3/ht4Z82/oY6aDFxIPVWrrd42mzBPQ5NnwJwAnER4hJljm/wG2CPLmsXbgXBhznWcXE0oNppsBvALyv+balr7Ob5SVc3W5MU7J1v72vdpZhEwkTBmRO7tMRd4TYb1i/EK4Fnyb5PnCXfWTfQq0nya3G/tGhx+XZmsT+hlWvqgt8W1k1bcpcV9nnLbYxawRf2r2JN1CI/lS22TZwiP1ptkPcKrwdL/fprWrif9qzJppaaT99GkLV2bS7M6XG5BeDdfcps0bcS0z1L+ODml9rXszRcpv02a1i4mPJWVspsCfI/y/whsvbcTRtifpaQabKpKm004npvifspvk2dpzjvlccAjlN8mTWpn4IRrlTTxXWibLACOIVxM7K3fLk3q/LZn6QCEJ1rblA4xaF2aMYHL2oRJwZpgQxzWdsgC4EPAWwiT/SiSBUAapwL7AfeWDqIxW6t0gGGa0nlpeukAg5r0SNdt0ix3E0YN/ErpIP3AAiCd64BdCe8urUqb79HSAYZ5vHSAQY+VDjDo98DS0iEGNWWbPE547N1VC4DPALsROv1JjbUjcAHl35HZRm+vG3Xv5Xc05bfH3bWvZW+upPw2mVn7WvbmGspvkxLtfMJ4EFKr7AGcTbibKf2PyPZiu4vmdO4CmAo8QNlt8sHa17I3x1L+ODmx9rXszdsov01ytouAfZJsOamglwJfo76xr21jbwuBA1e6t8o4AlhCmW1yFc3rTT0O+CnljpMraFaRCOGVbb8/WXwS+CrhUb/UVyYDRwLfxU96SrS5wFGr3EvlvI0wLn3ObXIVsEGOlYswnTC8a+7j5FeEQXeaaC3CnXHpf0sp28PAd3B2VHXMDOB9wDcJk7OUHPmsn9tcwjfD241ttxS1E3AO8AL1bpO7CY/9m3bnv7wJhMldfkv9x8lM4K9o/kVoIvAe4HbK/9vqtQ1NRHUy8F5CfykV4myAzbM64c5nOuHTn7XLxmm1pYQe5fcC8wpn6dXqhG/QNyTtv9N5wEPAgwn/Zi4bA1sRtk1KLxC2yUOJ/24OmxDGTEi9TVKZRZjVdM7gf84tG0eSJEmSJEmSJEmSJEmSJEmSJEmSJEmSJEmSJEmSJEmSJEmSJEmSJEmSJEmSJEmSJEmSJEmSJEmSJEmSJEmSJEmSJEmSJEmSJEmSJEmSJEmSJEmSJEmSJEmSJEmSJEmSJEmSJEmSJEmSJEmSJEmSJEmSJEmSJEmSJEmSJEmSJEmSJEmSJEmSJEmSJEmSJEmSJEmSJEmSJEmSpBH9Lwkyl6vYryCXAAAAAElFTkSuQmCC;container=0;" vertex="1" parent="1">
          <mxGeometry x="179.3932558139535" y="183.5037931034483" width="71.91438763376932" height="71.91438763376932" as="geometry" />
        </mxCell>
        <mxCell id="ugaCTf1EiENJRhi7maTh-11" value="&lt;font style=&quot;font-size: 12px;&quot;&gt;Producer&lt;/font&gt;" style="text;strokeColor=none;align=center;fillColor=none;html=1;verticalAlign=middle;whiteSpace=wrap;rounded=0;container=0;fontFamily=Times New Roman;fontStyle=1" vertex="1" parent="1">
          <mxGeometry x="159.99946976744184" y="265.4955172413793" width="110.69767441860466" height="6.206896551724138" as="geometry" />
        </mxCell>
        <mxCell id="ugaCTf1EiENJRhi7maTh-12" value="" style="shape=image;imageAspect=0;aspect=fixed;verticalLabelPosition=bottom;verticalAlign=top;image=data:image/png,iVBORw0KGgoAAAANSUhEUgAAAoAAAAFoCAYAAADHMkpRAABOfklEQVR4XuzdB3gUx90/cGE7dmzHsdOdvE7y2uYOA7qT7tS7EAIhIRCi9947ovduU0zvvZreezdgem8ChGhCoqj3LvH776zj/+vsHEJ3utPenr7zPJ8nyS9odtVmv9rdmbEjIjsAAAAAqDi4AgAAAADYNq4AAAAAALaNKwAAAACAbeMKAAAAAGDbuAIAAAAA2DauAAAAAAC2jSsAANiCJ8+e2c1btuzjhUuX/0PwvwuWLFMzC5cs+1r43/9cuHTpn7fu2/eu9OMAACoCrgAAoERjJ075S7su3esI+goW1G/aYl9lre6UWqu/KLii1uivi7S6a8L/viz85zmdt99h4d9uaNelxyThP5sJ7G9H3n1f2jcAgK3hCgAA1qywsNDu6vUbn125fv2b4LDwsGo6lyWC20KoyxFCXZFKqy8WvFb/jN5C/Hc/f4yuSAiIhd84OicJ/e0S9F+1dp3H1evX/xEX9/w30vMAAFAyrgAAYI0ePXr8zqIlK76cOW9B6ypa/SohsN0VgluBgVBnNkL/KUKoPNCyXacRC5ctr7Ft254PpecFAKBEXAEAwNoMHz3hi3qNmk1Sa/QXhVCWLA1q5SBPOO5jvbvvlnZdegZdvX7zA+k5AgAoCVcAALAGkXfv/3bh0mUu1Zxc5qrFO3H6YnXpHuta0muVRl9QVedytU54eONr12/8LTU17R3puQMAWDuuAAAgpwcPHlVavHTVNy7eAePUWt0jFroMBDEroMuqbK/bNnDYyMZbt+75rfTzAACwZlwBAEAunTp3/iC0YbPuanv9BbVGl8eHLqtTLJznS0cXn2VNW7T65vTp09znBABgjbgCAEB5ys/Pt7t+8+ZnvftFhKjtHc+oNPpCtdXe9TNMOOdilb3uZTVH529PnznzdWxcHNYXBACrxhUAAMrLsbNn35k+Z66XSuu4XK3VJUmDlTI5nm3aqk3HhavX/DUrJ4f7nAEArAFXAAAoD2fOnf+rV+3gUSqtPlIITkV8kFIsdvcy+WtHp32DR472ln7eAADWgCsAAFhKUnJypRu3bv/VPzikfXW9a5QQlBT3uNcIr6s4OKVrXNyXLVq23OleVBR2GAEAq8EVAAAsYeOmTR/2jhgUVlnjuFUIR7kGApOtYgH3gYuP37BlK1d9GR0dzX1tAADKG1cAADC3pavXfGnv5LpYCEJxao24np80JNk+jS5brXE8Ua9xsxZJySnYWg4AZMUVAADM4dmzZ+8cOnrsK62L56iqOpdnKtt6z89UbN/hfK2Lx/7eAwb53Lxz5xM2C1r6tQMAsDSuAABQFokZGXZzt2z9c4PGTVurNLqf1D/v4CENQhUdC4IvvtY6zp42b75+/7Vr3NcRAMCSuAIAQFl07Rfh+W9n9+1CyElkQcdA+IH/U1jZQX/dNbR+nzPnzn8m/VoCAFgKVwAAMNa9e/ffnzl3nsbR3XO2EGrS1bjrZwwWkgvsnd2vBgQHN7oTGfmHlJQU7msMAGBOXAEAoLSuXr1qt3jpsi8cnV0Hq7W6u2oEv7LKUts7ruoXMTBw6dKlWDYGACyGKwAAlEZMbOz7gXXrNfyqqv0hcYYrH2bANIVCmH4sfF2nL1215u/SrzsAgDlwBQCAN8nJybW7E3n/4049ero4uHruUWl1uUJYwV0/C1AJQbCa3uWB3tO7z5FjJ7549uwF9/0AADAVVwAAeJNpM+Y6fF3VZaoQTmLVmOBRXgpV9vpDdcNaN7h77/6n0u8JAIApuAIAgNSRo8d/36PvgK5VHZ2vCYEk30BIAct6rdLqXtRt2GTNwKEjtdLvDwCAsbgCAACTnJxsd+/+/U/da9RsoHF2P6vWsMe9uOsnJ5VGxxbTTnLy8h03c/4C1YPo6Pek3zcAgNLgCgAA8QkJ7/fs08+nila/SK3RY4KH9SkUXNW7ufc8/uPJv0i/fwAAb8MVAKBim7dwyZ9adeg8Va3RPfhP0JCGD7Ae6V41Arf36j8gMObZM9wNBIBS4woAUPE8evXKbue+/X/X+fh2rqZziRSCRYGBsAFWic3C1mXo3H3WdezTp9qdO5G/zc7O5r7HAAC/xhUAoGK5cev2Jy5t2gZX1uoPCYEijw8YoBCv1Rr9w7//+8tRk6dOU0u/zwAAv8YVAKDi6B0RYV8nrNESlVaHZV1sR04VB6dzvfsPbHbk2LGPpN9zAACGKwCA7Xr9+rXdnTt33ps6ffq/3Xz8h6q1ukS24LCBEAFKpmF3A3WZGhePQz7+ATXv3Y/6OD4+nvt5AICKiysAgO06ePjoH//yjy+6CyHhghrv+VUIKo0+7d+qatNat2/vFJ+Q8BvpzwQAVExcAQBsz72oqPf6DBzk5+pbY7MQCtKlIQFsXr5aq7vVumPnUQsWLP1Y+vMBABUPVwAA25GYlPRBs5a9VXpP35VCAEjGvr0VGnssnFdN73rJ1cun6e49e/8k/XkBgIqDKwCA8hUWFtqt37j56w7deg5RafVRBsIAVGxZao1+m/Az4nfz1u0PpT8/AGD7uAIAKNuu/fvf7x0xqJFwgT8jXuj5iz/AzzT66JAGjb7v13/YV8XFxdzPEgDYLq4AAMr08NGjj2oH1/XVunruFi7uaWos6wJvx35GCoQgGOsdULv7nLnzPs/Ozn5H+rMFALaHKwCAssTGxb23YfMWB7/aId8JF/NkAxd5gLfT6PNVGv3xCd9Na3X46PHfSX/OAMC2cAUAUI4pc+b8rkW7DoPVGt1VdgHnLuoAxkt08a6xst+w4U53o6IqSX/mAMA2cAUAsG5FRUV2q9es/Uyjc65fVedyXq3V5arxuBfMq0il1b9w9vabEVQn+F9JycnvSX8OAUDZuAIAWK+r16+/v3LNOl+VRrdBjfX8oHxc79CtZ48Nm7d9UVBQwP1MAoAycQUAsD4ZmZl2vYYN/3et0LBv1RodlnWB8pZW2V5/uNegwUHb9u9/V/rzCQDKwxUAwHpkZWW907dfvz87efp2Vmn1D1UaHXvPD497QQ6vhZ/BRAc3zzVVqlV3jnoQ/YH05xUAlIMrAIB1OHjwyCejxk1oqtboDgoX3zwDF2QAmehe+NQKHrFx6w71s7jnWDYGQIG4AgDI68qVK5UiBg1x0Lv5LBcutq/UuOMHVkil0edW1uh/atGuc7eZM2fibiCAwnAFAJBHUlLyu9eu3/yXs5ffZJVGF6PW6AqlF10AK/NardFnVdM5H5rw7ZQaT2JifsdmqUt/tgHA+nAFAChf2dnZdlu37fp7i7YdOwkX06sGLrIA1k+jT6qsdVy8cs16l2vXbmKiCICV4woAUH727NlTqXfEoNpVNE57hYtoqhqPe0HZitUa3c2g0PBhY8eN/zwzM5P7mQcA68AVAMDy4p6/eH/dxs0Ojm5eS9UafYJ44eQvpgAKpBP+iNHlVHFwutGkZZsmMc9iP8vKysaOIgBWhisAgOU8iomptHXnrq+dPf2HCxfLp/zFE8Cm5Ah/4GwZNW5iyMGDxz+U/j4AgHy4AgBYxoCIiA+btm3fXuWgP67Gsi5QcbC72zGOrr6ze/Xtrzpz5gz3uwEA5Y8rAID5sK2znsXGfTRszHgPlb3DAbVWl/GfC6L0Iglg01QafUHlag73XDx9Bl6/efPz5JQUrB8IICOuAADmcfby5XcWLVvhUtleP1e4ACZKL4gAFZfjqeZt2zfZsmfvnzKzs7nfHQCwPK4AAGUTFxdn171nr7/6BtcdoNLqrwsXvCL+AghQobHZ7glfOzptGDVhoqf0dwgALI8rAIBpMjOzKsU+f/5JUFijhl9X01xUa3XZ/7nQSS9+APCzoqo6lzj/OiFT1m/apHrx8uV70t8rALAMrgAAxtu//8CHEcNGB1a2169TafT5Bi50APBm7A+le3ov7947du3+nydPnnC/YwBgXlwBAIyzbsPG/9XonWepNfrHakzwADCdRpet1jjubtamfXh8YuL70t81ADAfrgAAb5ecnFLp3IWLn9cICent4OpxW63V4a4fgHkUq7T6FJ/AOhuGjx6nef7ixQdsNr30dxAAyoYrAMCbpaWl2e3bf+CP4Y1bh6k1+pPsYmXgAgYAZfdaCIJxX2sdJy5csdL+ZGQk9/sIAKbjCgDwZv0HD/WopnNerdboXv285RV30QIA8yqo7KA/79awSadzFy59Jv2dBADTcAUA+G8vX8W/t2zlmv+tGVJ/XBUHp+cqrb7QwEUKACyH/bGV4eYbcDSsSdPAly9ffpSVlcX9rgJA6XEFAPjZ7du37bbt2PV5Na1nL+Hic1uNx70A1iBHrXGcP3jYcI+tW7dhogiAibgCAJBdTMyzD0LDGoZ++Y39NhWbmchfhABAPoVqre7uvytXGb92w6a/SX9/AeDtuAJARZVfUGD3Mj7h/f5Dhqh8atX5Qa3RJamxiweA1VJp9bkObp4Xa4XWb3n+4qU/pqSkcb/XAGAYVwCoqGYvWlztK53zGOHCEqvGDh4ASlKg0uj31Q1rWzP60aNPpL/bAMDjCgAVzfFTp38/cvzENmoH/XnhQpJn4OICANbvtUqri2ncqs288ZO+00h/zwHgv3EFgIqAzSCMT0j4bWC9ev6uPv77VVp9KruAGLioAICy5FfROj2pXa9B32Vr1vwtMTHxHenvPwAgAEIFlJiU9H7vfgOcVRrdTLVGn2vgAgIAyseWa7rgoHduy94PlI4DABUdVwCwZctWrvlT1979xqq0+tuCAgMXDQCwJRpdmk9g0OoxEyb6PY2JeU86JgBUVFwBwNakp6fbnTx56tPgemGNNS4e51RsHTHpRQIAbJiOLRvz3K92yPx+w4f/Iz4+/r38/HxurACoSLgCgC25FxX1ccMmTf2Ei8BeNSZ4AFR0r9Ua/YPP//W//afPmPWldLwAqEi4AoAtKCgosBs94btvwpq2mCEM+k8MXAgAoOLKVml0J8ZMnFz/+MmTv5WOHwAVAVcAULL8/PxKK1eu+l3d8EatVcJf+mrc9QOANxBC4CtX34DlTl26Vk1JTcVsYahQuAKAUh09erTS97PmeggD+1YBZvcCQGk9rx0W3mbX7j1/fPnyJTe2ANgirgCgRAeOHXuvuqO+uTCQ3xQUGxjgAQBKkvzPylUWdO3W/auioiJujAGwNVwBQEmKi1/bHT3x4x9cfGqMVGl1Lw0M6gAApaJir4xodBf6RAyplp2Tg0fCYNO4AoCSHDtx8p+Vtfr1aqzpBwDmE92rX0TDxMRETBABm8UVAJTi0JFjX7r5BrDwh0e+AGBObFvIR9379G9XUFBQSTr2ANgCrgBg7YqLi+2OHj+hcvWpsUMYpPMNDN4AAOaQ1GfAoBY5OTnYQQRsDlcAsHZHjp/4p1qr229gsAYAMC+N/lWPvgPaJOBxMNgYrgBgzQ4cOfpHF58ay9U/P6LhB2sAAPNiY010tz79QvPy8/E4GGwGVwCwRuyx75FjJz5y9fEfr9LqMw0M0gAAlsJCYFSfgQNVObm53PgEoERcAcAaJSWlvPtVFfeewiCcamBwBgCwuK+1+uMTZsz4l3R8AlAirgBgjWYtWOSoxp6+ACCv7LCmLaZEPYj+vXSMAlAargBgbeYvWflpdSf3vQYGYwCAcqXS6hMCgkOaZGVl4X1AUDSuAGBNXsbHf9CpR+8RwsCbJR2IAQBkcv/HU6f/KR2vAJSEKwBYi8zMLLuOXSJchb+4Iw0MwAAAsnH3rTHl2LFj70rHLQCl4AoA1uLps2cfVbZ3WiQMtkXSwRcqnioOTvSNo/P/x/639N8AlB/d47ETJ/sWFhZyYxeAEnAFAGtRs36YjzDQ5vADL1QEju7eFFS/ITVr05669+1PI8dNoKkzZtGMOfNo2szZNGbCJOrZL4JatOso/LtwcvLy4/oAsKAilVa3/vCx43+Ujl0ASsAVAKzBoUPHf+Ps5b/VwKALNozd1Qtu0IjGTvqWtu7YRddv3qKXr15RQUEBGWpFRUWUkJgo/rtde/fT2InfUkh4E6qqc+H6BjA7jf5lz94DgnNycrgxDMDacQUAubFHKsNGjfNTafQvuAEXbFI1vSvVbdiEfti0hZ7GPKOsrCx6/fo1GdPYv88UPu5pTIwYHkMbNRX7lR4LwIxeqzW61cIfKdgmDhSHKwDIbfeePR+rqmuWq7U6vPtn475xcKKwJi1o45atlJGRSeZsmZmZQr/bqHGrtnhfECwpt36DcC0ZGMsArBlXAJDbnv0HnIRB9baBgRZsiKObFw0aPpLuRN4lSzV2V/BB9EMaPHK0eDzpOQCYQ2jDplPJwFgGYM24AoCckpKS3wkIrtdDGFTzpYMs2A4nT19avHwlJScnG/2o19jG+k9OSaWlK1eRm19N7lwAykrj7HFj2crVfyUDYxqAteIKAHJ69Sr+U7VGd0w6wILt8AmsQ/sOHCQ52o+nTpNvrWDunADKRKNPGT95SlsyMKYBWCuuACCn2fPmqYQBNYMbYMEmsPC3decuyn/DrF5LN3Y3cPe+/eQfFMKdG0AZFDVo0mL+/agHmAwCisEVAOQUWLdeZwODK9gAnbs3rVi9lnJyc0nOlpeXR2vWbyBnrBsI5qTRnTp4+GhlMjCuAVgjrgAgl1sxMXYeNYN2cwMrKB6bhTvhu2niun3W0Ni6grPnL+TOE6AMkqbPX1A7v6CAG9sArBFXAJBL32nTPv3KwSnKwMAKChfevBXFPn9O1tRS09LEJWik5wpgouIvHZ16JyWnvEMGxjcAa8MVAOQyfMw4D5VG98rAwAoK5uTlSzv27KVCM939M+es4UNHj5HOw4c7ZwBTVNboVgoB8EMyML4BWBuuACCXEWPHdVFrdenSQRWUiz36jRg2glJTU8nUJi7jkpxCkXfv0fmLl8SZvGfOnaer12/Qk6cx4jt9pjZ2F3D4mPH0jaMzd+4AxlJp9FeFn9Xfk4HxDcDacAUAuYwYO36yGuv/2RRnbz86fPQYmdJY8EtKTqZtO3ZR/8HDqFZoA9K6eor9ssDm7leTmrVpT9Nnz6FrN268cb/gkho7xrETJ8kroDZ37gBG0+hTly1f/mcyML4BWBuuACCHkz+de9/NL3C1mu2tKR1UQbEaNm8l7utrbGPBLCo6mjp060lOb5mtW03vQgHB9WjhkuVUUFho9CPitPR0at2xK9cvgAlehzZobE8GxjgAa8MVAOSwc8++P6s0eswAtjFsuRVjG7uT9/OCzXW4/krCHjcPHTWGXsXHGx0CN2/fwfUHYIrgsEYhZGCMA7A2XAFADkIA/Ldaoz8uHUxBuTTO7vTg4UMyphUXF9PV69epXqNmXH+lwR4RT50xizIyMqRdl9jYDOWqOheuPwBjCQGwIxkY4wCsDVcAkMPOPXu/UWt056SDKShX/cbNxUkWxrSMzEzqEzFIvJsn7a+02CPjEydPSbsusbHgGdKgMdcXgLGEADiYDIxxANaGKwDIYeeefVph8LwqHUxBuUaNn2j0rh9Hjp/g+jFFeLOWlJ+fL+2+xDZi3ASuHwBj1WnQaAIZGOMArA1XAJCDEAD1Kq3+pnQwBeVaunK1OCmjtI29t9er/0CuH1NU17vS9Rs3pYcosa1au57rB8BYwQ0aTSUDYxyAteEKAHIQAqCzEABvSwdTUK5de/eLj1ZL25KTk6lmcD2uH1OwZWIWLV0uPUSJ7dDR41w/AMYSAuAMMjDGAVgbrgAgBwRA22Lv7C4+zjWmsbX8PPwDub5MNWDIMOkhSmwXL18p07uHAAwCICgFVwCQAwKgbXF096bjRk7EOHv+Arn5BnB9mapzz97SQ5TYrt24SdWd3Lh+AIyBAAhKwRUA5IAAaFvYEjBHjh0nYxq7A+fmZ74A2HvAIOkhSmyXr17DHUAoMwRAUAquACAHBEDbs3vfAaMWZI57/pz8agdz/ZiCBbnps+ZKD1FiO3P+AtcPgLEQAEEpuAKAHBAAbc+yVWuMmgVcVFRErTp05voxRTW9q9GPoLfu2MX1A2AsBEBQCq4AIAcEQNszbvJ3lGvkOoBs6zhpP6bwCaxDmZnG7UE8e/5Crh8AYyEAglJwBQA5IADanvDmrSgtLZ2MaSkpqeLHSfsyBpuBvG7jJqMeP7PWpnM3ri8AYyEAglJwBQA5IADaHgc3T3ryNIaMaYWFhbT/0GHyDqjN9VcabP2/Xv0GUnxCgrTrEhu7U+ni48/1B2AsBEBQCq4AIAcEQNu0efsOMrZlZ2fTkhUrxQAp7e9tGrdqS5GR94xagJq185cuYQYwmAUCICgFVwCQAwKgbWrZvpPR7wGyxh7f7tq3n2rVDaNqOheuXyknT1/q0S+CEhITjX70y+46Dh8znuvTktjn5OpTg3xrB1Ot0DCqE9aQatcLp0Dh8/WtVYdcvP2paik+b7A+CICgFFwBQA4IgLbJ3S+Azpw7T6Y0Niv4xs3bNHna91Q3vIn4eFfaPwt+XXv3pQ2bt1Jqaqq0i1K1e1FRFNKgEde3udk7u1GDZi1pyMjRtHDpctqz/4C4+PWtO5H0IPoh3b13n27evkM/nT0nbqM3f/FSGjR8JNVr3Ezc21jaH1gnBEBQCq4AIAcEQNvEQtuocRMpM8u4Gbm/blnZ2RT1IFpcWHrRshX03fSZNHPufNqwZZu4ePSr+HgqFMKiKY19HFuuRuPizp27uTi6eVGPvhF05OhxevT4MaWnp5fqETX7N2lpaRT98BEdOnqMuvTqQ1pX4x+LQ/lCAASl4AoAckAAtF2eNWqJ+wKXJvS8qbHHur9g/TC//O+ytDuRd9kFmzvnsmLvE3rXDKIxE78VQt+T/3++pjb2seyO6IOHD2nE2PHkGVCLqhg4LsgPARCUgisAyAEB0La179qDUlJSyJoaC1VjhYAmPdeyYvsJd+3VT1yIuqCgQHrYMjfWJ7sj2EH4muLRsPVBAASl4AoAckAAtG1sZw72qNWa2rkLF8XHs9JzLYuqjs7i4+kXL1+W6Y7n2xq7GxgX95ymfj8Ls5etDAIgKAVXAJADAqDtY7NeDx4+apG7YsY0Fsxu34mkug2bcOdYFjXqhNKuvfvK9fNjx9qybQf51KrDnQ/IAwEQlIIrAMgBAbBiYLN52Z03dgdLjsYe+z6NeUZdevYxOKvYVP5BIXTgyFHKz8+XHtLiLS8vj3bv20/egQiB1gABEJSCKwDIAQGwYmCPK+s3bk737keRHC0rK5t69h8oPpKWnpup2Dt/e/cfLNc7f9LGgue2nbvNGmrBNAiAoBRcAUAOCIAVi3+dunTy9BmTFok2pbHFntl6fx279+TOpSzYO4Qr16yTNfz90tg5sLUDtS4e3HlC+UEABKXgCgByQACsePyD6ooTQ9LS0smSjT1uPnD4CDVq2dqsEybYTh2DR4yixKQk6SFlay9fvaJeAwaZ9fME4yAAglJwBQA5IABWTHpPH+o/eJi42LElWnJKCs1duFhck0967LKqERRCN27dLtP6fuZubILLuQuXxO3kpOcL5QMBEJSCKwDIAQGw4qrioCd3/5o0edoMirx7T9z5oyyhik2KiHkWS6vX/UBB9cIt9l7cspWry3SerLGPZ4/B09LTRdk5OWVePoZ9/JwFi7nzhfKBAAhKwRUA5IAACEyNOnVpwndTaf+hw+Js3aKi0oUhFqTiExLox9M/0ez5C6lJq3YWfQxaM6Q+xcfHS0+j1I29r3fz1m3atHUbTfl+Jg0dOYYGjxxNE6dOpzU/bKSLV65QTo7p70e+ePmKvAJqc+cNlocACErBFQDkgAAIv2DBzc03gMKbt6IZc+ZRSmoqva2xd/xadehMPoF1qJrOhevT3GYJIdPUiR9xz1/QhG+nUlD9huRgYG9fe2d3IWDWo4HDRop7IJvS2KSXiVOmc32D5SEAglJwBQA5IACCIS3adaTYuDh6W1uwZLm4HIv04y2BTV65ev2G0Y9/2VIt7M5mUP3wUt2dZP/GJzCI1m7YKD4WN6axc7t89Zq4D7O0X7AsBEBQCq4AIAcEQDDEGgNg7wGDKCk5WXoKb237Dx42aTKKk4ePuNSMse8Gvnr1irr06sv1B5aFAAhKwRUA5IAACIZYWwBkC0izdwyN3ckkKjqa6oQ14vorLa+AWuIOKsY09oh6+uy5FpsEA4YhAIJScAUAOSAAgiHWFgA9/APp2IkfpYcvsaVnZIrv85XmsW9J2nbuRi9evpR2/8bGHgPvPXBQ3INZ2hdYDgIgKAVXAJADAiAYYm0BsGZwPbofZdw2dmfPXyC/2iFcX8Zy9vKjXXv3GfUo+PrNWxQQHMr1BZaDAAhKwRUA5IAACIZYWwCsG96EUksxK/mXxh7DLl2xymyPYcdN+paysrKkh3lji3v+nELCG3P9gOUgAIJScAUAOSAAgiHWFgAbNm9t1OzftLQ06jtoCNePqZq2aS9u91baxmYPs+V0pP2A5SAAglJwBQA5IACCIdYWANt06io9dIktMTGJWrbvxPVjKvY49+mzZ9LDvLGxx8VNWrfj+gHLQQAEpeAKAHJAAARDrC0AdujWU3roEltCYiI1a9Oe68dUPrXq0JOYGOlhSmxNEQDLFQIgKAVXAJADAiAYYm0BkJ2PMY+Ak1NSqKsZ1+Kr16gpxcU9lx7mjY29g9i4ZRuuH7AcBEBQCq4AIAcEQJBiW6L1iRhUqnfe1qzfIM6SlfZhbmFNWlBubp708G9s2Tk5NHnq91w/purVfyAlJ6dID/PGlpiURPUaN+P6ActBAASl4AoAckAABIYttNy8XUeaNXc+HTl+QtwLl22h9rbG1sc7deYMLVu1hnoPGGixte/q1G9o1Fp87B28Hbv3kKO7F9eXsdhM4kXLVpTq6/FLexAdTbXrNeD6AstBAASl4AoAckAArLh07t4U1rQlzRRCX/TDR+Jds4KCQqMetbLG/j3boSM3N5dSUlJo97791LV3P/IJrGO2ZVhYXxcvXZYeusQW8yyW2nTswvVlLLYEzc3bt436uhw7cVJcvFraF1gOAiAoBVcAkAMCYMWjcfGgVu0709oNGyk+PpEs0fLy8unKtWs0cuwE8g8KKfNuHDoPb9q4Zav0MCW2YiGwbd+1hxzdTL8LWF3vSgsWL6X8ggJp929sLCguX7WGNM7uXH9gOQiAoBRcAUAOCIAVi3fNIFq5dj09jXlm9L66xjYWhDKzsuj8pUsUMXQEdy7GYHcSp86YRYWFhdLDlNjYenyjxk3k+iutjt16GvXuH2sZGRk0dNRYri+wLARAUAquACAHBMCKwdHdm3oPGEyPnjwxOkSVtbEgmJObS9t27qa6DZtQVZ0Ld35vwoKfZ41aNH3WXIqPTzDqMewvLSk5mUZNmCQ+8pb2/ybsLmmPvgNKNRP6142d3917URQS3oTrEywLARCUgisAyAEB0PZ5BdQSH0mmpKaRnI1NzIi8d48iho0o1SNhvYcP9Rs8lH46e56KjNiH11BLSU2l1et+EAPo244dEFyPZs9fRC9KMQta2tjnuGHLNqNCLpgHAiAoBVcAkAMCoG3zFMLf3gOHKDev9EuoWLqxRZpHjpsozjyWnu8vguqH0669+8XlVEy562eoFRQW0q07d8QZva06dhED5i/H07p6iuv2zZgzjy5duSpOaDGlsZnCzdt24D4fsDwEQFAKrgAgBwRA28TucoWEN6ZTP52hQgu/62dKS0tPp7kLl5CTp+9/nTO7+zZr/gJ6/vyFeDfN3I2FSfYIPCsrW5yx/Cw2VtzijS0cnZmZJS7gbGrgZB934PARs818BuMgAIJScAUAOSAA2qZa9RrQ6bPnLBKizNXYBJEFS5aJj0tdvP2p76AhdO3GTas+55IaWzgbd//kgwAISsEVAOSAAGh72GQHdidKCUGKhcB5i5bQrr37xMkapt59k7vl5eXRwqXLxUfJ0u8HlA8EQFAKrgAgBwRA28LWvFu5Zh3lGbFrhdyNPXa19JI0lmwsaB878SP5BAZx3w8oPwiAoBRcAUAOCIC2o5rehYaPHiveSasojb3LJ3dj2+Zh2Rf5IQCCUnAFADkgANqOwLr16d79KKoILTMzk7Zs30Gjxk+i5y9Kv0ewuVtMzDPq0rMv972A8ocACErBFQDkgABoG9hEio1btpnlvT/2ODYpKZlu3o6kNes20IAhw6hJq7ZUu14DCqoXTk1bt6dBw0fSD5s20527d8WdMsxx3Lc19n5gdnYOnT1/ntp26iou1sxm3LJ9h+9HPSiXc/ilsWPduhNJHbr2wKxfK4EACErBFQDkgABoG1q270jpGZlUlsYCFpvJunX7LmovBBu2e4j0OFI6Dx/q3KM37d53gOITTNupozSNLd0SefceTfl+lnhM6Xk0a92ezl+8VC7vEhYUFNKZc+epQdMW3HmAfBAAQSm4AoAcEACVz8HNi7bv2lOm8MM+9uz5C9Stdz+jtkz7hbOXn7h12uWr16Rdl7mxRZnZxJb6jZuXuHh0nbCGtHbDRkpPz5B2YbaWmpZGK1avpcC6YdzxQV4IgKAUXAFADgiAytehWw+KjXtu8t237JwcWicEJ1cf/7duk1YS9rFufjVphxBGc4Q+y9rYe36nz5ylNp27ksbZnTueIeyxcLsu3enCpcuUkZFhlsfCrI/09HT66dx5atm+U6nPBcoXAiAoBVcAkAMCoLKxwLNs1WqTg066EJLY1mhs+Rhp36ZiQZLtPZyVbfoMXbZDx+gJk8nJ6/92CjEGe3w9ZMRo2nvgIMWZuKsIuyv6LC6Odu3bL74H6eCGNf6sGQIgKAVXAJADAqCy+dUOFt+NM6Wx9fc2bd1Obr4BXL9l5eEfSDt275UestTtxKnTJT7uLS22w0irDp1p8rTpdPDIUYoRgmVJj8rZu4ZPY57RvgOHaOJ3U8V3K3+9XR1YLwRAUAquACAHBEBla9+le4mBpqR29foNMahJ+zQXD/+a9ODhI+lhS9XYu3bsvUJpn6Zis6TZXUEWdmuHNqA2nbpSxNARNHzMONGAIcOpVccuVKtumPhvHN29MLtXYRAAQSm4AoAcEACVjT3+NaVlZGZSh249uf7Mrf/gYeL7c6a0bn37c/0BvAkCICgFVwCQAwKgst28fYdMafsOHja4nIq5edaoRUdP/Cg9fKna0pWruf4A3gQBEJSCKwDIAQFQudj7bampqWRsS0tLpz4DB3P9WQKbGTxi7HhKM+Eu4MXLV8RHt9I+AQxBAASl4AoAckAAVK5mbdpTVlYWGdsuX7tOgaHlt44de6/uQXS09DTe2h5EPxQnuUj7AzAEARCUgisAyAEBULnYJAa2SLIxjS2Hwmbn2ju5cf1ZCruLd/zkKempvLWxpWAatWjN9QdgCAIgKAVXAJADAqByTZ46nfLz88mYlpeXR7PmLeD6srRFy5ZLT+WtjW0t16VXX64vAEMQAEEpuAKAHBAAlWv+4iXiWn7GtMysLBo2eizXl6Wx9wCNbcnJKdR34BCuLwBDEABBKbgCgBwQAJVr+eo14sLFxjS2T26fiPKZAPJrbJ09YxtbC3DQ8FFcXwCGIACCUnAFADkgACqXKQEwIyOTIoQwJu3L0gYOGyE9lbe21FQEQCg9BEBQCq4AIAcEQOWas2CR0Y+As7Ozaeykb7m+LG3SlOnSU3lrS0pOpt4DBnF9ARiCAAhKwRUA5IAAqFwTp0yjPCMngbDAuGT5Kq4vS1u3YZP0VN7aXsUnUKcevbm+AAxBAASl4AoAckAAVK6+AwdTjpHLwLx+/ZoOHztu1n1238bBzYsuX70mPZW3tphnsdSgaUuuPwBDEABBKbgCgBwQAJUrrElzysw0fiHo6EePqHGrtlx/ltKyfSeKjXsuPY23tvtRD8jDP5DrD8AQBEBQCq4AIAcEQOVydPOixMQkMraxtQAnfDu1XLZZqyYcg607yI5pbDt99my5nCPYBgRAUAquACAHBEBlO3v+ApnSbt66Td41g7j+zC2kQWO6efuO+OjZ2DZ34WKuP4A3QQAEpeAKAHJAAFS2abNmk6ltxtx5VMXBievTXL4R+l6+ao24/ZyxjQVG9uhY2qe5fOPoLL6b6OLtT87efuTg6mnRrwVYHgIgKAVXAJADAqCyNWndzuiJIL+0589fUKsOlgtZbTp2pbS0dOlhS9VevoonnYc316epquldqE5YI3FdwfmLltCW7Tto38HDdPT4CTpy7ITw3w/Rpq3bxLuOA4aOoKB64eLja2k/YL0QAEEpuAKAHBAAlc0zoBadvXCRTGnsztylK1cprGkLs979Yn01bN6Kbt+JlB6y1G3/ocPiHTpp38Zgd/VqhtSjaTNn07UbN+lVfDxlZGZSfn6BwUfSrMb2Vk7PyBAC6Cu6fOUaTZo6nWrUqUtaFw+uf7AuCICgFFwBQA4IgMrGJkl8O22GSZMsfmmXrlyhRi3bcH2booqgdacudP3GLYMhq7QtKyuLFi1dTnXDGxs9EUQjhLU2nbrSpm3bxf2Ey3Ie7GPZRJt1GzeLfdo7u3HHA+uAAAhKwRUA5IAAqHzhzVtR1INoKku7cfMWde7Zx+iw9WvsY3v2jxDPpSyh65fGFq1mE0gmfjet1HfgAuvWp2UrV4trCJqzsc/nWWwsLViyjGrUCeWOC/JDAASl4AoAckAAVD4WvNi+wMZuC/frxh4HJyQm0pr1P1BNIUTZO7tzx3kTjYu7ONv3h01bKDHJ+GVpSmoseGVlZ9PJ02eoZbuO4t096fGZanpX6tyjN0XevSc+xjVHAJU21mdeXr4YStt37SEeU3oeIB8EQFAKrgAgBwRA28DedTPXXS+2BduyVWuoW5/+7KJKek9f+sbx/94RZDNo2czZug2bUPe+A2j1uh8oJTVV2o3ZW1pamvgotl6jZuI5/HI+bFeT8d9OpYyMDOmHWKylp6fTmImTyUn42ki/FyAPBEBQCq4AIAcEQNsxfdYck5ZcMdTY3a6U1DS6ces2HThylDZu2Uor1qwTsdmyh44eo9uRkeIsX0vcbXtTKxaOxc5p3OTvyNXHnxzdvWn2/IViAC3P8xC/PikpNGPOfPEcpN8LKH8IgKAUXAFADgiAtsM7MEh8VGquEPjrxgJPUVGRqDyDlqEmPhbOyqKLl6+IdwTZI2K5WlZWNk2dMatM706CeSAAglJwBQA5IADalpbtO9PDx49lD2kVqeXm5tLAoSMRAmWGAAhKwRUA5IAAaFuq611p+Jjxst4VM7axu4pKbixs338QTU1bt+O+H1B+EABBKbgCgBwQAG0Pm8G7aNkKcTasNTcWnDIzM2nAkOG0at16SkhIpOJiZd65ZCF2/8FD5FEjkPt+QPlAAASl4AoAckAAtE06d29xwkZmVhZZY2Ph78XLl+LWbL+cc+NWben4j6fEGbZKbCxwjxo/kfteQPlAAASl4AoAckAAtF2eNWrR0pWrKTfX9F1CLNVevnxFQ0eN4db18/APFEMU20bOUpNZ2HZwbAu8jZu30rxFi0XrN26mC5cui9vAleX9yQcPH5Z5CzswDQIgKAVXAJADAqBt03l406z5CygjI7NMwcZcjYW6+PgEcSHl6k6Gt1Vjkyl8awXTqrXrKTkllYqKyh4E2XFZ8Nu4dTs1atGavAJqiXdJ2TkwjkJoY4GZ7aqyZt0GSk/PMCmAssW4h4wcw31OYHkIgKAUXAFADgiAto/tWNEnYrC4g4VcEy5Y+MzJyaFjP56kBs1acudoCFvsuUmrdrR734EyLfJcWFhIV65do47de/7XAtJvwv4N2/f3/KVLVCB8rDGNfZ5nz18gZy8sEF3eEABBKbgCgBwQACsGFmrCmrSg7bv2UF5e+T8SZlvETfl+FvkHhXDn9jZsp49R4yZQ5N370m5L1Vj4q9+4Gdfv29QNbyyGOWNbbNxzatu5G9cfWBYCICgFVwCQAwJgxeLs7U/9Bg2lGzdvUU5urkUfC7NHqGz7NrZrSLM2Hd74yLc0HFw9xZnCxjY20aRh81Zcf6VVN7wJxcbGGfV1yi8ooCkzZlEVh//bPg8sDwEQlIIrAMgBAbBicnT3omGjx4l3uBIS2fIrxr/v9qbG3oN7GhND+w8ephbtOpbqsevbsPfzTp7+SXqoElt2djaNnfQtVS3D8dm5Dxk1Rnx/0Ji2e+9+chHCtrQ/sBwEQFAKrgAgBwTAis0roDZ179OfVq5dT5H37pn8eJjdIUtNS6Mz587TtJmzqUX7juTg5skdz1S16zWgp09jpIctsV2+eo1qhYZxfRmLPbY29lHwtRs3qUadUK4vsBwEQFAKrgAgBwRAYFhY86sdQs3bdqBvp8+g02fPilucva09evxEXEKFLeYc2qiZeKeOTTqR9l9WYU1blOp8fmls8saylavLdPfvF+wu4NyFiynPiIW1X7x6JXw9mnJ9geUgAIJScAUAOSAAgiHs0W1sXBy9rc2cO98sj3jfpnPPPtJDl9jYu4ds5rO0H1N16dVXnMhS2sYegzdu2YbrBywHARCUgisAyAEBEAyxtgDYf/Aw6aFLbPEJCdSkVVuuH1PVb9KC4p6/kB6mxNa6Q2euH7AcBEBQCq4AIAcEQDDE2gLgsFFjpYcusb16FS+EtuZcP6aqHdqAnsXGSg9TYuvUvRfXD1gOAiAoBVcAkAMCIBhibQGQvWNoTItPSKSmbdpz/ZgqvHlLev7ipfQwJbbWHbtw/YDlIACCUnAFADkgAIIh1hYAu/TsKz10iS0tPZ0iho7g+jFVz/4DKTk5RXqYNza8A1j+EABBKbgCgBwQAMEQawuAbDHnfCNm4bLt31asWWeWWcBsQef5i5eKCzyXtr2Kj8cs4HKGAAhKwRUA5IAACIZYWwBk6wDGPHsmPXyJje19XLdhY64vY9UKbUBXrl6Tdl9iu37zJgVgHcByhQAISsEVAOSAAAiGWFsA9AyoRad+OiM9fImNrRv4/ey5ZVqXsKrOhSZNmU45OTnS7ktsu/cdwE4g5QwBEJSCKwDIAQEQDLG2AGjv7E5LVqwyak9e1hISEsr0Ll69Rs3E/YSNaQUFhWLwxF7A5QsBEJSCKwDIAQEQDLG2AMj0HjCIkpKTpafw1vbw0RNxhxNj7gSyO3+NW7ale/ejpN29tcXGPae2XbpxfYJlIQCCUnAFADkgAIIh1hgAawTVFffYNfYuYHFxMd2LekDDx4wjjYsH16+UvZMbDRw+km5H3qWioiJpdyU2dm5sP2RnPP4tdwiAoBRcAUAOCIDwa9V0LuTg5kWDho8q1dZncxctIa2rZ7mEQHaM+cLx2D6/xjYWzFLT0ujwsePUrkt3cvL0oepC0GN3BRn233Ue3uLaffsOHqbklBSjgyZrbPbxhG+ncOcOlocACErBFQDkgAAIjE9gHerRdwBt2LTFqAWP8/Ly6Mat2zR7/kIxPHnWqMX1bU5eNWsbdX6GWrEQ7NhWcafOnKWtO3aKTp7+iV6+ihf/v7K0R0+ekrYUdxnB/BAAQSm4AoAcEAArNlffGjR01Fg6cfIUZWZlkamtuPg1JSYm0ZFjx8V9e529/bhjmQsLm+yxrrU1tk7huMm4+ycXBEBQCq4AIAcEwIqJPU5t0qotnT5zVtw1w5THnYYa6yclJZWO/3iKWrTrZJFHwzVD6tHV69fNds7maOxcjp88Td41g7jzhfKBAAhKwRUA5IAAWPF41gikGXPmUUZGJlmyscfDs+YtJJ9A84eiTj16U2xsnFWEQHYO0Q8fUov2nbjzhPKDAAhKwRUA5IAAWLH41Q6hnXv2UlZ2NpVHy8nNpQOHjlBIg7LvyPFrbF3Ab6fPEEOm3C0nJ5eGjhpjkbudUHoIgKAUXAFADgiAFYdXQG06/uNJKjBiT1tzNDYz9satW+QfFMKdU1k4unvR+k2bqUim9wHZnT+26PPSFavFQCo9PyhfCICgFFwBQA4IgBVDrdD6dPrsOdkmT7CwxPbmDWvSwqw7ZDh5+tLq9RvKNIHFlCYuK5OaSrMXLBKCqDd3XlD+EABBKbgCgBwQAG2fk5cvbd+5W5ylKmdjdwLZ5BBz3wn08K9JcxYspMzM8guBbE3BCd9NJb0QQKXnA/JAAASl4AoAckAAtH2Tpkyj3NxcsoaWn19Aa37YYNa7gAxbvJotZyOu5VdcbJHJIaxP1vejx4+pT8RgPPa1MgiAoBRcAUAOCIC2rXm7juKjSmtrvQYM5M7VHGqFhtHGLdvEhZ7NGQJZ8Hv+4gUtX72W/GsHc8cF+SEAglJwBQA5IADaLne/ANp/8JDR+9mWR7ty7Zq4np/0nM2B7cTBAuaefQcoKTm5TEGQBT92V3Hztp3UuWcfqqpz4Y4H1gEBEJSCKwDIAQHQdvWOGETJySlkSmOhiWHv7bE9gS9duUpHjp+g02fOiY9Ac/PyyvSoNTsnh6Z8P9OiS6e4+tSgxq3a0KKly+nJ0xjxHUgWhn8571+f+y//m/1/7N/kCf82Kjqa5ixcRA2atRQnm0j7B+uCAAhKwRUA5IAAaJtY+Pnx9E9kSmMhKDYujjZt204t2nU0GNLY4s5TZ8ymazdumPx+4e3IuxRUvyHXtyWwz6FmcD0aPGI0LV25mg4eOUpnz1+gi5eviM4I/33/ocO0aPlKihg6Qlwv0dzvKYJlIQCCUnAFADkgANqm5m07mLQ0Cgt/Z86dp7adu5VqkgN7jLtgyTLKMuFY+QUFNHjkaK7P8sJCoYObJzm4eiLs2QAEQFAKrgAgBwRA27RkxUoytrHwd+zEj0bflWMBiu3KkZ6eYfQjYbYwtbQ/AFMgAIJScAUAOSAA2h525+7xk6dkTGPh78dTP1FAnVCuv9Ko7uRK3077njIzjdtfmL2Xxx5XS/sDMBYCICgFVwCQAwKg7Qlr2oLS0tLJmMaWimnTuRvXlzFcfWuICz0b27r26sv1BWAsBEBQCq4AIAcEQNvDFkRms2yNaWwChDmWOOnQtYfRj4HnLlrC9QNgLARAUAquACAHBEDbw2a5FhQUUGkbW+qldceuXD+mqK53FWf3GtOOHDvO9QNgLARAUAquACAHBEDbwmaz7tq7z6i7cGzJF5/AOlxfpmAza1etWy89RInt6vXrpZpxDFASBEBQCq4AIAcEQNtS3cmNDh87TsY0th6em695JmKwADpm4mTpIUpst27fIWdvP64vAGMgAIJScAUAOSAA2hZHd286ftK4iRhHj58QApg/15ep+g4aIj1EiS3y7j3yrFGL6wfAGAiAoBRcAUAOCIC2RePiQUdP/EjGtFNnzpp1KZaho8dKD1Fiu30nklx9A7h+AIyBAAhKwRUA5IAAaFvYO3gHDh8hY1rUg2jyCqjN9WUK9gh47sLF0kOU2K7fvEVaV0+uLwBjIACCUnAFADkIAdBJCIC3pIMpKNeaHzZSUVERlbaxWcBNWrbl+jEFewfxyrXr0kOU2NiexdJ+AIwVHNZoOhkY4wCsDVcAkIMQAB2EwfOadDAF5fpu+kzKy8sjY9rKteu5fkwR2qip0cdevX4D1w+AsYQAOIkMjHEA1oYrAMhBCIDV1Br9BelgCsrVpVcfyszKImMaWwqmVmgY15cx2OPnDVu2Srt+axsxdjzXF4Cx6jRoNJIMjHEA1oYrAMhh5569X6o1uh+lgykol7OXH718+YqMaeyRMXt30LNGINdfabAFoFmQS0lNlXZdYisUjutfO4TrD8BYwWGNepCBMQ7A2nAFADkIAfAvKo1ur3QwBWU7cuwEGduysrJoxZp1QoD05forCZv40b1Pf3r46LG0y7e2+w8eiHcOpX0CGCu4QaNwMjDGAVgbrgAgh517936o0uo2SAdTULaIocPJlMZC4Kat28W7iNI+DWHhr0/EIHoWG2fU7iO/tDkLFnF9ApgiOKyROxkY4wCsDVcAkENxcbHdsNFjpwsDaIF0QAXl8g4MEhdYNqUJPxP06PETGj95CrurIu7SUVXnIvbLAp+Dmyf51Q6mTj1605Hjxyk3N9ek8MdCY1iT5ty5A5ggJyJi4N/IwBgHYG24AoBcRowZ30Ot0WcaGFRBoao7udL0WXMoLz+fTG3svcDoh49ox569tHDpcpom9Mfu2K3fuInOXbhIWdnZ0g8pdWNLz6z9YQM5untx5w5gLJVWH5mcnPIpGRjfAKwNVwCQixAAg4QAmCAdVEHZQhs2pTuRkWSuxu4MmqvFxj2nVh07c+cMYAohAO4UAuDHZGB8A7A2XAFALoOHjvxL5eqOj6SDKijfoBGjKCMzk6ypsSA5beZs7lwBTPT6a61+aFJyyrtkYHwDsDZcAUAu27Zts9O5eR02MLCCwmldPWjX3v1kTe3y1euk9zRupjFACTK6DIiol52Tw41tANaIKwDIKTCk/ggDAyvYADaRI/KeaRNCzN1inj2jtp26cucIUAY3Dx456kgGxjUAa8QVAOTUpVd/e2EgzTUwuIINaN6mA925e8+s7/EZ09gsYRb+evaLEGcSS88PwETFX1bVrN574OAnZGBcA7BGXAFATi9fxf9BpdWfNTDAgg1goatj917irF45WmJSEvUfPIyqYtFnMCtdRlBoWO9bt25xYxqAteIKAHISAuBvvrbXjxEG1df8IAu2gIXAdl26U7QJO3aUpT1//oIGjxiNHT/A7FRa3eNx306pTgbGNABrxRUA5PT69Wu7bbt2ewt/UUdLB1mwLbVCw2jn3n2UaeHZwXl5eXTi1E8U3qwlHvuCRYSEN15VUFDAjWcA1owrAMhtz779f1BrHNcLA2uRdKAF28J295g09Xt6EB1t9vcCi8X3/WJp8fIV5OEfyB0bwEzyQ5o0CyADYxmANeMKAHKLj4+369S9VwuVVp9sYLAFG8O2d2vYrCUtWbGKkpNTyByNbQu3ftNmat6uI2lcPLhjApjRTz+eOfN7MjCWAVgzrgBgDRauWvVbe2f3EwYGW7BRLAj6BAbRd9/PpAsXL1Hc8+fiNm9vuzPIZvbm5OTQy1fxdPX6DZq7cDEF1Qv///sGA1iKSqvLDKwb2iIjM7MSGRjHAKwZVwCwFnVC64cJg2yedNAF2+fo5kVNW7ejcZOn0Io162jvgYN05tx5unzlGt28fZuuXL1G585foIOHj9Ka9Rto8rTvqW2XbuTk5cf1BWAhxUIA3H/42PEvpGMXgBJwBQBrceTo0c9UWv1BAwMvVCDsTp6Ltz/51w6hwLphVCesIdUS/rNGnbrk5htA1fSu3McAlIPkHn36t0tITHxHOnYBKAFXALAWKampdoFBwYEqje6ZgcEXAEA2GhePzcvWr/+tdNwCUAquAGBNIu/d+7he42ZT1dgdBACsx6vFy5Y7SMcrACXhCgDWZuz4775Wa/Q3DQzCAADlreDr6vqxGRkZ70rHKgAl4QoA1iYvL8+ua+9+ASqtPsXAYAwAUF4K3f1rbjj500+fs0XrpWMVgJJwBQBrlJyc8v43DvqxwgCcaWBQBgCwPI3+xndTZzlLxycAJeIKANYoPz/fbvqsWX9XaR03CANxATcwAwBYlC6nZnCD+lFRjzDrF2wCVwCwVmyvzXmLF3+hcXY7IgzIr/kBGgDAEnSpAcGhfZKSk9+TjksASsUVAKzdvIWLqwuD8iU1QiAAWJhKq08Pb9Zy7IOHDz+VjkUASsYVAKxdfkFBpemz5tRg7+OoEQIBwIICQ8OmR0U//KN0HAJQOq4AoAQFBQXvzF+0VK9xdj+jRggEAPN6LfyBmR4QHDo1OTnlQ+n4A2ALuAKAkixYvLSaMFifUGNiCACYi0YXH96s5bDoh4/w2BdsFlcAUJKCgkK772fPEUKg7gdh4M7jBnIAAOOkBIU2aP3gQfQn0vEGwJZwBQClYbODFy9e/ElIg0YjhcE7QVBsYFAHAHgjlfAH5FdVNT/51Qn2T0lNxVIvYPO4AoBS5eXnv9O1V7+GKo3+tDCg50sHeAAAQ9hMX8+A2jOGDh/51b1797ixBcAWcQUAJYtPSHy3ZZt2Vf5dpfp3wsCeIx3oAQB+pUhwrbqjvt3ZCxd/Jx1PAGwZVwBQuqysLLuXL1++H9ywkZ+bb8ABYYBPNTDwA0DFVSh4HhLeaMyyVav+kZKS8g729oWKhisA2JJjJ05+pnFy6ajW6C+q8VgYoKJ7rdLqE6rrnFf1GTDQRzpeAFQkXAHA1hw7ftxu9tz59t9oHccLF4CXBi4KAGD7ilUa3fm69ZvVO3Ls2B9TUlK4sQKgIuEKALaIzRROSk5+v//gwWq/oJBNKq0ukV0QDFwkAMCWaPQFDq5eN0PCGvU6d/7iX9PTMypJxweAiogrANi6R4+ffBhcv0GDL6va71Rj7UAAW8X+wHtSxd5h7pr1G7+SjgMAFR1XAKgIbt++bbd7375/fKV17C9cJO7952IhvYAAgCLpCtni8BHDhtc8cODgR9LffwBAAIQKLiEx8b2lK1b/b1D9hpOEC8cL9c+zAw1cUADAyrH9e7O+qqo5Fxga1jgxMenj7JwcPO4FeAOuAFBR9eoX4feNVr9WuIiw3UReG7jAAIB1KlJpdLdq1A6OGDBw0OePHz/mfr8B4L9xBYCKis0K3H/w4J9CGjYKV2l1F9R4LAxg/TT6ZLXWcd6ipctdL1++jC3cAEqJKwBUdKmpqZXOnD//ea36Yf0dXD3vsFmE3EUHAORULPxepn1VVXtw6KixrvEJCR+ymf7S32UAeDOuAAD/Z836DZVVTq7zVRrdU/Giw1+IAKBc6QpUWt2xJm3ad4gYOAjbtwGYiCsAwH/bc+TIxwOGDKut1jpu/nl2ofSCBADlQxfr6OYxavf+A18/fPIEj3sByoArAAAvKyur0qv4+N/VDKnf/KuqmksqjT5bjYkiAOWB3XmP13t4L163YZN9QkLC+9LfTwAwHlcAgDd7+vSpXZ/+A/7hFxg6RK3R3fnPxUl6wQKAsmN/YKUJdvcdODh0165dWNIFwIy4AgC83cWLV99duGS5h1rjtEi4QKUYuHgBQFlo9LeatGzbYfe+/f/IyMD2bQDmxhUAoHTYrMMXL199NHTUGK+qOuejao0uQ63V4bEwgOkKVRr9Y1ffmpOuXr/xz9TU1Helv3cAYB5cAQCMN3PW7N81a9W+q1qjP4llYwBMoXuldfNYOXTkJN3589dxxw/AwrgCAJjm8eOn7+zavU/l6OE5TriYxfEXOAAwgP3BdHj42PGNDx09+qn09woALIMrAEDZvHz16oO1P2zUObp5rFRrdIlqTBQBkGKvSuQJfyjd9woI7Nard58/ZGdnY1kXgHLEFQDAPDZt2lSpd7+IsMoapwPCxS79Pxc96YUQoMJRafUPaoXWnzxy9JivkpOTud8dALA8rgAA5pORkVlp+669XzRt1a6rcOGLlF4IASqYzMoa3cYVa9b5X7l27QPp7wsAlB+uAADml5yS8p63r++XLr7+01RaXYxaoysycHEEsEXsznf2N3qXsy6e3qErV636fWFhIfc7AgDliysAgOWcv3Kl0sBRo120Lp5r1Rp9goGLJYAN0bEJHldatu80eMrs2Z9Jfx8AQD5cAQAsb/+hI58NHzO+hXBxPKH+eRakgYsngKKleNYInLZ9125tTGzse9LfAQCQF1cAgPKRlZX1Tq/evf/s7hvQR6XVP1JrdflqTBQBZXut1uhSHN29dtQKDvG+fz/qQ+nPPQBYB64AAOUrJTXVbuCo0apadetNFy6ejw1cVAGUIFut0Z/uN3BI8+27d2OCB4CV4woAII8rV6/+dsXqtYHChXSbeDHlL7AAVkml1T1q27nroG3bd1XOy8vDLh4ACsAVAEA+hYVFdjt27vpD7ZDQRlV1LpeFi2uuGo+FwToVqbW6eFffGsuateilSk5JeV/68wwA1osrAIB1mDpr9h9btOs4UqXR3RQUGrgAA8glzdnbf8ugESNr3Lpz5zfSn10AsH5cAQCsx7Nnsb/ZvG2Hk2dArdnqn3cTkV6IAcqT8IeI7uJf/vFF11179/9Z+vMKAMrBFQDA+ty9/+BjD+/6AQ5uXvuFCzCCIJQrlbhUke6ld83aw6ZOm/bFw4cP3ysqKuJ+TgFAObgCAFivHXv2fNgnYlAb4YJ8Qbgw50gv1AAWEFenQaNFA4cNc8jNy+N+JgFAmbgCAFi3vPz8SkNHjvrmf76sPFKt1T01cMEGMIc84Q+Nw44tW4XcuHX7E+nPIQAoG1cAAOuXkZFh9/Dhow9at21XzcXb7wchCCYLF+xiAxdxAGPlV9O73nIPqNVx5959f4tJSOB+/gBA+bgCACjL7cjI9wcMGRbk4u2/U7h4Zxq4oAOURqFao49q07HLtDnzF/9F+nMGALaFKwCAMu05cOhvf/H17yNcyK+rxTXauAs8wJvkVtHqF3fv1cf75atX2MUDoALgCgCgTMXFxXZRz2J/893UqV96+Nccp9Lok1Tish3cxR7gZxpdlqOb12n3moH1ox8++iQlJYX7uQIA28QVAED58vPz7foNGuYSFNZwlRACX3IXfqjo8tVa3Y3+g4Z2PXDw8KfSnx8AsH1cAQBsx/Wbtz4LDApuoNLoT6o1bC03LghAxcK2FXzxlaPTd5O+n6GT/rwAQMXBFQDAtsTFxVXasWfv/7j51+hVTe8SpRYX9eWCAdg0XbFKq8t09vLd26l7D13048cfZefmcj8rAFBxcAUAsF0z5y34+xdfqeYKoeCxGhNFKgaNLverqvYHAkNCGz589Pi30p8JAKiYuAIA2C42UWTx0qUfdujTt2ZlB/0qNe4G2rJitVZ3r5pWN2T12nVfXL58mft5AICKiysAgO1LTEmxe/Dw4Weufn7Nta6el4SwkKv++f0waYgA5WF3dlPd/GrMnDlnbrWHDx++L/3+AwBwBQCoWA4ePvonB2e3fmqt7o4ay8Yo2WuVVpf4L2e3LR169/ORfp8BAH6NKwBAxbNz5067ydOnu1V2dJqt0uoTWJgwEDDAehVX1urOB4U3arF0564/v0pN5b7HAAC/xhUAoGLKzsmxi4qO/l37Lj09dB4+x4QgmKPWIAhaM7bQdzW962MX7xrDDx459mXs8+eVpN9XAABDuAIAwKMnTz6q17hZ6ypa/XGVVpcvDR4gM404wSO2ms5pyeIVK7+Wfv8AAN6GKwAAMPfv37dbv3HTl9Uc3MYKoeORGo+FrUWBSuO4pdeAiHqbNm/+SPp9AwAoDa4AAPBrUVHRv50xe57e2ct/qRA+0tXi8iJcKAHLeq3W6PO1rp53/OoEt78XFfWn5JQUPO4FAJNxBQCAN+nUvVeQyt5hrxBIUsVQwgcVMD+2i8ddz1p1Rp48/dPn0u8JAIApuAIAwJskJibarVqz9vPQRk06qrW6q2qEQItSafVJKq3jsumz53gfO3v2Hen3AwDAVFwBAOBtYuPi3j145Kja3tn9W5W9Y5xag23lzEajf63S6PMq2zv+1KN/RODd+/c/zcvL474HAABlwRUAAEprz549dh06da1mr3NZJ4SXl2rcESwbjS5fba8/W69Ri+6dOnXGBA8AsBiuAABgrE2bN3/Sa8DApiqtfh9bm44LNvB2Gn2s3sN30qo1P3xz//5DPO4FAIviCgAApkhOSXkn8u69z71qBvWubO/4+D9BEHcES8a+PhnV9a4bFy5Z5hn14OGH0q8rAIAlcAUAgLKIiYmxa96y1T89a9b+VqXVPfxPyJEGn4rutYotqaNxPNaha496W7ZswZIuAFCuuAIAgDkcP3XqvWmz5tQUws4PgjQDIajCUmn0Nxs2b9171Zo1X2RkZHBfOwAAS+MKAADmwmav3o68+6ce/QY0qKJ1uq7W6AvUFfWOoEZfrNLoEuxd3OeePH3mm7i45+9Jv14AAOWFKwAAWMLo0WM+qdeo6SCVVndNCEQsCPIhyTYJgVeXqHXx2NCtVx/9hQsX8LgXAGTHFQAALOV+VNS7y1avcXDy9p0pBKN4A2HJ1uSrtPrjEUNHtN28ffvvpV8PAAC5cAUAAEu7FxX1u/mLlwVWdXRhy8Zkq23rsTD7XIqEz+tFUP3wiFt3Iv8nNTXtXenXAABATlwBAKC8LN248d3Wnbo2U2t15wRZBsKUAuke+wUFz2rfv/+Xqenp3OcMAGANuAIAQHnKzMystGzVqq8btmg1VKXRPeADlUJo9Blqe8ftcxYsrP3TuXMfSD9PAABrwhUAAOTwLDbuA61O71BN77ZGCFPpao1OCY+FXwvnWajWOt36UlW11dx58/9aWFjIfW4AANaGKwAAyOnChavvdO7a10fr4rlTrdUliSGLD15WQJev0uhuhDVpMXLs2GmfSD8PAABrxhUAAKzBxq07/jBg6PD2Kq3jfiFw5fABTDYskD71rBk4acnyVQ6PnjzFen4AoDhcAQDAWqSkpr57/eatv9eqGx5eTe96Qq3R56i0+iIDoczS2NZthVUcnJ5Vd3Ift3z1Oqf7Dx5g314AUCyuAABgjS5fvvZex669ndp07jZNCGSXVVpdvKXDoEq886i7H1AndFuH7r06Tpg4HY96AcAmcAUAAGuWm5tbacnylV8uXr6ikVfNWhPVGv0RQazAPGFQo2fL0VwWgt/KoaPH9hGO43bh4uWPpOcBAKBkXAEAQCnuRUW9f+3GzS8EmrrhzepVd3KdWM3JbYvgVlWdS7pKq8sXwhxTIO5DLO5FrGPb0LH/zK/i4JRd3cktVvj3J6s5uc6trnfruvaHjV5Cf19fu3Hjs/T09HekxwQAsAVcAQDAFly/c6dSmx49/tCxe88qHbv1dOzQtacH07FbD5eO3XvZd+ze/V/jZ836jfTjAAAqAq4AAAAAALaNKwAAAACAbeMKAAAAAGDbuAIAAAAA2DauAAAAAAC2jSsAAAAAgG3jCgAAAABg27gCAAAAANg2rgAAAAAAto0rAAAAAIBt4woA8P82ikfxKB7Fo3gUD28MABn+2DLnewm6AAAAAElFTkSuQmCC;container=0;" vertex="1" parent="1">
          <mxGeometry x="275.1794707297514" y="211.01724137931035" width="49.632913198573135" height="27.966706302021404" as="geometry" />
        </mxCell>
        <mxCell id="ugaCTf1EiENJRhi7maTh-13" value="&lt;font style=&quot;font-size: 11px;&quot;&gt;Broker&lt;/font&gt;" style="text;strokeColor=none;align=center;fillColor=none;html=1;verticalAlign=middle;whiteSpace=wrap;rounded=0;container=0;fontFamily=Times New Roman;fontStyle=1" vertex="1" parent="1">
          <mxGeometry x="290.2315297514033" y="249.21172413793104" width="19.534883720930235" height="6.206896551724138" as="geometry" />
        </mxCell>
        <mxCell id="ugaCTf1EiENJRhi7maTh-31" value="&lt;font style=&quot;font-size: 10px;&quot;&gt;Consumers&lt;/font&gt;" style="text;strokeColor=none;align=center;fillColor=none;html=1;verticalAlign=middle;whiteSpace=wrap;rounded=0;container=0;fontFamily=Times New Roman;fontStyle=1" vertex="1" parent="1">
          <mxGeometry x="360" y="265.5" width="40" height="15.52" as="geometry" />
        </mxCell>
        <mxCell id="ugaCTf1EiENJRhi7maTh-39" value="Buffering" style="text;strokeColor=none;align=center;fillColor=none;html=1;verticalAlign=middle;whiteSpace=wrap;rounded=0;container=0;fontFamily=Times New Roman;fontStyle=1" vertex="1" parent="1">
          <mxGeometry x="170" y="166.4" width="50.61" height="20" as="geometry" />
        </mxCell>
        <mxCell id="ugaCTf1EiENJRhi7maTh-16" value="" style="rounded=1;whiteSpace=wrap;html=1;fillColor=#8C8C8C;arcSize=19;movable=1;resizable=1;rotatable=1;deletable=1;editable=1;locked=0;connectable=1;container=0;" vertex="1" parent="1">
          <mxGeometry x="362.76" y="171.02" width="26.89581419437796" height="89.99022589052996" as="geometry" />
        </mxCell>
        <mxCell id="ugaCTf1EiENJRhi7maTh-20" value="" style="whiteSpace=wrap;html=1;aspect=fixed;movable=1;resizable=1;rotatable=1;deletable=1;editable=1;locked=0;connectable=1;container=0;" vertex="1" parent="1">
          <mxGeometry x="371.06940029288853" y="192.2608250696546" width="12.04008311235317" height="12.04008311235317" as="geometry" />
        </mxCell>
        <mxCell id="ugaCTf1EiENJRhi7maTh-21" value="" style="shape=image;imageAspect=0;aspect=fixed;verticalLabelPosition=bottom;verticalAlign=top;image=data:image/png,iVBORw0KGgoAAAANSUhEUgAAAMgAAADICAYAAACtWK6eAAAABHNCSVQICAgIfAhkiAAAAAlwSFlzAAALEwAACxMBAJqcGAAAEzdJREFUeJztnX+UXVV1xz+TSSa/CEkJpIQEEpJAAAkNICgEYaAIBRUQCQpFpa2I1cJi1VqLuIqKorCg+LvyYymalgIFbERFrBhQQIIBDIglEAIhQZIQMT8hCZN5/WPP6GSceW+fe8+559x792ets9asNefds+999/vOr332BsMwDMPIQltsA0pIBzAd2BfYFdgJGAVsATYCrwDP9JQtkWw0jMIYCpwAXAksArqAhqJ0A08AXwJOAUYUbbhhhGQm8G/AanSCaFXWAdcChxR5E4bhm1nArUgP4EMYA5W7gCOLuiHD8MFY4MvAdsIJo3+ZB+xexM0ZRh6OA35LccLoP/SaG/4WDcOdIcClhB1OacvXkBUyw0iCYcB3iC+MvuVuZNnYMKLSAdxJfEEMVBYi8yHDiMIQ4GbiC6FZWYDtmyRBHXfSrwb+McfnHwV+imwaPg2sBV5DXuhdgBnAwcjE/wiyP+NbgfcggjGMQjidbL/o64EvAPs4tjcZ+CSwJmO7F2S6S8PIwF7IkqrLC7oduAYYl7PtUcC/Ir5ZLu1vA2bnbNswVNyB28v5HPAmzzbsBzzuaMdCZN5kGME4CbeX8gFkPhGCUcB8R3s+GMgWw6ANmVhrX8b7kJc4JEORSbjWpheB4YFtMmrKyehfxCfJP9/QMhz4mYNt5xdkl1Ez/hfdC7gZ2L9g2/ZAv8K1hHouyxsB2RO9n9VHI9l4ttK+Bv4XDYya83F0L97TiG9WDNqA+xU2NoCvRrLRqCgL0L14fxPLwB5ORGfn0lgGGtVjJLCV1i/d74nv99SGvPwakUyJZGMtqfIG1BvRna+4jfjRRxrATcq6R4U0xNiRKgtEuyJ1d1Ar9PxYWW+/oFYYO1BlgcxU1vtFUCv0PIyEFGqF9r4MD1RZIHso6mxCzqKnwDZgmaLepNCGGH+kygIZo6jTG6ghFTRi1dyX4YkqC0RztntTcCvc2KioYwIpkCoLRHNv7cGtcGOooo65mxRIlQXyqqJOasERdlbU2RzcCuMPVFkgaxV1JhPPxWQgpinqaO7L8ESVBbJCUWcoksYgBXYBJirqae7L8ESVBfKUst4xQa3Qo7VjSVArjB2oskAeU9Z7R1Ar9GjteDSoFUZtaEcXxWQ7uk3FkIwCNtDa1m7CnZU3BqDKPch2JMBbK4YAFwa2pRUfQLe/8QiS4s0wvPA+dC7kG9FNkEMwBn3qhUsi2WhUlDHIvoHm5bs5ko1XK+1rIMlDDcMr16N/Ad9bsG1vRX9mPhW3fKNiHIBeIJspLjDCvsDLDradUJBdRg25Bf2LuBaJzh6SaUhoU61ND2I+WEZApqM7n95bNgB/FciWw4FVDrY0gDmBbDGMP/Ap3F7KBpLyYKSn9ocCH0MORrnY8E1P7RtGUzqQ3XVXkTyLJLLJ6hrfhoQ/XZyh7RUUFwrVMJiJ7Hm4vqgN4BlkH2IfdPOBycBFZBNGAzmfbhFMIlPlid8wZDI8BTlnMQbpBU4Ezsh57ReQXe0lyKR+MzIUG48I6GDcs1H1ZwESCqgbOfm4EelRlhI/TFFtqJJAhiP7CscDxyLLu5oTemWjG+nN7gXuAX6IHaIymrA/8HXERynLUKbsZRNwI3BYzudoVIwDkKiI2p3oOpS7kWVko8aMBq4AXif+C5lquQ6ZDxk1Yxbwf8R/ActQVmKrYLViLvAa8V+8MpUu4CNZHrZRLj6MzTXylMuo1oql0YcPEf8Fq0L5jOuDN9LndKzn8Fk+7Pb4jZS73ZnAInQxdgdiEXIm/QlgObITrUkvkBrtyDOYDBwIdAJHki2eQBdwNOmkfDAyMpxsPkzrgc+ji1BYZiYCn0CfQrpveQFzgCw9l+D+xV9P/db+dwKuRCK4uDwry5ZbYqYggaddeo1To1iaDkfjdgirGzg0iqVGbq5F/0WvIfzx2LIwDTm7on12d8Yx08jDJPRHYzcCh8QxM1mm4daT2I9LybgU/Zf77kg2ps6x6Ock10ay0chAG/ohwi2RbCwL16B7juuAEZFsNBw5FN2XuhXYM5KNZWFn9OdjUolunyQpBa8+TlnvO1gSmVZsAL6srKt97kZkfoDuF88OBOmYgu55/iqWgYYbL9D6y3yRtN1jUuOX6IasqWX7TYZUhlij0c0r7kO+VEPHfYo6HcDUwHaUllQEos3w9OugVlQP7fOaHNSKEpOKQDTZlUCGWIaelcp62udfO1IRiNalfVNQK6rHRmW9nYNaUWJSEYjWju1Brage2ueVynuQHPZgDKMJJhDDaIIJxDCaYAIxjCaYQAyjCSYQw2iCCcQwmlDFBDN1ZiRwEDADCQ00Q/m5U5Hd9KeReGLrg1hnZKYTnWv2aZHsS5mxSHjWe/CTEqILCbj310gaOyMBOjGBuDIa+DRyOCqvKAYrS4G3FXVDxuB0YgJx4c3AMsIJo3/5OuIWb0SiExOIljOBbRQnjt7yI2SOUytsFatcnAL8F3HmBicC/0nN3pla3WzJmY7kTY/5nb0T+GjE9gvHBFIevoFMzGNzGSLWWmACKQedwPGxjehhOBIBsxaYQMpBaok4zwYmxDaiCEwg6TMCeLuybhdwFbKbPhbZHdeUicB7gN8o22kHzlDWNTzQiS3zDsZb0D2bbeQfho1CduQ17d2es61SYD1I+hygrHc18JOcbb0KnIPko2/FQTnbKgUmkPSZqKx3o6f2XkI2BVsxxVN7SWMCSR/t0u5zHtt8VlFnGDVwPzGBpI82FnG3xzYtXFAPlb9Bw8iDCcQwmmACMYwm2JHb4mlDDiGdBcwCxtM8P4c2bu6LyP6ED7TBrJcr2lwL3AVcCbycx6g600k9NgrbgZsp/ixHCuUlYP/8j7BYbIhVLOdT3/TVuwO3UrJsViaQYjk3tgGROZCSJQ01gRRHOzVxz2jBobENcMEEUhyTkLMUdWdabANcMIEUR21O4bWgVM/BBFIc2iiHVadUz8EEUhyl+uUMyJ6UaKhpG4XFoRHIVuC20IYEZD9aT8LbkLzsS4Jb4wETSHFohhZLkANLZeVM4BZFvRmYQIKgHRIOQX7JpvFHd/HNwEPEcXdoQ9eDaM5hpIzW/tIMN1MRyAZlvTnAHS3qzEIiAM4a4H9dwBeBi3v+Lopd0fk3hRBIG3ACEolkBpI7/V7geuB3ntuqnEBSYRI6f55u4HOIg19/RgLnIbktWl3nG+FuZUCOUNjUQFxRfDIEuGGQtlYBsz23B+Kc2Oo+vx+g3UrThnxhWse3LuBR4LtIdI0HkYADLs5zBxZyZ8I5Spt8B4f7SIv2luF/RWlhizYbwFOe26wF36ZY79J/Kua2AIlEqLFpb8/tPqFo8xTPbd6kaHMrJXFaTGkf5IaC29u1wLY0K1ivAys8tjkEnXv5Gzy2CZJ0pxUdyLA6eVISyM/RhZspI5pJ6fP4WzjYDYnCrvmVPhU4WVlXg3aiXqod9VSYCrxCMUOsLxRzSwCsVthzl4d23oCcuciSYGcZ8LfkF8pRyvbOy9lObenEfcKdskDGKO35So42RgNX4CeJ58PIjnhWdle2U+QPVOWYgxzRrIJAZivtuSjj9ScCi5VtaMsmsk/e23o+36qNUrjUpDQH6csDwMFIurGyo90Uy7JJuDfyrHwfxBqNbMiemeGzvcO1VpRiszBVgYDsi5wNHIYIZUtcczKjfRE0qz99GYHsA/leGu6lHZgHHJnhs5p7mY4+amQ0UnE1acYiRCg7IRtpc5CI51OR8X070qWvBJ4BHgGui2HoIGhWaxq4x9a9EvgLd3Oc6EB+nA5EXFS0aHrDMchq25oMdhk5GEFacxBNvg3X/Y8ZSPzckHO0vuXzjvZ9SHndIxyvWzgpD7GqgmaI5Tq8+heK/e4uBP7Mob72fpKfh5RhiFVmhgN7Keq5TNA7kHRpWtYg3s0PIY6Ew5Gh2VzgEOU1RiHD3K8p65tXb8KkNMSaqbTlYodralOyNRCX9pGDXKcNOB34vfJaLl4OQ9HtycxzuGYUbIgVlhArWIcr680HPsjg6dQayFLuSejygbwJ/apTF7pFh+R7EBNIWLT+Ri5DLG365U8jImjFQ+g27cbhNg/R3JMJpOaE2CTUvKQN4HGHaz6srKeNNA+6e5qAPpJ8FEwgYdEIZC1yClLLOkWdNtxe5pc8tt1LJVayTCBh0QyxXF1MtC+zy0rX/bQejj2Om0AqsZJlAglHOzo3EFeB/EpZ73L0PlorgH9vUecS5bV6qcS5EBNIOCahS5PsuknYe/6+FeOAXyBLyLsp6l8EfJU/zZa7Dngv7oEWlqFbJEi6B7GNwnCE8uLdCvwA2ehrxSikJ7m8p53VyJzn5Z7yCBICaC2yb3EB4uPVCeyCnHK8B/F1c2ULkhZucot6SQukiqSyUXie0o45Ga59mPLa2rIIeD+6Hs+FexVtP++5Ta/YECscodzcAX4J/DDD5wbjUOBGpJc5w+N1Nfe2FwkHszaBhEMjkM1kd/c+H7dVJQ2Tgf8GvoUcL8iLZvjYG8w6SUwg4dAu8WomsgOxEvg7/nRS7YNzkXnO6JzXKf1SrwkkDNpg1VmGV325A3mZs4qsGUcj/lx5FnK095fsUq8JJAxFBqueB7wTCZfkm79Ezp5kxXoQY0BCOCk2Yz4Szf57nq7Xl0sZOFK+hvXoIsibQGpGyBWswfgtEiVxNnJASrOZqGEo8Ikcn9fcY7JDLNsoDEPIUD992Qc5p9EBPIks/y5Gosl3AG9GNv2mILvpuyGpI1yXVuciQ63lGWx8tsfGZuyNuOZozqUYOUlho3Ceov1tZA/zOR74nwGu+Ti6SCcjgHcgG4TazcQLM9r6GeX1NUeTDQ+kIJAHFe1nzdHXjhxyGuy6v0MfOX0YEstX87zmZ7T3fcrrH5fx+kGxOUgYQuYjPI3mQ5ZdgH9WXut14AOIL1YrtAEe+lPqlSwTiH/GoDsWm1UgxyrquPwab0C3+jWBbJEQTSDGDoRewdIcuZ3oeE1ND9LB4BFSmrEacalphQmkJoRewdK4no/Hzb9Jc7BqK4NHSGlGA929JrnUawLxT2iBPKesdzm6IdHhwImKemvI7tKijXCSXDBrE4h/QgWr7mWhst5ZwDdpHrzhSGT+oXkxtZFPBkIznBxDsXkjVdhGoX80PchKsqdzeABxcx+nqHsusrv+H8CCnnZHA/siCXLe5tDuT5ys3BGX8+kv52jHUBB7H+R5RdsLcrbxJUUbPstrwJ/nsPd4ZTvn5GgjCDbE8os2WHVeH6yrkElzUdyArEZlpbQxskwgfpmKbjyf1wdrBXBZzmtoeQX3/CD9WYFsSrYiuZUsE4hfinJSBMlqm3eopuFcxFM4D9vRBWewHqTiaH8Bfbi5dwHvwi0GrysXA3d6upY2b2FSmED8UmQPApLb41jgZ56u10sDSaPmcyGjlMGsTSB+0Qar3uCxzVeAtyIbgz7OU/wGOAa41sO1+lJKnywTiF80Qyyfpwh72YbEzp1Ndrf0FcDHkPz0P/dkV19KuZJlAvFHqGDVLvwacYffF+lRNDwCnIzYfhUithBYD1JztMGqQwqkl2eQYAsa36n5wF2EP+76HDp7klrqNYH4o8gVLA1dSI/SisdCG9LDFsTVpRXWg1SUolewNHyxxf+fwi17bV5Kl7fQBOKPFAXyLQZfjVqFBKruKs4c1b0nFczaBOIPjUA2kT1YdRYawN8j+dB/hOxmL0ZygByEhAoqEs3wMqlg1ubu7o/Qwaqz0gC+21Ni47KSlTXqi1esB/GDNlh1kcOrFCld3kLrQfygDVbdBRwV2JaU0aamTmaibgLxg/YX78yeYjQnGYHYEMsPyXyhFSGZ52kC8UMyX2hFmEb2uMVeqbNAfIaYSWZSWRE60McXDkoVBbIV3VJqliiBg+EaydBoTZ4gEd6ookAa6KIP7u6xzVUer2UISYT/qaJAAF5S1MmaVmwgbvN4LUN2+7Mk6zGUfA9dHKY9PLXXhriNFxmrqqrlNSQzVhJUtQdZrKx3lqf2GsC7ga9QrPNf1XgQ2Uh9KLYhvSQXLNgTxwH3KOotR/L8aWI2aRmPJJsZ7fi5NkRgmtWbK0joJfLAVuQsvA2rCmIkMlHXdOkXRbKxP6ehs3c7IkLDyMW30b1wm4H9I9nYywRkYUFj748j2WhUjGPQTwyXICmSYzAKuF9hY2+ZG8dMo2q00TwbbP/yBMXv3o4Ffupg41LMwdTwyEm4LTGuQpdtyQeHAU872vf+gmwzakSW/YnbkQBqIZiBpBPodrRpIdVdlk+Wqi7z9mUKEuBZe1inL48B30eGas8C63Hb5xjS0+5UpMc4CXhLBju2IbkEtfs7huHEu3DvRVIqF/h/JIaxI58l/ouepVxPPXp6IzJtwHXEf+Fdyu3AsBAPwzAGYghwDfFffE25CROHEYE24B+QiW9sEQxUuoFPYcMqIzJvRBzkYguib1mOZIwyjCToAD6OLN/GFMarwOdw9wA2jEIYB3wSCc9fpDBWI4luJoS/RcPITztwPHIu40nCiGIpsnT7dnQJd4yI2ESwOWORdGbTe/7eGbd4Td2IO/06JLL6EiSJp2EYhmEYleb/AcU02AGDUDkhAAAAAElFTkSuQmCC;movable=1;resizable=1;rotatable=1;deletable=1;editable=1;locked=0;connectable=1;container=0;" vertex="1" parent="1">
          <mxGeometry x="373.8727529776861" y="193.27193984241592" width="10.32007123915986" height="10.32007123915986" as="geometry" />
        </mxCell>
        <mxCell id="ugaCTf1EiENJRhi7maTh-23" value="" style="whiteSpace=wrap;html=1;aspect=fixed;movable=1;resizable=1;rotatable=1;deletable=1;editable=1;locked=0;connectable=1;container=0;" vertex="1" parent="1">
          <mxGeometry x="371.06940029288853" y="208.43866143383568" width="12.04008311235317" height="12.04008311235317" as="geometry" />
        </mxCell>
        <mxCell id="ugaCTf1EiENJRhi7maTh-24" value="" style="shape=image;imageAspect=0;aspect=fixed;verticalLabelPosition=bottom;verticalAlign=top;image=data:image/png,iVBORw0KGgoAAAANSUhEUgAAAMgAAADICAYAAACtWK6eAAAABHNCSVQICAgIfAhkiAAAAAlwSFlzAAALEwAACxMBAJqcGAAAEzdJREFUeJztnX+UXVV1xz+TSSa/CEkJpIQEEpJAAAkNICgEYaAIBRUQCQpFpa2I1cJi1VqLuIqKorCg+LvyYymalgIFbERFrBhQQIIBDIglEAIhQZIQMT8hCZN5/WPP6GSceW+fe8+559x792ets9asNefds+999/vOr332BsMwDMPIQltsA0pIBzAd2BfYFdgJGAVsATYCrwDP9JQtkWw0jMIYCpwAXAksArqAhqJ0A08AXwJOAUYUbbhhhGQm8G/AanSCaFXWAdcChxR5E4bhm1nArUgP4EMYA5W7gCOLuiHD8MFY4MvAdsIJo3+ZB+xexM0ZRh6OA35LccLoP/SaG/4WDcOdIcClhB1OacvXkBUyw0iCYcB3iC+MvuVuZNnYMKLSAdxJfEEMVBYi8yHDiMIQ4GbiC6FZWYDtmyRBHXfSrwb+McfnHwV+imwaPg2sBV5DXuhdgBnAwcjE/wiyP+NbgfcggjGMQjidbL/o64EvAPs4tjcZ+CSwJmO7F2S6S8PIwF7IkqrLC7oduAYYl7PtUcC/Ir5ZLu1vA2bnbNswVNyB28v5HPAmzzbsBzzuaMdCZN5kGME4CbeX8gFkPhGCUcB8R3s+GMgWw6ANmVhrX8b7kJc4JEORSbjWpheB4YFtMmrKyehfxCfJP9/QMhz4mYNt5xdkl1Ez/hfdC7gZ2L9g2/ZAv8K1hHouyxsB2RO9n9VHI9l4ttK+Bv4XDYya83F0L97TiG9WDNqA+xU2NoCvRrLRqCgL0L14fxPLwB5ORGfn0lgGGtVjJLCV1i/d74nv99SGvPwakUyJZGMtqfIG1BvRna+4jfjRRxrATcq6R4U0xNiRKgtEuyJ1d1Ar9PxYWW+/oFYYO1BlgcxU1vtFUCv0PIyEFGqF9r4MD1RZIHso6mxCzqKnwDZgmaLepNCGGH+kygIZo6jTG6ghFTRi1dyX4YkqC0RztntTcCvc2KioYwIpkCoLRHNv7cGtcGOooo65mxRIlQXyqqJOasERdlbU2RzcCuMPVFkgaxV1JhPPxWQgpinqaO7L8ESVBbJCUWcoksYgBXYBJirqae7L8ESVBfKUst4xQa3Qo7VjSVArjB2oskAeU9Z7R1Ar9GjteDSoFUZtaEcXxWQ7uk3FkIwCNtDa1m7CnZU3BqDKPch2JMBbK4YAFwa2pRUfQLe/8QiS4s0wvPA+dC7kG9FNkEMwBn3qhUsi2WhUlDHIvoHm5bs5ko1XK+1rIMlDDcMr16N/Ad9bsG1vRX9mPhW3fKNiHIBeIJspLjDCvsDLDradUJBdRg25Bf2LuBaJzh6SaUhoU61ND2I+WEZApqM7n95bNgB/FciWw4FVDrY0gDmBbDGMP/Ap3F7KBpLyYKSn9ocCH0MORrnY8E1P7RtGUzqQ3XVXkTyLJLLJ6hrfhoQ/XZyh7RUUFwrVMJiJ7Hm4vqgN4BlkH2IfdPOBycBFZBNGAzmfbhFMIlPlid8wZDI8BTlnMQbpBU4Ezsh57ReQXe0lyKR+MzIUG48I6GDcs1H1ZwESCqgbOfm4EelRlhI/TFFtqJJAhiP7CscDxyLLu5oTemWjG+nN7gXuAX6IHaIymrA/8HXERynLUKbsZRNwI3BYzudoVIwDkKiI2p3oOpS7kWVko8aMBq4AXif+C5lquQ6ZDxk1Yxbwf8R/ActQVmKrYLViLvAa8V+8MpUu4CNZHrZRLj6MzTXylMuo1oql0YcPEf8Fq0L5jOuDN9LndKzn8Fk+7Pb4jZS73ZnAInQxdgdiEXIm/QlgObITrUkvkBrtyDOYDBwIdAJHki2eQBdwNOmkfDAyMpxsPkzrgc+ji1BYZiYCn0CfQrpveQFzgCw9l+D+xV9P/db+dwKuRCK4uDwry5ZbYqYggaddeo1To1iaDkfjdgirGzg0iqVGbq5F/0WvIfzx2LIwDTm7on12d8Yx08jDJPRHYzcCh8QxM1mm4daT2I9LybgU/Zf77kg2ps6x6Ock10ay0chAG/ohwi2RbCwL16B7juuAEZFsNBw5FN2XuhXYM5KNZWFn9OdjUolunyQpBa8+TlnvO1gSmVZsAL6srKt97kZkfoDuF88OBOmYgu55/iqWgYYbL9D6y3yRtN1jUuOX6IasqWX7TYZUhlij0c0r7kO+VEPHfYo6HcDUwHaUllQEos3w9OugVlQP7fOaHNSKEpOKQDTZlUCGWIaelcp62udfO1IRiNalfVNQK6rHRmW9nYNaUWJSEYjWju1Brage2ueVynuQHPZgDKMJJhDDaIIJxDCaYAIxjCaYQAyjCSYQw2iCCcQwmlDFBDN1ZiRwEDADCQ00Q/m5U5Hd9KeReGLrg1hnZKYTnWv2aZHsS5mxSHjWe/CTEqILCbj310gaOyMBOjGBuDIa+DRyOCqvKAYrS4G3FXVDxuB0YgJx4c3AMsIJo3/5OuIWb0SiExOIljOBbRQnjt7yI2SOUytsFatcnAL8F3HmBicC/0nN3pla3WzJmY7kTY/5nb0T+GjE9gvHBFIevoFMzGNzGSLWWmACKQedwPGxjehhOBIBsxaYQMpBaok4zwYmxDaiCEwg6TMCeLuybhdwFbKbPhbZHdeUicB7gN8o22kHzlDWNTzQiS3zDsZb0D2bbeQfho1CduQ17d2es61SYD1I+hygrHc18JOcbb0KnIPko2/FQTnbKgUmkPSZqKx3o6f2XkI2BVsxxVN7SWMCSR/t0u5zHtt8VlFnGDVwPzGBpI82FnG3xzYtXFAPlb9Bw8iDCcQwmmACMYwm2JHb4mlDDiGdBcwCxtM8P4c2bu6LyP6ED7TBrJcr2lwL3AVcCbycx6g600k9NgrbgZsp/ixHCuUlYP/8j7BYbIhVLOdT3/TVuwO3UrJsViaQYjk3tgGROZCSJQ01gRRHOzVxz2jBobENcMEEUhyTkLMUdWdabANcMIEUR21O4bWgVM/BBFIc2iiHVadUz8EEUhyl+uUMyJ6UaKhpG4XFoRHIVuC20IYEZD9aT8LbkLzsS4Jb4wETSHFohhZLkANLZeVM4BZFvRmYQIKgHRIOQX7JpvFHd/HNwEPEcXdoQ9eDaM5hpIzW/tIMN1MRyAZlvTnAHS3qzEIiAM4a4H9dwBeBi3v+Lopd0fk3hRBIG3ACEolkBpI7/V7geuB3ntuqnEBSYRI6f55u4HOIg19/RgLnIbktWl3nG+FuZUCOUNjUQFxRfDIEuGGQtlYBsz23B+Kc2Oo+vx+g3UrThnxhWse3LuBR4LtIdI0HkYADLs5zBxZyZ8I5Spt8B4f7SIv2luF/RWlhizYbwFOe26wF36ZY79J/Kua2AIlEqLFpb8/tPqFo8xTPbd6kaHMrJXFaTGkf5IaC29u1wLY0K1ivAys8tjkEnXv5Gzy2CZJ0pxUdyLA6eVISyM/RhZspI5pJ6fP4WzjYDYnCrvmVPhU4WVlXg3aiXqod9VSYCrxCMUOsLxRzSwCsVthzl4d23oCcuciSYGcZ8LfkF8pRyvbOy9lObenEfcKdskDGKO35So42RgNX4CeJ58PIjnhWdle2U+QPVOWYgxzRrIJAZivtuSjj9ScCi5VtaMsmsk/e23o+36qNUrjUpDQH6csDwMFIurGyo90Uy7JJuDfyrHwfxBqNbMiemeGzvcO1VpRiszBVgYDsi5wNHIYIZUtcczKjfRE0qz99GYHsA/leGu6lHZgHHJnhs5p7mY4+amQ0UnE1acYiRCg7IRtpc5CI51OR8X070qWvBJ4BHgGui2HoIGhWaxq4x9a9EvgLd3Oc6EB+nA5EXFS0aHrDMchq25oMdhk5GEFacxBNvg3X/Y8ZSPzckHO0vuXzjvZ9SHndIxyvWzgpD7GqgmaI5Tq8+heK/e4uBP7Mob72fpKfh5RhiFVmhgN7Keq5TNA7kHRpWtYg3s0PIY6Ew5Gh2VzgEOU1RiHD3K8p65tXb8KkNMSaqbTlYodralOyNRCX9pGDXKcNOB34vfJaLl4OQ9HtycxzuGYUbIgVlhArWIcr680HPsjg6dQayFLuSejygbwJ/apTF7pFh+R7EBNIWLT+Ri5DLG365U8jImjFQ+g27cbhNg/R3JMJpOaE2CTUvKQN4HGHaz6srKeNNA+6e5qAPpJ8FEwgYdEIZC1yClLLOkWdNtxe5pc8tt1LJVayTCBh0QyxXF1MtC+zy0rX/bQejj2Om0AqsZJlAglHOzo3EFeB/EpZ73L0PlorgH9vUecS5bV6qcS5EBNIOCahS5PsuknYe/6+FeOAXyBLyLsp6l8EfJU/zZa7Dngv7oEWlqFbJEi6B7GNwnCE8uLdCvwA2ehrxSikJ7m8p53VyJzn5Z7yCBICaC2yb3EB4uPVCeyCnHK8B/F1c2ULkhZucot6SQukiqSyUXie0o45Ga59mPLa2rIIeD+6Hs+FexVtP++5Ta/YECscodzcAX4J/DDD5wbjUOBGpJc5w+N1Nfe2FwkHszaBhEMjkM1kd/c+H7dVJQ2Tgf8GvoUcL8iLZvjYG8w6SUwg4dAu8WomsgOxEvg7/nRS7YNzkXnO6JzXKf1SrwkkDNpg1VmGV325A3mZs4qsGUcj/lx5FnK095fsUq8JJAxFBqueB7wTCZfkm79Ezp5kxXoQY0BCOCk2Yz4Szf57nq7Xl0sZOFK+hvXoIsibQGpGyBWswfgtEiVxNnJASrOZqGEo8Ikcn9fcY7JDLNsoDEPIUD992Qc5p9EBPIks/y5Gosl3AG9GNv2mILvpuyGpI1yXVuciQ63lGWx8tsfGZuyNuOZozqUYOUlho3Ceov1tZA/zOR74nwGu+Ti6SCcjgHcgG4TazcQLM9r6GeX1NUeTDQ+kIJAHFe1nzdHXjhxyGuy6v0MfOX0YEstX87zmZ7T3fcrrH5fx+kGxOUgYQuYjPI3mQ5ZdgH9WXut14AOIL1YrtAEe+lPqlSwTiH/GoDsWm1UgxyrquPwab0C3+jWBbJEQTSDGDoRewdIcuZ3oeE1ND9LB4BFSmrEacalphQmkJoRewdK4no/Hzb9Jc7BqK4NHSGlGA929JrnUawLxT2iBPKesdzm6IdHhwImKemvI7tKijXCSXDBrE4h/QgWr7mWhst5ZwDdpHrzhSGT+oXkxtZFPBkIznBxDsXkjVdhGoX80PchKsqdzeABxcx+nqHsusrv+H8CCnnZHA/siCXLe5tDuT5ys3BGX8+kv52jHUBB7H+R5RdsLcrbxJUUbPstrwJ/nsPd4ZTvn5GgjCDbE8os2WHVeH6yrkElzUdyArEZlpbQxskwgfpmKbjyf1wdrBXBZzmtoeQX3/CD9WYFsSrYiuZUsE4hfinJSBMlqm3eopuFcxFM4D9vRBWewHqTiaH8Bfbi5dwHvwi0GrysXA3d6upY2b2FSmED8UmQPApLb41jgZ56u10sDSaPmcyGjlMGsTSB+0Qar3uCxzVeAtyIbgz7OU/wGOAa41sO1+lJKnywTiF80Qyyfpwh72YbEzp1Ndrf0FcDHkPz0P/dkV19KuZJlAvFHqGDVLvwacYffF+lRNDwCnIzYfhUithBYD1JztMGqQwqkl2eQYAsa36n5wF2EP+76HDp7klrqNYH4o8gVLA1dSI/SisdCG9LDFsTVpRXWg1SUolewNHyxxf+fwi17bV5Kl7fQBOKPFAXyLQZfjVqFBKruKs4c1b0nFczaBOIPjUA2kT1YdRYawN8j+dB/hOxmL0ZygByEhAoqEs3wMqlg1ubu7o/Qwaqz0gC+21Ni47KSlTXqi1esB/GDNlh1kcOrFCld3kLrQfygDVbdBRwV2JaU0aamTmaibgLxg/YX78yeYjQnGYHYEMsPyXyhFSGZ52kC8UMyX2hFmEb2uMVeqbNAfIaYSWZSWRE60McXDkoVBbIV3VJqliiBg+EaydBoTZ4gEd6ookAa6KIP7u6xzVUer2UISYT/qaJAAF5S1MmaVmwgbvN4LUN2+7Mk6zGUfA9dHKY9PLXXhriNFxmrqqrlNSQzVhJUtQdZrKx3lqf2GsC7ga9QrPNf1XgQ2Uh9KLYhvSQXLNgTxwH3KOotR/L8aWI2aRmPJJsZ7fi5NkRgmtWbK0joJfLAVuQsvA2rCmIkMlHXdOkXRbKxP6ehs3c7IkLDyMW30b1wm4H9I9nYywRkYUFj748j2WhUjGPQTwyXICmSYzAKuF9hY2+ZG8dMo2q00TwbbP/yBMXv3o4Ffupg41LMwdTwyEm4LTGuQpdtyQeHAU872vf+gmwzakSW/YnbkQBqIZiBpBPodrRpIdVdlk+Wqi7z9mUKEuBZe1inL48B30eGas8C63Hb5xjS0+5UpMc4CXhLBju2IbkEtfs7huHEu3DvRVIqF/h/JIaxI58l/ouepVxPPXp6IzJtwHXEf+Fdyu3AsBAPwzAGYghwDfFffE25CROHEYE24B+QiW9sEQxUuoFPYcMqIzJvRBzkYguib1mOZIwyjCToAD6OLN/GFMarwOdw9wA2jEIYB3wSCc9fpDBWI4luJoS/RcPITztwPHIu40nCiGIpsnT7dnQJd4yI2ESwOWORdGbTe/7eGbd4Td2IO/06JLL6EiSJp2EYhmEYleb/AcU02AGDUDkhAAAAAElFTkSuQmCC;movable=1;resizable=1;rotatable=1;deletable=1;editable=1;locked=0;connectable=1;container=0;" vertex="1" parent="1">
          <mxGeometry x="373.8727529776861" y="209.44977620659697" width="10.32007123915986" height="10.32007123915986" as="geometry" />
        </mxCell>
        <mxCell id="ugaCTf1EiENJRhi7maTh-26" value="" style="whiteSpace=wrap;html=1;aspect=fixed;movable=1;resizable=1;rotatable=1;deletable=1;editable=1;locked=0;connectable=1;container=0;" vertex="1" parent="1">
          <mxGeometry x="371.06940029288853" y="224.61649779801675" width="12.04008311235317" height="12.04008311235317" as="geometry" />
        </mxCell>
        <mxCell id="ugaCTf1EiENJRhi7maTh-27" value="" style="shape=image;imageAspect=0;aspect=fixed;verticalLabelPosition=bottom;verticalAlign=top;image=data:image/png,iVBORw0KGgoAAAANSUhEUgAAAMgAAADICAYAAACtWK6eAAAABHNCSVQICAgIfAhkiAAAAAlwSFlzAAALEwAACxMBAJqcGAAAEzdJREFUeJztnX+UXVV1xz+TSSa/CEkJpIQEEpJAAAkNICgEYaAIBRUQCQpFpa2I1cJi1VqLuIqKorCg+LvyYymalgIFbERFrBhQQIIBDIglEAIhQZIQMT8hCZN5/WPP6GSceW+fe8+559x792ets9asNefds+999/vOr332BsMwDMPIQltsA0pIBzAd2BfYFdgJGAVsATYCrwDP9JQtkWw0jMIYCpwAXAksArqAhqJ0A08AXwJOAUYUbbhhhGQm8G/AanSCaFXWAdcChxR5E4bhm1nArUgP4EMYA5W7gCOLuiHD8MFY4MvAdsIJo3+ZB+xexM0ZRh6OA35LccLoP/SaG/4WDcOdIcClhB1OacvXkBUyw0iCYcB3iC+MvuVuZNnYMKLSAdxJfEEMVBYi8yHDiMIQ4GbiC6FZWYDtmyRBHXfSrwb+McfnHwV+imwaPg2sBV5DXuhdgBnAwcjE/wiyP+NbgfcggjGMQjidbL/o64EvAPs4tjcZ+CSwJmO7F2S6S8PIwF7IkqrLC7oduAYYl7PtUcC/Ir5ZLu1vA2bnbNswVNyB28v5HPAmzzbsBzzuaMdCZN5kGME4CbeX8gFkPhGCUcB8R3s+GMgWw6ANmVhrX8b7kJc4JEORSbjWpheB4YFtMmrKyehfxCfJP9/QMhz4mYNt5xdkl1Ez/hfdC7gZ2L9g2/ZAv8K1hHouyxsB2RO9n9VHI9l4ttK+Bv4XDYya83F0L97TiG9WDNqA+xU2NoCvRrLRqCgL0L14fxPLwB5ORGfn0lgGGtVjJLCV1i/d74nv99SGvPwakUyJZGMtqfIG1BvRna+4jfjRRxrATcq6R4U0xNiRKgtEuyJ1d1Ar9PxYWW+/oFYYO1BlgcxU1vtFUCv0PIyEFGqF9r4MD1RZIHso6mxCzqKnwDZgmaLepNCGGH+kygIZo6jTG6ghFTRi1dyX4YkqC0RztntTcCvc2KioYwIpkCoLRHNv7cGtcGOooo65mxRIlQXyqqJOasERdlbU2RzcCuMPVFkgaxV1JhPPxWQgpinqaO7L8ESVBbJCUWcoksYgBXYBJirqae7L8ESVBfKUst4xQa3Qo7VjSVArjB2oskAeU9Z7R1Ar9GjteDSoFUZtaEcXxWQ7uk3FkIwCNtDa1m7CnZU3BqDKPch2JMBbK4YAFwa2pRUfQLe/8QiS4s0wvPA+dC7kG9FNkEMwBn3qhUsi2WhUlDHIvoHm5bs5ko1XK+1rIMlDDcMr16N/Ad9bsG1vRX9mPhW3fKNiHIBeIJspLjDCvsDLDradUJBdRg25Bf2LuBaJzh6SaUhoU61ND2I+WEZApqM7n95bNgB/FciWw4FVDrY0gDmBbDGMP/Ap3F7KBpLyYKSn9ocCH0MORrnY8E1P7RtGUzqQ3XVXkTyLJLLJ6hrfhoQ/XZyh7RUUFwrVMJiJ7Hm4vqgN4BlkH2IfdPOBycBFZBNGAzmfbhFMIlPlid8wZDI8BTlnMQbpBU4Ezsh57ReQXe0lyKR+MzIUG48I6GDcs1H1ZwESCqgbOfm4EelRlhI/TFFtqJJAhiP7CscDxyLLu5oTemWjG+nN7gXuAX6IHaIymrA/8HXERynLUKbsZRNwI3BYzudoVIwDkKiI2p3oOpS7kWVko8aMBq4AXif+C5lquQ6ZDxk1Yxbwf8R/ActQVmKrYLViLvAa8V+8MpUu4CNZHrZRLj6MzTXylMuo1oql0YcPEf8Fq0L5jOuDN9LndKzn8Fk+7Pb4jZS73ZnAInQxdgdiEXIm/QlgObITrUkvkBrtyDOYDBwIdAJHki2eQBdwNOmkfDAyMpxsPkzrgc+ji1BYZiYCn0CfQrpveQFzgCw9l+D+xV9P/db+dwKuRCK4uDwry5ZbYqYggaddeo1To1iaDkfjdgirGzg0iqVGbq5F/0WvIfzx2LIwDTm7on12d8Yx08jDJPRHYzcCh8QxM1mm4daT2I9LybgU/Zf77kg2ps6x6Ock10ay0chAG/ohwi2RbCwL16B7juuAEZFsNBw5FN2XuhXYM5KNZWFn9OdjUolunyQpBa8+TlnvO1gSmVZsAL6srKt97kZkfoDuF88OBOmYgu55/iqWgYYbL9D6y3yRtN1jUuOX6IasqWX7TYZUhlij0c0r7kO+VEPHfYo6HcDUwHaUllQEos3w9OugVlQP7fOaHNSKEpOKQDTZlUCGWIaelcp62udfO1IRiNalfVNQK6rHRmW9nYNaUWJSEYjWju1Brage2ueVynuQHPZgDKMJJhDDaIIJxDCaYAIxjCaYQAyjCSYQw2iCCcQwmlDFBDN1ZiRwEDADCQ00Q/m5U5Hd9KeReGLrg1hnZKYTnWv2aZHsS5mxSHjWe/CTEqILCbj310gaOyMBOjGBuDIa+DRyOCqvKAYrS4G3FXVDxuB0YgJx4c3AMsIJo3/5OuIWb0SiExOIljOBbRQnjt7yI2SOUytsFatcnAL8F3HmBicC/0nN3pla3WzJmY7kTY/5nb0T+GjE9gvHBFIevoFMzGNzGSLWWmACKQedwPGxjehhOBIBsxaYQMpBaok4zwYmxDaiCEwg6TMCeLuybhdwFbKbPhbZHdeUicB7gN8o22kHzlDWNTzQiS3zDsZb0D2bbeQfho1CduQ17d2es61SYD1I+hygrHc18JOcbb0KnIPko2/FQTnbKgUmkPSZqKx3o6f2XkI2BVsxxVN7SWMCSR/t0u5zHtt8VlFnGDVwPzGBpI82FnG3xzYtXFAPlb9Bw8iDCcQwmmACMYwm2JHb4mlDDiGdBcwCxtM8P4c2bu6LyP6ED7TBrJcr2lwL3AVcCbycx6g600k9NgrbgZsp/ixHCuUlYP/8j7BYbIhVLOdT3/TVuwO3UrJsViaQYjk3tgGROZCSJQ01gRRHOzVxz2jBobENcMEEUhyTkLMUdWdabANcMIEUR21O4bWgVM/BBFIc2iiHVadUz8EEUhyl+uUMyJ6UaKhpG4XFoRHIVuC20IYEZD9aT8LbkLzsS4Jb4wETSHFohhZLkANLZeVM4BZFvRmYQIKgHRIOQX7JpvFHd/HNwEPEcXdoQ9eDaM5hpIzW/tIMN1MRyAZlvTnAHS3qzEIiAM4a4H9dwBeBi3v+Lopd0fk3hRBIG3ACEolkBpI7/V7geuB3ntuqnEBSYRI6f55u4HOIg19/RgLnIbktWl3nG+FuZUCOUNjUQFxRfDIEuGGQtlYBsz23B+Kc2Oo+vx+g3UrThnxhWse3LuBR4LtIdI0HkYADLs5zBxZyZ8I5Spt8B4f7SIv2luF/RWlhizYbwFOe26wF36ZY79J/Kua2AIlEqLFpb8/tPqFo8xTPbd6kaHMrJXFaTGkf5IaC29u1wLY0K1ivAys8tjkEnXv5Gzy2CZJ0pxUdyLA6eVISyM/RhZspI5pJ6fP4WzjYDYnCrvmVPhU4WVlXg3aiXqod9VSYCrxCMUOsLxRzSwCsVthzl4d23oCcuciSYGcZ8LfkF8pRyvbOy9lObenEfcKdskDGKO35So42RgNX4CeJ58PIjnhWdle2U+QPVOWYgxzRrIJAZivtuSjj9ScCi5VtaMsmsk/e23o+36qNUrjUpDQH6csDwMFIurGyo90Uy7JJuDfyrHwfxBqNbMiemeGzvcO1VpRiszBVgYDsi5wNHIYIZUtcczKjfRE0qz99GYHsA/leGu6lHZgHHJnhs5p7mY4+amQ0UnE1acYiRCg7IRtpc5CI51OR8X070qWvBJ4BHgGui2HoIGhWaxq4x9a9EvgLd3Oc6EB+nA5EXFS0aHrDMchq25oMdhk5GEFacxBNvg3X/Y8ZSPzckHO0vuXzjvZ9SHndIxyvWzgpD7GqgmaI5Tq8+heK/e4uBP7Mob72fpKfh5RhiFVmhgN7Keq5TNA7kHRpWtYg3s0PIY6Ew5Gh2VzgEOU1RiHD3K8p65tXb8KkNMSaqbTlYodralOyNRCX9pGDXKcNOB34vfJaLl4OQ9HtycxzuGYUbIgVlhArWIcr680HPsjg6dQayFLuSejygbwJ/apTF7pFh+R7EBNIWLT+Ri5DLG365U8jImjFQ+g27cbhNg/R3JMJpOaE2CTUvKQN4HGHaz6srKeNNA+6e5qAPpJ8FEwgYdEIZC1yClLLOkWdNtxe5pc8tt1LJVayTCBh0QyxXF1MtC+zy0rX/bQejj2Om0AqsZJlAglHOzo3EFeB/EpZ73L0PlorgH9vUecS5bV6qcS5EBNIOCahS5PsuknYe/6+FeOAXyBLyLsp6l8EfJU/zZa7Dngv7oEWlqFbJEi6B7GNwnCE8uLdCvwA2ehrxSikJ7m8p53VyJzn5Z7yCBICaC2yb3EB4uPVCeyCnHK8B/F1c2ULkhZucot6SQukiqSyUXie0o45Ga59mPLa2rIIeD+6Hs+FexVtP++5Ta/YECscodzcAX4J/DDD5wbjUOBGpJc5w+N1Nfe2FwkHszaBhEMjkM1kd/c+H7dVJQ2Tgf8GvoUcL8iLZvjYG8w6SUwg4dAu8WomsgOxEvg7/nRS7YNzkXnO6JzXKf1SrwkkDNpg1VmGV325A3mZs4qsGUcj/lx5FnK095fsUq8JJAxFBqueB7wTCZfkm79Ezp5kxXoQY0BCOCk2Yz4Szf57nq7Xl0sZOFK+hvXoIsibQGpGyBWswfgtEiVxNnJASrOZqGEo8Ikcn9fcY7JDLNsoDEPIUD992Qc5p9EBPIks/y5Gosl3AG9GNv2mILvpuyGpI1yXVuciQ63lGWx8tsfGZuyNuOZozqUYOUlho3Ceov1tZA/zOR74nwGu+Ti6SCcjgHcgG4TazcQLM9r6GeX1NUeTDQ+kIJAHFe1nzdHXjhxyGuy6v0MfOX0YEstX87zmZ7T3fcrrH5fx+kGxOUgYQuYjPI3mQ5ZdgH9WXut14AOIL1YrtAEe+lPqlSwTiH/GoDsWm1UgxyrquPwab0C3+jWBbJEQTSDGDoRewdIcuZ3oeE1ND9LB4BFSmrEacalphQmkJoRewdK4no/Hzb9Jc7BqK4NHSGlGA929JrnUawLxT2iBPKesdzm6IdHhwImKemvI7tKijXCSXDBrE4h/QgWr7mWhst5ZwDdpHrzhSGT+oXkxtZFPBkIznBxDsXkjVdhGoX80PchKsqdzeABxcx+nqHsusrv+H8CCnnZHA/siCXLe5tDuT5ys3BGX8+kv52jHUBB7H+R5RdsLcrbxJUUbPstrwJ/nsPd4ZTvn5GgjCDbE8os2WHVeH6yrkElzUdyArEZlpbQxskwgfpmKbjyf1wdrBXBZzmtoeQX3/CD9WYFsSrYiuZUsE4hfinJSBMlqm3eopuFcxFM4D9vRBWewHqTiaH8Bfbi5dwHvwi0GrysXA3d6upY2b2FSmED8UmQPApLb41jgZ56u10sDSaPmcyGjlMGsTSB+0Qar3uCxzVeAtyIbgz7OU/wGOAa41sO1+lJKnywTiF80Qyyfpwh72YbEzp1Ndrf0FcDHkPz0P/dkV19KuZJlAvFHqGDVLvwacYffF+lRNDwCnIzYfhUithBYD1JztMGqQwqkl2eQYAsa36n5wF2EP+76HDp7klrqNYH4o8gVLA1dSI/SisdCG9LDFsTVpRXWg1SUolewNHyxxf+fwi17bV5Kl7fQBOKPFAXyLQZfjVqFBKruKs4c1b0nFczaBOIPjUA2kT1YdRYawN8j+dB/hOxmL0ZygByEhAoqEs3wMqlg1ubu7o/Qwaqz0gC+21Ni47KSlTXqi1esB/GDNlh1kcOrFCld3kLrQfygDVbdBRwV2JaU0aamTmaibgLxg/YX78yeYjQnGYHYEMsPyXyhFSGZ52kC8UMyX2hFmEb2uMVeqbNAfIaYSWZSWRE60McXDkoVBbIV3VJqliiBg+EaydBoTZ4gEd6ookAa6KIP7u6xzVUer2UISYT/qaJAAF5S1MmaVmwgbvN4LUN2+7Mk6zGUfA9dHKY9PLXXhriNFxmrqqrlNSQzVhJUtQdZrKx3lqf2GsC7ga9QrPNf1XgQ2Uh9KLYhvSQXLNgTxwH3KOotR/L8aWI2aRmPJJsZ7fi5NkRgmtWbK0joJfLAVuQsvA2rCmIkMlHXdOkXRbKxP6ehs3c7IkLDyMW30b1wm4H9I9nYywRkYUFj748j2WhUjGPQTwyXICmSYzAKuF9hY2+ZG8dMo2q00TwbbP/yBMXv3o4Ffupg41LMwdTwyEm4LTGuQpdtyQeHAU872vf+gmwzakSW/YnbkQBqIZiBpBPodrRpIdVdlk+Wqi7z9mUKEuBZe1inL48B30eGas8C63Hb5xjS0+5UpMc4CXhLBju2IbkEtfs7huHEu3DvRVIqF/h/JIaxI58l/ouepVxPPXp6IzJtwHXEf+Fdyu3AsBAPwzAGYghwDfFffE25CROHEYE24B+QiW9sEQxUuoFPYcMqIzJvRBzkYguib1mOZIwyjCToAD6OLN/GFMarwOdw9wA2jEIYB3wSCc9fpDBWI4luJoS/RcPITztwPHIu40nCiGIpsnT7dnQJd4yI2ESwOWORdGbTe/7eGbd4Td2IO/06JLL6EiSJp2EYhmEYleb/AcU02AGDUDkhAAAAAElFTkSuQmCC;movable=1;resizable=1;rotatable=1;deletable=1;editable=1;locked=0;connectable=1;container=0;" vertex="1" parent="1">
          <mxGeometry x="373.8727529776861" y="225.62761257077807" width="10.32007123915986" height="10.32007123915986" as="geometry" />
        </mxCell>
        <mxCell id="ugaCTf1EiENJRhi7maTh-29" value="" style="whiteSpace=wrap;html=1;aspect=fixed;movable=1;resizable=1;rotatable=1;deletable=1;editable=1;locked=0;connectable=1;container=0;" vertex="1" parent="1">
          <mxGeometry x="371.06940029288853" y="240.79433416219783" width="12.04008311235317" height="12.04008311235317" as="geometry" />
        </mxCell>
        <mxCell id="ugaCTf1EiENJRhi7maTh-30" value="" style="shape=image;imageAspect=0;aspect=fixed;verticalLabelPosition=bottom;verticalAlign=top;image=data:image/png,iVBORw0KGgoAAAANSUhEUgAAAMgAAADICAYAAACtWK6eAAAABHNCSVQICAgIfAhkiAAAAAlwSFlzAAALEwAACxMBAJqcGAAAEzdJREFUeJztnX+UXVV1xz+TSSa/CEkJpIQEEpJAAAkNICgEYaAIBRUQCQpFpa2I1cJi1VqLuIqKorCg+LvyYymalgIFbERFrBhQQIIBDIglEAIhQZIQMT8hCZN5/WPP6GSceW+fe8+559x792ets9asNefds+999/vOr332BsMwDMPIQltsA0pIBzAd2BfYFdgJGAVsATYCrwDP9JQtkWw0jMIYCpwAXAksArqAhqJ0A08AXwJOAUYUbbhhhGQm8G/AanSCaFXWAdcChxR5E4bhm1nArUgP4EMYA5W7gCOLuiHD8MFY4MvAdsIJo3+ZB+xexM0ZRh6OA35LccLoP/SaG/4WDcOdIcClhB1OacvXkBUyw0iCYcB3iC+MvuVuZNnYMKLSAdxJfEEMVBYi8yHDiMIQ4GbiC6FZWYDtmyRBHXfSrwb+McfnHwV+imwaPg2sBV5DXuhdgBnAwcjE/wiyP+NbgfcggjGMQjidbL/o64EvAPs4tjcZ+CSwJmO7F2S6S8PIwF7IkqrLC7oduAYYl7PtUcC/Ir5ZLu1vA2bnbNswVNyB28v5HPAmzzbsBzzuaMdCZN5kGME4CbeX8gFkPhGCUcB8R3s+GMgWw6ANmVhrX8b7kJc4JEORSbjWpheB4YFtMmrKyehfxCfJP9/QMhz4mYNt5xdkl1Ez/hfdC7gZ2L9g2/ZAv8K1hHouyxsB2RO9n9VHI9l4ttK+Bv4XDYya83F0L97TiG9WDNqA+xU2NoCvRrLRqCgL0L14fxPLwB5ORGfn0lgGGtVjJLCV1i/d74nv99SGvPwakUyJZGMtqfIG1BvRna+4jfjRRxrATcq6R4U0xNiRKgtEuyJ1d1Ar9PxYWW+/oFYYO1BlgcxU1vtFUCv0PIyEFGqF9r4MD1RZIHso6mxCzqKnwDZgmaLepNCGGH+kygIZo6jTG6ghFTRi1dyX4YkqC0RztntTcCvc2KioYwIpkCoLRHNv7cGtcGOooo65mxRIlQXyqqJOasERdlbU2RzcCuMPVFkgaxV1JhPPxWQgpinqaO7L8ESVBbJCUWcoksYgBXYBJirqae7L8ESVBfKUst4xQa3Qo7VjSVArjB2oskAeU9Z7R1Ar9GjteDSoFUZtaEcXxWQ7uk3FkIwCNtDa1m7CnZU3BqDKPch2JMBbK4YAFwa2pRUfQLe/8QiS4s0wvPA+dC7kG9FNkEMwBn3qhUsi2WhUlDHIvoHm5bs5ko1XK+1rIMlDDcMr16N/Ad9bsG1vRX9mPhW3fKNiHIBeIJspLjDCvsDLDradUJBdRg25Bf2LuBaJzh6SaUhoU61ND2I+WEZApqM7n95bNgB/FciWw4FVDrY0gDmBbDGMP/Ap3F7KBpLyYKSn9ocCH0MORrnY8E1P7RtGUzqQ3XVXkTyLJLLJ6hrfhoQ/XZyh7RUUFwrVMJiJ7Hm4vqgN4BlkH2IfdPOBycBFZBNGAzmfbhFMIlPlid8wZDI8BTlnMQbpBU4Ezsh57ReQXe0lyKR+MzIUG48I6GDcs1H1ZwESCqgbOfm4EelRlhI/TFFtqJJAhiP7CscDxyLLu5oTemWjG+nN7gXuAX6IHaIymrA/8HXERynLUKbsZRNwI3BYzudoVIwDkKiI2p3oOpS7kWVko8aMBq4AXif+C5lquQ6ZDxk1Yxbwf8R/ActQVmKrYLViLvAa8V+8MpUu4CNZHrZRLj6MzTXylMuo1oql0YcPEf8Fq0L5jOuDN9LndKzn8Fk+7Pb4jZS73ZnAInQxdgdiEXIm/QlgObITrUkvkBrtyDOYDBwIdAJHki2eQBdwNOmkfDAyMpxsPkzrgc+ji1BYZiYCn0CfQrpveQFzgCw9l+D+xV9P/db+dwKuRCK4uDwry5ZbYqYggaddeo1To1iaDkfjdgirGzg0iqVGbq5F/0WvIfzx2LIwDTm7on12d8Yx08jDJPRHYzcCh8QxM1mm4daT2I9LybgU/Zf77kg2ps6x6Ock10ay0chAG/ohwi2RbCwL16B7juuAEZFsNBw5FN2XuhXYM5KNZWFn9OdjUolunyQpBa8+TlnvO1gSmVZsAL6srKt97kZkfoDuF88OBOmYgu55/iqWgYYbL9D6y3yRtN1jUuOX6IasqWX7TYZUhlij0c0r7kO+VEPHfYo6HcDUwHaUllQEos3w9OugVlQP7fOaHNSKEpOKQDTZlUCGWIaelcp62udfO1IRiNalfVNQK6rHRmW9nYNaUWJSEYjWju1Brage2ueVynuQHPZgDKMJJhDDaIIJxDCaYAIxjCaYQAyjCSYQw2iCCcQwmlDFBDN1ZiRwEDADCQ00Q/m5U5Hd9KeReGLrg1hnZKYTnWv2aZHsS5mxSHjWe/CTEqILCbj310gaOyMBOjGBuDIa+DRyOCqvKAYrS4G3FXVDxuB0YgJx4c3AMsIJo3/5OuIWb0SiExOIljOBbRQnjt7yI2SOUytsFatcnAL8F3HmBicC/0nN3pla3WzJmY7kTY/5nb0T+GjE9gvHBFIevoFMzGNzGSLWWmACKQedwPGxjehhOBIBsxaYQMpBaok4zwYmxDaiCEwg6TMCeLuybhdwFbKbPhbZHdeUicB7gN8o22kHzlDWNTzQiS3zDsZb0D2bbeQfho1CduQ17d2es61SYD1I+hygrHc18JOcbb0KnIPko2/FQTnbKgUmkPSZqKx3o6f2XkI2BVsxxVN7SWMCSR/t0u5zHtt8VlFnGDVwPzGBpI82FnG3xzYtXFAPlb9Bw8iDCcQwmmACMYwm2JHb4mlDDiGdBcwCxtM8P4c2bu6LyP6ED7TBrJcr2lwL3AVcCbycx6g600k9NgrbgZsp/ixHCuUlYP/8j7BYbIhVLOdT3/TVuwO3UrJsViaQYjk3tgGROZCSJQ01gRRHOzVxz2jBobENcMEEUhyTkLMUdWdabANcMIEUR21O4bWgVM/BBFIc2iiHVadUz8EEUhyl+uUMyJ6UaKhpG4XFoRHIVuC20IYEZD9aT8LbkLzsS4Jb4wETSHFohhZLkANLZeVM4BZFvRmYQIKgHRIOQX7JpvFHd/HNwEPEcXdoQ9eDaM5hpIzW/tIMN1MRyAZlvTnAHS3qzEIiAM4a4H9dwBeBi3v+Lopd0fk3hRBIG3ACEolkBpI7/V7geuB3ntuqnEBSYRI6f55u4HOIg19/RgLnIbktWl3nG+FuZUCOUNjUQFxRfDIEuGGQtlYBsz23B+Kc2Oo+vx+g3UrThnxhWse3LuBR4LtIdI0HkYADLs5zBxZyZ8I5Spt8B4f7SIv2luF/RWlhizYbwFOe26wF36ZY79J/Kua2AIlEqLFpb8/tPqFo8xTPbd6kaHMrJXFaTGkf5IaC29u1wLY0K1ivAys8tjkEnXv5Gzy2CZJ0pxUdyLA6eVISyM/RhZspI5pJ6fP4WzjYDYnCrvmVPhU4WVlXg3aiXqod9VSYCrxCMUOsLxRzSwCsVthzl4d23oCcuciSYGcZ8LfkF8pRyvbOy9lObenEfcKdskDGKO35So42RgNX4CeJ58PIjnhWdle2U+QPVOWYgxzRrIJAZivtuSjj9ScCi5VtaMsmsk/e23o+36qNUrjUpDQH6csDwMFIurGyo90Uy7JJuDfyrHwfxBqNbMiemeGzvcO1VpRiszBVgYDsi5wNHIYIZUtcczKjfRE0qz99GYHsA/leGu6lHZgHHJnhs5p7mY4+amQ0UnE1acYiRCg7IRtpc5CI51OR8X070qWvBJ4BHgGui2HoIGhWaxq4x9a9EvgLd3Oc6EB+nA5EXFS0aHrDMchq25oMdhk5GEFacxBNvg3X/Y8ZSPzckHO0vuXzjvZ9SHndIxyvWzgpD7GqgmaI5Tq8+heK/e4uBP7Mob72fpKfh5RhiFVmhgN7Keq5TNA7kHRpWtYg3s0PIY6Ew5Gh2VzgEOU1RiHD3K8p65tXb8KkNMSaqbTlYodralOyNRCX9pGDXKcNOB34vfJaLl4OQ9HtycxzuGYUbIgVlhArWIcr680HPsjg6dQayFLuSejygbwJ/apTF7pFh+R7EBNIWLT+Ri5DLG365U8jImjFQ+g27cbhNg/R3JMJpOaE2CTUvKQN4HGHaz6srKeNNA+6e5qAPpJ8FEwgYdEIZC1yClLLOkWdNtxe5pc8tt1LJVayTCBh0QyxXF1MtC+zy0rX/bQejj2Om0AqsZJlAglHOzo3EFeB/EpZ73L0PlorgH9vUecS5bV6qcS5EBNIOCahS5PsuknYe/6+FeOAXyBLyLsp6l8EfJU/zZa7Dngv7oEWlqFbJEi6B7GNwnCE8uLdCvwA2ehrxSikJ7m8p53VyJzn5Z7yCBICaC2yb3EB4uPVCeyCnHK8B/F1c2ULkhZucot6SQukiqSyUXie0o45Ga59mPLa2rIIeD+6Hs+FexVtP++5Ta/YECscodzcAX4J/DDD5wbjUOBGpJc5w+N1Nfe2FwkHszaBhEMjkM1kd/c+H7dVJQ2Tgf8GvoUcL8iLZvjYG8w6SUwg4dAu8WomsgOxEvg7/nRS7YNzkXnO6JzXKf1SrwkkDNpg1VmGV325A3mZs4qsGUcj/lx5FnK095fsUq8JJAxFBqueB7wTCZfkm79Ezp5kxXoQY0BCOCk2Yz4Szf57nq7Xl0sZOFK+hvXoIsibQGpGyBWswfgtEiVxNnJASrOZqGEo8Ikcn9fcY7JDLNsoDEPIUD992Qc5p9EBPIks/y5Gosl3AG9GNv2mILvpuyGpI1yXVuciQ63lGWx8tsfGZuyNuOZozqUYOUlho3Ceov1tZA/zOR74nwGu+Ti6SCcjgHcgG4TazcQLM9r6GeX1NUeTDQ+kIJAHFe1nzdHXjhxyGuy6v0MfOX0YEstX87zmZ7T3fcrrH5fx+kGxOUgYQuYjPI3mQ5ZdgH9WXut14AOIL1YrtAEe+lPqlSwTiH/GoDsWm1UgxyrquPwab0C3+jWBbJEQTSDGDoRewdIcuZ3oeE1ND9LB4BFSmrEacalphQmkJoRewdK4no/Hzb9Jc7BqK4NHSGlGA929JrnUawLxT2iBPKesdzm6IdHhwImKemvI7tKijXCSXDBrE4h/QgWr7mWhst5ZwDdpHrzhSGT+oXkxtZFPBkIznBxDsXkjVdhGoX80PchKsqdzeABxcx+nqHsusrv+H8CCnnZHA/siCXLe5tDuT5ys3BGX8+kv52jHUBB7H+R5RdsLcrbxJUUbPstrwJ/nsPd4ZTvn5GgjCDbE8os2WHVeH6yrkElzUdyArEZlpbQxskwgfpmKbjyf1wdrBXBZzmtoeQX3/CD9WYFsSrYiuZUsE4hfinJSBMlqm3eopuFcxFM4D9vRBWewHqTiaH8Bfbi5dwHvwi0GrysXA3d6upY2b2FSmED8UmQPApLb41jgZ56u10sDSaPmcyGjlMGsTSB+0Qar3uCxzVeAtyIbgz7OU/wGOAa41sO1+lJKnywTiF80Qyyfpwh72YbEzp1Ndrf0FcDHkPz0P/dkV19KuZJlAvFHqGDVLvwacYffF+lRNDwCnIzYfhUithBYD1JztMGqQwqkl2eQYAsa36n5wF2EP+76HDp7klrqNYH4o8gVLA1dSI/SisdCG9LDFsTVpRXWg1SUolewNHyxxf+fwi17bV5Kl7fQBOKPFAXyLQZfjVqFBKruKs4c1b0nFczaBOIPjUA2kT1YdRYawN8j+dB/hOxmL0ZygByEhAoqEs3wMqlg1ubu7o/Qwaqz0gC+21Ni47KSlTXqi1esB/GDNlh1kcOrFCld3kLrQfygDVbdBRwV2JaU0aamTmaibgLxg/YX78yeYjQnGYHYEMsPyXyhFSGZ52kC8UMyX2hFmEb2uMVeqbNAfIaYSWZSWRE60McXDkoVBbIV3VJqliiBg+EaydBoTZ4gEd6ookAa6KIP7u6xzVUer2UISYT/qaJAAF5S1MmaVmwgbvN4LUN2+7Mk6zGUfA9dHKY9PLXXhriNFxmrqqrlNSQzVhJUtQdZrKx3lqf2GsC7ga9QrPNf1XgQ2Uh9KLYhvSQXLNgTxwH3KOotR/L8aWI2aRmPJJsZ7fi5NkRgmtWbK0joJfLAVuQsvA2rCmIkMlHXdOkXRbKxP6ehs3c7IkLDyMW30b1wm4H9I9nYywRkYUFj748j2WhUjGPQTwyXICmSYzAKuF9hY2+ZG8dMo2q00TwbbP/yBMXv3o4Ffupg41LMwdTwyEm4LTGuQpdtyQeHAU872vf+gmwzakSW/YnbkQBqIZiBpBPodrRpIdVdlk+Wqi7z9mUKEuBZe1inL48B30eGas8C63Hb5xjS0+5UpMc4CXhLBju2IbkEtfs7huHEu3DvRVIqF/h/JIaxI58l/ouepVxPPXp6IzJtwHXEf+Fdyu3AsBAPwzAGYghwDfFffE25CROHEYE24B+QiW9sEQxUuoFPYcMqIzJvRBzkYguib1mOZIwyjCToAD6OLN/GFMarwOdw9wA2jEIYB3wSCc9fpDBWI4luJoS/RcPITztwPHIu40nCiGIpsnT7dnQJd4yI2ESwOWORdGbTe/7eGbd4Td2IO/06JLL6EiSJp2EYhmEYleb/AcU02AGDUDkhAAAAAElFTkSuQmCC;movable=1;resizable=1;rotatable=1;deletable=1;editable=1;locked=0;connectable=1;container=0;" vertex="1" parent="1">
          <mxGeometry x="373.8727529776861" y="241.80544893495912" width="10.32007123915986" height="10.32007123915986" as="geometry" />
        </mxCell>
        <mxCell id="ugaCTf1EiENJRhi7maTh-36" value="" style="whiteSpace=wrap;html=1;aspect=fixed;movable=1;resizable=1;rotatable=1;deletable=1;editable=1;locked=0;connectable=1;container=0;" vertex="1" parent="1">
          <mxGeometry x="371.06940029288853" y="175.06816651187876" width="12.037195949566021" height="12.037195949566021" as="geometry" />
        </mxCell>
        <mxCell id="ugaCTf1EiENJRhi7maTh-37" value="" style="shape=image;imageAspect=0;aspect=fixed;verticalLabelPosition=bottom;verticalAlign=top;image=data:image/png,iVBORw0KGgoAAAANSUhEUgAAAMgAAADICAYAAACtWK6eAAAABHNCSVQICAgIfAhkiAAAAAlwSFlzAAALEwAACxMBAJqcGAAAEzdJREFUeJztnX+UXVV1xz+TSSa/CEkJpIQEEpJAAAkNICgEYaAIBRUQCQpFpa2I1cJi1VqLuIqKorCg+LvyYymalgIFbERFrBhQQIIBDIglEAIhQZIQMT8hCZN5/WPP6GSceW+fe8+559x792ets9asNefds+999/vOr332BsMwDMPIQltsA0pIBzAd2BfYFdgJGAVsATYCrwDP9JQtkWw0jMIYCpwAXAksArqAhqJ0A08AXwJOAUYUbbhhhGQm8G/AanSCaFXWAdcChxR5E4bhm1nArUgP4EMYA5W7gCOLuiHD8MFY4MvAdsIJo3+ZB+xexM0ZRh6OA35LccLoP/SaG/4WDcOdIcClhB1OacvXkBUyw0iCYcB3iC+MvuVuZNnYMKLSAdxJfEEMVBYi8yHDiMIQ4GbiC6FZWYDtmyRBHXfSrwb+McfnHwV+imwaPg2sBV5DXuhdgBnAwcjE/wiyP+NbgfcggjGMQjidbL/o64EvAPs4tjcZ+CSwJmO7F2S6S8PIwF7IkqrLC7oduAYYl7PtUcC/Ir5ZLu1vA2bnbNswVNyB28v5HPAmzzbsBzzuaMdCZN5kGME4CbeX8gFkPhGCUcB8R3s+GMgWw6ANmVhrX8b7kJc4JEORSbjWpheB4YFtMmrKyehfxCfJP9/QMhz4mYNt5xdkl1Ez/hfdC7gZ2L9g2/ZAv8K1hHouyxsB2RO9n9VHI9l4ttK+Bv4XDYya83F0L97TiG9WDNqA+xU2NoCvRrLRqCgL0L14fxPLwB5ORGfn0lgGGtVjJLCV1i/d74nv99SGvPwakUyJZGMtqfIG1BvRna+4jfjRRxrATcq6R4U0xNiRKgtEuyJ1d1Ar9PxYWW+/oFYYO1BlgcxU1vtFUCv0PIyEFGqF9r4MD1RZIHso6mxCzqKnwDZgmaLepNCGGH+kygIZo6jTG6ghFTRi1dyX4YkqC0RztntTcCvc2KioYwIpkCoLRHNv7cGtcGOooo65mxRIlQXyqqJOasERdlbU2RzcCuMPVFkgaxV1JhPPxWQgpinqaO7L8ESVBbJCUWcoksYgBXYBJirqae7L8ESVBfKUst4xQa3Qo7VjSVArjB2oskAeU9Z7R1Ar9GjteDSoFUZtaEcXxWQ7uk3FkIwCNtDa1m7CnZU3BqDKPch2JMBbK4YAFwa2pRUfQLe/8QiS4s0wvPA+dC7kG9FNkEMwBn3qhUsi2WhUlDHIvoHm5bs5ko1XK+1rIMlDDcMr16N/Ad9bsG1vRX9mPhW3fKNiHIBeIJspLjDCvsDLDradUJBdRg25Bf2LuBaJzh6SaUhoU61ND2I+WEZApqM7n95bNgB/FciWw4FVDrY0gDmBbDGMP/Ap3F7KBpLyYKSn9ocCH0MORrnY8E1P7RtGUzqQ3XVXkTyLJLLJ6hrfhoQ/XZyh7RUUFwrVMJiJ7Hm4vqgN4BlkH2IfdPOBycBFZBNGAzmfbhFMIlPlid8wZDI8BTlnMQbpBU4Ezsh57ReQXe0lyKR+MzIUG48I6GDcs1H1ZwESCqgbOfm4EelRlhI/TFFtqJJAhiP7CscDxyLLu5oTemWjG+nN7gXuAX6IHaIymrA/8HXERynLUKbsZRNwI3BYzudoVIwDkKiI2p3oOpS7kWVko8aMBq4AXif+C5lquQ6ZDxk1Yxbwf8R/ActQVmKrYLViLvAa8V+8MpUu4CNZHrZRLj6MzTXylMuo1oql0YcPEf8Fq0L5jOuDN9LndKzn8Fk+7Pb4jZS73ZnAInQxdgdiEXIm/QlgObITrUkvkBrtyDOYDBwIdAJHki2eQBdwNOmkfDAyMpxsPkzrgc+ji1BYZiYCn0CfQrpveQFzgCw9l+D+xV9P/db+dwKuRCK4uDwry5ZbYqYggaddeo1To1iaDkfjdgirGzg0iqVGbq5F/0WvIfzx2LIwDTm7on12d8Yx08jDJPRHYzcCh8QxM1mm4daT2I9LybgU/Zf77kg2ps6x6Ock10ay0chAG/ohwi2RbCwL16B7juuAEZFsNBw5FN2XuhXYM5KNZWFn9OdjUolunyQpBa8+TlnvO1gSmVZsAL6srKt97kZkfoDuF88OBOmYgu55/iqWgYYbL9D6y3yRtN1jUuOX6IasqWX7TYZUhlij0c0r7kO+VEPHfYo6HcDUwHaUllQEos3w9OugVlQP7fOaHNSKEpOKQDTZlUCGWIaelcp62udfO1IRiNalfVNQK6rHRmW9nYNaUWJSEYjWju1Brage2ueVynuQHPZgDKMJJhDDaIIJxDCaYAIxjCaYQAyjCSYQw2iCCcQwmlDFBDN1ZiRwEDADCQ00Q/m5U5Hd9KeReGLrg1hnZKYTnWv2aZHsS5mxSHjWe/CTEqILCbj310gaOyMBOjGBuDIa+DRyOCqvKAYrS4G3FXVDxuB0YgJx4c3AMsIJo3/5OuIWb0SiExOIljOBbRQnjt7yI2SOUytsFatcnAL8F3HmBicC/0nN3pla3WzJmY7kTY/5nb0T+GjE9gvHBFIevoFMzGNzGSLWWmACKQedwPGxjehhOBIBsxaYQMpBaok4zwYmxDaiCEwg6TMCeLuybhdwFbKbPhbZHdeUicB7gN8o22kHzlDWNTzQiS3zDsZb0D2bbeQfho1CduQ17d2es61SYD1I+hygrHc18JOcbb0KnIPko2/FQTnbKgUmkPSZqKx3o6f2XkI2BVsxxVN7SWMCSR/t0u5zHtt8VlFnGDVwPzGBpI82FnG3xzYtXFAPlb9Bw8iDCcQwmmACMYwm2JHb4mlDDiGdBcwCxtM8P4c2bu6LyP6ED7TBrJcr2lwL3AVcCbycx6g600k9NgrbgZsp/ixHCuUlYP/8j7BYbIhVLOdT3/TVuwO3UrJsViaQYjk3tgGROZCSJQ01gRRHOzVxz2jBobENcMEEUhyTkLMUdWdabANcMIEUR21O4bWgVM/BBFIc2iiHVadUz8EEUhyl+uUMyJ6UaKhpG4XFoRHIVuC20IYEZD9aT8LbkLzsS4Jb4wETSHFohhZLkANLZeVM4BZFvRmYQIKgHRIOQX7JpvFHd/HNwEPEcXdoQ9eDaM5hpIzW/tIMN1MRyAZlvTnAHS3qzEIiAM4a4H9dwBeBi3v+Lopd0fk3hRBIG3ACEolkBpI7/V7geuB3ntuqnEBSYRI6f55u4HOIg19/RgLnIbktWl3nG+FuZUCOUNjUQFxRfDIEuGGQtlYBsz23B+Kc2Oo+vx+g3UrThnxhWse3LuBR4LtIdI0HkYADLs5zBxZyZ8I5Spt8B4f7SIv2luF/RWlhizYbwFOe26wF36ZY79J/Kua2AIlEqLFpb8/tPqFo8xTPbd6kaHMrJXFaTGkf5IaC29u1wLY0K1ivAys8tjkEnXv5Gzy2CZJ0pxUdyLA6eVISyM/RhZspI5pJ6fP4WzjYDYnCrvmVPhU4WVlXg3aiXqod9VSYCrxCMUOsLxRzSwCsVthzl4d23oCcuciSYGcZ8LfkF8pRyvbOy9lObenEfcKdskDGKO35So42RgNX4CeJ58PIjnhWdle2U+QPVOWYgxzRrIJAZivtuSjj9ScCi5VtaMsmsk/e23o+36qNUrjUpDQH6csDwMFIurGyo90Uy7JJuDfyrHwfxBqNbMiemeGzvcO1VpRiszBVgYDsi5wNHIYIZUtcczKjfRE0qz99GYHsA/leGu6lHZgHHJnhs5p7mY4+amQ0UnE1acYiRCg7IRtpc5CI51OR8X070qWvBJ4BHgGui2HoIGhWaxq4x9a9EvgLd3Oc6EB+nA5EXFS0aHrDMchq25oMdhk5GEFacxBNvg3X/Y8ZSPzckHO0vuXzjvZ9SHndIxyvWzgpD7GqgmaI5Tq8+heK/e4uBP7Mob72fpKfh5RhiFVmhgN7Keq5TNA7kHRpWtYg3s0PIY6Ew5Gh2VzgEOU1RiHD3K8p65tXb8KkNMSaqbTlYodralOyNRCX9pGDXKcNOB34vfJaLl4OQ9HtycxzuGYUbIgVlhArWIcr680HPsjg6dQayFLuSejygbwJ/apTF7pFh+R7EBNIWLT+Ri5DLG365U8jImjFQ+g27cbhNg/R3JMJpOaE2CTUvKQN4HGHaz6srKeNNA+6e5qAPpJ8FEwgYdEIZC1yClLLOkWdNtxe5pc8tt1LJVayTCBh0QyxXF1MtC+zy0rX/bQejj2Om0AqsZJlAglHOzo3EFeB/EpZ73L0PlorgH9vUecS5bV6qcS5EBNIOCahS5PsuknYe/6+FeOAXyBLyLsp6l8EfJU/zZa7Dngv7oEWlqFbJEi6B7GNwnCE8uLdCvwA2ehrxSikJ7m8p53VyJzn5Z7yCBICaC2yb3EB4uPVCeyCnHK8B/F1c2ULkhZucot6SQukiqSyUXie0o45Ga59mPLa2rIIeD+6Hs+FexVtP++5Ta/YECscodzcAX4J/DDD5wbjUOBGpJc5w+N1Nfe2FwkHszaBhEMjkM1kd/c+H7dVJQ2Tgf8GvoUcL8iLZvjYG8w6SUwg4dAu8WomsgOxEvg7/nRS7YNzkXnO6JzXKf1SrwkkDNpg1VmGV325A3mZs4qsGUcj/lx5FnK095fsUq8JJAxFBqueB7wTCZfkm79Ezp5kxXoQY0BCOCk2Yz4Szf57nq7Xl0sZOFK+hvXoIsibQGpGyBWswfgtEiVxNnJASrOZqGEo8Ikcn9fcY7JDLNsoDEPIUD992Qc5p9EBPIks/y5Gosl3AG9GNv2mILvpuyGpI1yXVuciQ63lGWx8tsfGZuyNuOZozqUYOUlho3Ceov1tZA/zOR74nwGu+Ti6SCcjgHcgG4TazcQLM9r6GeX1NUeTDQ+kIJAHFe1nzdHXjhxyGuy6v0MfOX0YEstX87zmZ7T3fcrrH5fx+kGxOUgYQuYjPI3mQ5ZdgH9WXut14AOIL1YrtAEe+lPqlSwTiH/GoDsWm1UgxyrquPwab0C3+jWBbJEQTSDGDoRewdIcuZ3oeE1ND9LB4BFSmrEacalphQmkJoRewdK4no/Hzb9Jc7BqK4NHSGlGA929JrnUawLxT2iBPKesdzm6IdHhwImKemvI7tKijXCSXDBrE4h/QgWr7mWhst5ZwDdpHrzhSGT+oXkxtZFPBkIznBxDsXkjVdhGoX80PchKsqdzeABxcx+nqHsusrv+H8CCnnZHA/siCXLe5tDuT5ys3BGX8+kv52jHUBB7H+R5RdsLcrbxJUUbPstrwJ/nsPd4ZTvn5GgjCDbE8os2WHVeH6yrkElzUdyArEZlpbQxskwgfpmKbjyf1wdrBXBZzmtoeQX3/CD9WYFsSrYiuZUsE4hfinJSBMlqm3eopuFcxFM4D9vRBWewHqTiaH8Bfbi5dwHvwi0GrysXA3d6upY2b2FSmED8UmQPApLb41jgZ56u10sDSaPmcyGjlMGsTSB+0Qar3uCxzVeAtyIbgz7OU/wGOAa41sO1+lJKnywTiF80Qyyfpwh72YbEzp1Ndrf0FcDHkPz0P/dkV19KuZJlAvFHqGDVLvwacYffF+lRNDwCnIzYfhUithBYD1JztMGqQwqkl2eQYAsa36n5wF2EP+76HDp7klrqNYH4o8gVLA1dSI/SisdCG9LDFsTVpRXWg1SUolewNHyxxf+fwi17bV5Kl7fQBOKPFAXyLQZfjVqFBKruKs4c1b0nFczaBOIPjUA2kT1YdRYawN8j+dB/hOxmL0ZygByEhAoqEs3wMqlg1ubu7o/Qwaqz0gC+21Ni47KSlTXqi1esB/GDNlh1kcOrFCld3kLrQfygDVbdBRwV2JaU0aamTmaibgLxg/YX78yeYjQnGYHYEMsPyXyhFSGZ52kC8UMyX2hFmEb2uMVeqbNAfIaYSWZSWRE60McXDkoVBbIV3VJqliiBg+EaydBoTZ4gEd6ookAa6KIP7u6xzVUer2UISYT/qaJAAF5S1MmaVmwgbvN4LUN2+7Mk6zGUfA9dHKY9PLXXhriNFxmrqqrlNSQzVhJUtQdZrKx3lqf2GsC7ga9QrPNf1XgQ2Uh9KLYhvSQXLNgTxwH3KOotR/L8aWI2aRmPJJsZ7fi5NkRgmtWbK0joJfLAVuQsvA2rCmIkMlHXdOkXRbKxP6ehs3c7IkLDyMW30b1wm4H9I9nYywRkYUFj748j2WhUjGPQTwyXICmSYzAKuF9hY2+ZG8dMo2q00TwbbP/yBMXv3o4Ffupg41LMwdTwyEm4LTGuQpdtyQeHAU872vf+gmwzakSW/YnbkQBqIZiBpBPodrRpIdVdlk+Wqi7z9mUKEuBZe1inL48B30eGas8C63Hb5xjS0+5UpMc4CXhLBju2IbkEtfs7huHEu3DvRVIqF/h/JIaxI58l/ouepVxPPXp6IzJtwHXEf+Fdyu3AsBAPwzAGYghwDfFffE25CROHEYE24B+QiW9sEQxUuoFPYcMqIzJvRBzkYguib1mOZIwyjCToAD6OLN/GFMarwOdw9wA2jEIYB3wSCc9fpDBWI4luJoS/RcPITztwPHIu40nCiGIpsnT7dnQJd4yI2ESwOWORdGbTe/7eGbd4Td2IO/06JLL6EiSJp2EYhmEYleb/AcU02AGDUDkhAAAAAElFTkSuQmCC;movable=1;resizable=1;rotatable=1;deletable=1;editable=1;locked=0;connectable=1;container=0;" vertex="1" parent="1">
          <mxGeometry x="373.8727529776861" y="176.07928128464008" width="10.32007123915986" height="10.32007123915986" as="geometry" />
        </mxCell>
        <mxCell id="ugaCTf1EiENJRhi7maTh-45" style="edgeStyle=orthogonalEdgeStyle;rounded=0;orthogonalLoop=1;jettySize=auto;html=1;entryX=-0.112;entryY=0.604;entryDx=0;entryDy=0;entryPerimeter=0;" edge="1" parent="1">
          <mxGeometry relative="1" as="geometry">
            <mxPoint x="317.09238392832447" y="225.63000000000005" as="sourcePoint" />
            <mxPoint x="352.02766881022956" y="226.00409643788004" as="targetPoint" />
          </mxGeometry>
        </mxCell>
        <mxCell id="ugaCTf1EiENJRhi7maTh-46" style="edgeStyle=orthogonalEdgeStyle;rounded=0;orthogonalLoop=1;jettySize=auto;html=1;exitX=0;exitY=0.5;exitDx=0;exitDy=0;entryX=0.321;entryY=0.5;entryDx=0;entryDy=0;entryPerimeter=0;" edge="1" parent="1">
          <mxGeometry relative="1" as="geometry">
            <mxPoint x="251.31" y="224.89" as="sourcePoint" />
            <mxPoint x="276.6094707297514" y="224.89059453032104" as="targetPoint" />
          </mxGeometry>
        </mxCell>
        <mxCell id="ugaCTf1EiENJRhi7maTh-51" style="edgeStyle=orthogonalEdgeStyle;rounded=0;orthogonalLoop=1;jettySize=auto;html=1;exitX=0.5;exitY=1;exitDx=0;exitDy=0;entryX=0.791;entryY=0.005;entryDx=0;entryDy=0;entryPerimeter=0;" edge="1" parent="1" source="ugaCTf1EiENJRhi7maTh-38" target="ugaCTf1EiENJRhi7maTh-8">
          <mxGeometry relative="1" as="geometry" />
        </mxCell>
        <mxCell id="ugaCTf1EiENJRhi7maTh-52" value="Node" style="text;strokeColor=none;align=center;fillColor=none;html=1;verticalAlign=middle;whiteSpace=wrap;rounded=0;fontFamily=Times New Roman;fontStyle=1" vertex="1" parent="1">
          <mxGeometry x="560" y="173.59" width="60" height="30" as="geometry" />
        </mxCell>
      </root>
    </mxGraphModel>
  </diagram>
</mxfile>
